%
M48
M72
T01C0.01969
T02C0.02362
T03C0.03150
T04C0.03200
T05C0.03600
T06C0.03937
T07C0.04000
T08C0.05906
T09C0.11811
%
T01
X160705Y113657
X159130Y122713
X192594Y128224
X191413Y166020
X157555Y169957
X184720Y190035
X191020Y195547
X185508Y201453
X186689Y221531
X193776Y224287
X189445Y233736
X194563Y238854
X182358Y233736
X165823Y235705
X162280Y240429
X165823Y251059
X170547Y249484
X181965Y252240
X182106Y258772
X165823Y266413
X159606Y265772
X145106Y255772
X161886Y216807
X157949Y212476
X154799Y208539
X157555Y201846
X143382Y210508
X205587Y227437
X213461Y229406
X226059Y219957
X218579Y213657
X233146Y212083
X258343Y206177
X253224Y186492
X249287Y181374
X241807Y180980
X217791Y247122
X213461Y264839
X222122Y282161
X229602Y290429
X179492Y298165
X111886Y138067
X95744Y139642
T02
X100862Y156571
X106374Y165232
X183933Y184130
X205193Y150665
X242594Y145941
X206768Y127437
X140626Y271138
X123303Y291610
X148500Y297516
X192201Y288854
X204406Y301846
X212673Y288854
X225665Y293579
X95744Y292004
X72909Y292004
T03
X68638Y86972
X49740Y74177
T04
X147000Y185866
X166000Y185866
T05
X94311Y185201
X94311Y195201
X94311Y205201
X94311Y215201
X94311Y225201
X94311Y235201
X94311Y245201
T06
X49740Y98783
T07
X35303Y122507
X35303Y133907
X36487Y179954
X62087Y179954
X62087Y197754
X36487Y197754
X50848Y235657
X50848Y245657
X50848Y255657
X50848Y265657
X50848Y275657
X50848Y285657
X253327Y258953
X263327Y258953
X263327Y248953
X253327Y248953
X253327Y238953
X263327Y238953
T08
X81307Y68988
X100992Y68988
X120677Y68988
X140657Y68594
X160343Y68594
X180028Y68594
X200402Y69382
X220087Y69382
X239772Y69382
X240165Y89067
X229535Y89067
X210638Y89067
X200008Y89067
X180421Y88280
X169791Y88280
X150894Y88280
X140264Y88280
X121071Y88673
X110441Y88673
X91543Y88673
X80913Y88673
X78772Y333416
X68142Y333416
X49244Y333416
X38614Y333416
X39008Y353101
X58693Y353101
X78378Y353101
X90563Y353101
X110248Y353101
X129933Y353101
X143181Y353101
X162866Y353101
X182551Y353101
X199799Y352601
X219484Y352601
X239169Y352601
X239563Y332916
X228933Y332916
X210035Y332916
X199406Y332916
X182945Y333416
X172315Y333416
X153417Y333416
X142787Y333416
X130327Y333416
X119697Y333416
X100799Y333416
X90169Y333416
T09
X261886Y340823
X261886Y77043
M30
