G75*
%MOIN*%
%OFA0B0*%
%FSLAX25Y25*%
%IPPOS*%
%LPD*%
%AMOC8*
5,1,8,0,0,1.08239X$1,22.5*
%
%ADD10C,0.10000*%
%ADD11C,0.08858*%
%ADD12C,0.07400*%
%ADD13C,0.08600*%
%ADD14C,0.10000*%
%ADD15C,0.04800*%
%ADD16OC8,0.07400*%
%ADD17C,0.05400*%
%ADD18C,0.06000*%
%ADD19C,0.03962*%
%ADD20C,0.02400*%
%ADD21C,0.03569*%
%ADD22C,0.01600*%
%ADD23C,0.01200*%
D10*
X0100992Y0068988D03*
X0160343Y0068594D03*
X0220087Y0069382D03*
X0219484Y0352601D03*
X0162866Y0353101D03*
X0110248Y0353101D03*
X0058693Y0353101D03*
D11*
X0068142Y0333416D03*
X0078772Y0333416D03*
X0090169Y0333416D03*
X0100799Y0333416D03*
X0119697Y0333416D03*
X0130327Y0333416D03*
X0142787Y0333416D03*
X0153417Y0333416D03*
X0172315Y0333416D03*
X0182945Y0333416D03*
X0199406Y0332916D03*
X0210035Y0332916D03*
X0228933Y0332916D03*
X0239563Y0332916D03*
X0049244Y0333416D03*
X0038614Y0333416D03*
X0080913Y0088673D03*
X0091543Y0088673D03*
X0110441Y0088673D03*
X0121071Y0088673D03*
X0140264Y0088280D03*
X0150894Y0088280D03*
X0169791Y0088280D03*
X0180421Y0088280D03*
X0200008Y0089067D03*
X0210638Y0089067D03*
X0229535Y0089067D03*
X0240165Y0089067D03*
D12*
X0035303Y0122507D03*
X0035303Y0133907D03*
X0050848Y0235657D03*
X0050848Y0245657D03*
X0050848Y0255657D03*
X0050848Y0265657D03*
X0050848Y0275657D03*
X0050848Y0285657D03*
D13*
X0068638Y0089552D02*
X0068638Y0084392D01*
X0052320Y0074177D02*
X0047160Y0074177D01*
D14*
X0046740Y0098783D02*
X0052740Y0098783D01*
D15*
X0147000Y0185866D03*
X0166000Y0185866D03*
D16*
X0253327Y0238953D03*
X0263327Y0238953D03*
X0263327Y0248953D03*
X0253327Y0248953D03*
X0253327Y0258953D03*
X0263327Y0258953D03*
D17*
X0095931Y0245201D02*
X0092691Y0245201D01*
X0092691Y0235201D02*
X0095931Y0235201D01*
X0095931Y0225201D02*
X0092691Y0225201D01*
X0092691Y0215201D02*
X0095931Y0215201D01*
X0095931Y0205201D02*
X0092691Y0205201D01*
X0092691Y0195201D02*
X0095931Y0195201D01*
X0095931Y0185201D02*
X0092691Y0185201D01*
D18*
X0063887Y0179954D02*
X0060287Y0179954D01*
X0038287Y0179954D02*
X0034687Y0179954D01*
X0034687Y0197754D02*
X0038287Y0197754D01*
X0060287Y0197754D02*
X0063887Y0197754D01*
D19*
X0106374Y0165232D03*
X0100862Y0156571D03*
X0183933Y0184130D03*
X0205193Y0150665D03*
X0242594Y0145941D03*
X0206768Y0127437D03*
X0140626Y0271138D03*
X0123303Y0291610D03*
X0148500Y0297516D03*
X0192201Y0288854D03*
X0204406Y0301846D03*
X0212673Y0288854D03*
X0225665Y0293579D03*
X0095744Y0292004D03*
X0072909Y0292004D03*
D20*
X0095744Y0292004D01*
X0123303Y0291610D02*
X0142594Y0291610D01*
X0148500Y0297516D01*
X0140626Y0271138D02*
X0109917Y0240429D01*
X0109917Y0167988D01*
X0107161Y0165232D01*
X0106374Y0165232D01*
X0100469Y0171925D02*
X0100469Y0156965D01*
X0100862Y0156571D01*
X0100469Y0171925D02*
X0104406Y0175862D01*
X0104406Y0190823D01*
X0100028Y0195201D01*
X0094311Y0195201D01*
X0094311Y0185201D02*
X0085508Y0185201D01*
X0068972Y0201736D01*
X0068972Y0273500D01*
X0056815Y0285657D01*
X0050848Y0285657D01*
X0192201Y0288854D02*
X0212673Y0288854D01*
X0217398Y0301846D02*
X0225665Y0293579D01*
X0217398Y0301846D02*
X0204406Y0301846D01*
X0205193Y0150665D02*
X0197713Y0150665D01*
X0160705Y0113657D01*
X0141020Y0113657D01*
X0116610Y0138067D01*
X0111886Y0138067D01*
X0206768Y0127437D02*
X0224091Y0127437D01*
X0242594Y0145941D01*
D21*
X0192594Y0128224D03*
X0159130Y0122713D03*
X0160705Y0113657D03*
X0111886Y0138067D03*
X0095744Y0139642D03*
X0157555Y0169957D03*
X0184720Y0190035D03*
X0191020Y0195547D03*
X0185508Y0201453D03*
X0186689Y0221531D03*
X0193776Y0224287D03*
X0189445Y0233736D03*
X0194563Y0238854D03*
X0182358Y0233736D03*
X0165823Y0235705D03*
X0162280Y0240429D03*
X0165823Y0251059D03*
X0170547Y0249484D03*
X0181965Y0252240D03*
X0182106Y0258772D03*
X0165823Y0266413D03*
X0159606Y0265772D03*
X0145106Y0255772D03*
X0161886Y0216807D03*
X0157949Y0212476D03*
X0154799Y0208539D03*
X0157555Y0201846D03*
X0143382Y0210508D03*
X0205587Y0227437D03*
X0213461Y0229406D03*
X0226059Y0219957D03*
X0218579Y0213657D03*
X0233146Y0212083D03*
X0258343Y0206177D03*
X0253224Y0186492D03*
X0249287Y0181374D03*
X0241807Y0180980D03*
X0191413Y0166020D03*
X0217791Y0247122D03*
X0213461Y0264839D03*
X0222122Y0282161D03*
X0229602Y0290429D03*
X0179492Y0298165D03*
D22*
X0023584Y0077812D02*
X0023584Y0059943D01*
X0260030Y0059943D01*
X0260030Y0060523D01*
X0258147Y0060665D01*
X0258147Y0060665D01*
X0253486Y0062494D01*
X0253486Y0062494D01*
X0249571Y0065616D01*
X0249571Y0065616D01*
X0249571Y0065616D01*
X0246750Y0069754D01*
X0246750Y0069754D01*
X0245273Y0074539D01*
X0245273Y0079547D01*
X0246750Y0084333D01*
X0246750Y0084333D01*
X0249571Y0088470D01*
X0249571Y0088470D01*
X0253486Y0091593D01*
X0253486Y0091593D01*
X0258147Y0093422D01*
X0258147Y0093422D01*
X0263141Y0093796D01*
X0263141Y0093796D01*
X0268024Y0092682D01*
X0268024Y0092682D01*
X0272360Y0090178D01*
X0272360Y0090178D01*
X0275767Y0086507D01*
X0275767Y0086507D01*
X0277939Y0081995D01*
X0277939Y0081995D01*
X0278686Y0077043D01*
X0277939Y0072091D01*
X0277939Y0072091D01*
X0275767Y0067580D01*
X0275767Y0067580D01*
X0272360Y0063909D01*
X0272360Y0063909D01*
X0268024Y0061405D01*
X0263742Y0060427D01*
X0263742Y0059943D01*
X0279774Y0059943D01*
X0279774Y0363435D01*
X0023525Y0363435D01*
X0023525Y0077871D01*
X0023584Y0077812D01*
X0023584Y0077446D02*
X0042243Y0077446D01*
X0042114Y0077269D02*
X0041692Y0076442D01*
X0041405Y0075559D01*
X0041260Y0074641D01*
X0041260Y0074177D01*
X0041260Y0073713D01*
X0041405Y0072796D01*
X0041692Y0071912D01*
X0042114Y0071085D01*
X0042660Y0070334D01*
X0043317Y0069677D01*
X0044068Y0069131D01*
X0044895Y0068709D01*
X0045779Y0068422D01*
X0046696Y0068277D01*
X0049740Y0068277D01*
X0049740Y0074177D01*
X0049740Y0074177D01*
X0041260Y0074177D01*
X0049740Y0074177D01*
X0049740Y0074177D01*
X0049740Y0068277D01*
X0052784Y0068277D01*
X0053702Y0068422D01*
X0054585Y0068709D01*
X0055412Y0069131D01*
X0056164Y0069677D01*
X0056820Y0070334D01*
X0057366Y0071085D01*
X0057788Y0071912D01*
X0058075Y0072796D01*
X0058220Y0073713D01*
X0058220Y0074177D01*
X0049740Y0074177D01*
X0049740Y0080077D01*
X0046696Y0080077D01*
X0045779Y0079932D01*
X0044895Y0079645D01*
X0044068Y0079223D01*
X0043317Y0078677D01*
X0042660Y0078021D01*
X0042114Y0077269D01*
X0041499Y0075848D02*
X0023584Y0075848D01*
X0023584Y0074249D02*
X0041260Y0074249D01*
X0041452Y0072651D02*
X0023584Y0072651D01*
X0023584Y0071052D02*
X0042138Y0071052D01*
X0043624Y0069454D02*
X0023584Y0069454D01*
X0023584Y0067855D02*
X0076848Y0067855D01*
X0076754Y0068083D02*
X0077447Y0066409D01*
X0078728Y0065129D01*
X0080401Y0064435D01*
X0082213Y0064435D01*
X0083886Y0065129D01*
X0085167Y0066409D01*
X0085860Y0068083D01*
X0085860Y0069894D01*
X0085167Y0071567D01*
X0083886Y0072848D01*
X0082213Y0073541D01*
X0080401Y0073541D01*
X0078728Y0072848D01*
X0077447Y0071567D01*
X0076754Y0069894D01*
X0076754Y0068083D01*
X0076754Y0069454D02*
X0055857Y0069454D01*
X0057343Y0071052D02*
X0077234Y0071052D01*
X0078531Y0072651D02*
X0058028Y0072651D01*
X0058220Y0074177D02*
X0049740Y0074177D01*
X0049740Y0074177D01*
X0049740Y0074177D01*
X0049740Y0080077D01*
X0052784Y0080077D01*
X0053702Y0079932D01*
X0054585Y0079645D01*
X0055412Y0079223D01*
X0056164Y0078677D01*
X0056820Y0078021D01*
X0057366Y0077269D01*
X0057788Y0076442D01*
X0058075Y0075559D01*
X0058220Y0074641D01*
X0058220Y0074177D01*
X0058220Y0074249D02*
X0096637Y0074249D01*
X0097140Y0074753D02*
X0095227Y0072840D01*
X0094192Y0070341D01*
X0094192Y0067636D01*
X0095227Y0065136D01*
X0097140Y0063223D01*
X0099640Y0062188D01*
X0102345Y0062188D01*
X0104844Y0063223D01*
X0106757Y0065136D01*
X0107792Y0067636D01*
X0107792Y0070341D01*
X0106757Y0072840D01*
X0104844Y0074753D01*
X0102345Y0075788D01*
X0099640Y0075788D01*
X0097140Y0074753D01*
X0095149Y0072651D02*
X0084083Y0072651D01*
X0085380Y0071052D02*
X0094487Y0071052D01*
X0094192Y0069454D02*
X0085860Y0069454D01*
X0085766Y0067855D02*
X0094192Y0067855D01*
X0094763Y0066257D02*
X0085014Y0066257D01*
X0082751Y0064658D02*
X0095705Y0064658D01*
X0097535Y0063060D02*
X0023584Y0063060D01*
X0023584Y0064658D02*
X0079864Y0064658D01*
X0077600Y0066257D02*
X0023584Y0066257D01*
X0023584Y0061461D02*
X0256117Y0061461D01*
X0252776Y0063060D02*
X0222593Y0063060D01*
X0221439Y0062582D02*
X0223938Y0063617D01*
X0225851Y0065530D01*
X0226887Y0068029D01*
X0226887Y0070734D01*
X0225851Y0073234D01*
X0223938Y0075147D01*
X0221439Y0076182D01*
X0218734Y0076182D01*
X0216235Y0075147D01*
X0214322Y0073234D01*
X0213287Y0070734D01*
X0213287Y0068029D01*
X0214322Y0065530D01*
X0216235Y0063617D01*
X0218734Y0062582D01*
X0221439Y0062582D01*
X0217580Y0063060D02*
X0164424Y0063060D01*
X0164194Y0062830D02*
X0166107Y0064743D01*
X0167143Y0067242D01*
X0167143Y0069947D01*
X0166107Y0072446D01*
X0164194Y0074359D01*
X0161695Y0075394D01*
X0158990Y0075394D01*
X0156491Y0074359D01*
X0154578Y0072446D01*
X0153543Y0069947D01*
X0153543Y0067242D01*
X0154578Y0064743D01*
X0156491Y0062830D01*
X0158990Y0061794D01*
X0161695Y0061794D01*
X0164194Y0062830D01*
X0166023Y0064658D02*
X0177634Y0064658D01*
X0177449Y0064735D02*
X0179122Y0064042D01*
X0180933Y0064042D01*
X0182606Y0064735D01*
X0183887Y0066016D01*
X0184580Y0067689D01*
X0184580Y0069500D01*
X0183887Y0071173D01*
X0182606Y0072454D01*
X0180933Y0073147D01*
X0179122Y0073147D01*
X0177449Y0072454D01*
X0176168Y0071173D01*
X0175475Y0069500D01*
X0175475Y0067689D01*
X0176168Y0066016D01*
X0177449Y0064735D01*
X0176068Y0066257D02*
X0166734Y0066257D01*
X0167143Y0067855D02*
X0175475Y0067855D01*
X0175475Y0069454D02*
X0167143Y0069454D01*
X0166685Y0071052D02*
X0176118Y0071052D01*
X0177923Y0072651D02*
X0165903Y0072651D01*
X0164304Y0074249D02*
X0215337Y0074249D01*
X0214080Y0072651D02*
X0203571Y0072651D01*
X0202980Y0073242D02*
X0204261Y0071961D01*
X0204954Y0070287D01*
X0204954Y0068476D01*
X0204261Y0066803D01*
X0202980Y0065522D01*
X0201307Y0064829D01*
X0199496Y0064829D01*
X0197823Y0065522D01*
X0196542Y0066803D01*
X0195849Y0068476D01*
X0195849Y0070287D01*
X0196542Y0071961D01*
X0197823Y0073242D01*
X0199496Y0073935D01*
X0201307Y0073935D01*
X0202980Y0073242D01*
X0204638Y0071052D02*
X0213418Y0071052D01*
X0213287Y0069454D02*
X0204954Y0069454D01*
X0204697Y0067855D02*
X0213359Y0067855D01*
X0214021Y0066257D02*
X0203715Y0066257D01*
X0197088Y0066257D02*
X0183987Y0066257D01*
X0184580Y0067855D02*
X0196106Y0067855D01*
X0195849Y0069454D02*
X0184580Y0069454D01*
X0183937Y0071052D02*
X0196166Y0071052D01*
X0197232Y0072651D02*
X0182132Y0072651D01*
X0182422Y0064658D02*
X0215194Y0064658D01*
X0224980Y0064658D02*
X0250772Y0064658D01*
X0249134Y0066257D02*
X0243085Y0066257D01*
X0243631Y0066803D02*
X0242351Y0065522D01*
X0240677Y0064829D01*
X0238866Y0064829D01*
X0237193Y0065522D01*
X0235912Y0066803D01*
X0235219Y0068476D01*
X0235219Y0070287D01*
X0235912Y0071961D01*
X0237193Y0073242D01*
X0238866Y0073935D01*
X0240677Y0073935D01*
X0242351Y0073242D01*
X0243631Y0071961D01*
X0244324Y0070287D01*
X0244324Y0068476D01*
X0243631Y0066803D01*
X0244067Y0067855D02*
X0248044Y0067855D01*
X0246954Y0069454D02*
X0244324Y0069454D01*
X0244008Y0071052D02*
X0246349Y0071052D01*
X0245856Y0072651D02*
X0242941Y0072651D01*
X0245363Y0074249D02*
X0224836Y0074249D01*
X0226093Y0072651D02*
X0236602Y0072651D01*
X0235536Y0071052D02*
X0226755Y0071052D01*
X0226887Y0069454D02*
X0235219Y0069454D01*
X0235476Y0067855D02*
X0226815Y0067855D01*
X0226152Y0066257D02*
X0236458Y0066257D01*
X0245273Y0075848D02*
X0222246Y0075848D01*
X0217928Y0075848D02*
X0057981Y0075848D01*
X0057238Y0077446D02*
X0245273Y0077446D01*
X0245273Y0079045D02*
X0071138Y0079045D01*
X0070903Y0078925D02*
X0071730Y0079346D01*
X0072481Y0079892D01*
X0073138Y0080549D01*
X0073684Y0081300D01*
X0074106Y0082128D01*
X0074393Y0083011D01*
X0074538Y0083928D01*
X0074538Y0086972D01*
X0068638Y0086972D01*
X0068638Y0078492D01*
X0069102Y0078492D01*
X0070019Y0078638D01*
X0070903Y0078925D01*
X0068638Y0079045D02*
X0068638Y0079045D01*
X0068638Y0078492D02*
X0068638Y0086972D01*
X0068638Y0086972D01*
X0068638Y0086972D01*
X0074538Y0086972D01*
X0074538Y0090017D01*
X0074393Y0090934D01*
X0074106Y0091817D01*
X0073684Y0092645D01*
X0073138Y0093396D01*
X0072481Y0094053D01*
X0071730Y0094599D01*
X0070903Y0095020D01*
X0070019Y0095307D01*
X0069102Y0095452D01*
X0068638Y0095452D01*
X0068638Y0086973D01*
X0068638Y0086973D01*
X0068638Y0095452D01*
X0068173Y0095452D01*
X0067256Y0095307D01*
X0066373Y0095020D01*
X0065546Y0094599D01*
X0064794Y0094053D01*
X0064138Y0093396D01*
X0063592Y0092645D01*
X0063170Y0091817D01*
X0062883Y0090934D01*
X0062738Y0090017D01*
X0062738Y0086972D01*
X0062738Y0083928D01*
X0062883Y0083011D01*
X0063170Y0082128D01*
X0063592Y0081300D01*
X0064138Y0080549D01*
X0064794Y0079892D01*
X0065546Y0079346D01*
X0066373Y0078925D01*
X0067256Y0078638D01*
X0068173Y0078492D01*
X0068638Y0078492D01*
X0068638Y0080643D02*
X0068638Y0080643D01*
X0068638Y0082242D02*
X0068638Y0082242D01*
X0068638Y0083840D02*
X0068638Y0083840D01*
X0068638Y0085439D02*
X0068638Y0085439D01*
X0068638Y0086972D02*
X0062738Y0086972D01*
X0068638Y0086972D01*
X0068638Y0086972D01*
X0068638Y0087037D02*
X0068638Y0087037D01*
X0068638Y0088636D02*
X0068638Y0088636D01*
X0068638Y0090234D02*
X0068638Y0090234D01*
X0068638Y0091833D02*
X0068638Y0091833D01*
X0068638Y0093431D02*
X0068638Y0093431D01*
X0068638Y0095030D02*
X0068638Y0095030D01*
X0070872Y0095030D02*
X0198126Y0095030D01*
X0198769Y0095296D02*
X0196479Y0094348D01*
X0194727Y0092595D01*
X0193779Y0090306D01*
X0193779Y0087828D01*
X0194727Y0085538D01*
X0196479Y0083786D01*
X0198769Y0082838D01*
X0201247Y0082838D01*
X0203536Y0083786D01*
X0205289Y0085538D01*
X0205323Y0085621D01*
X0205357Y0085538D01*
X0207109Y0083786D01*
X0209399Y0082838D01*
X0211877Y0082838D01*
X0214166Y0083786D01*
X0215919Y0085538D01*
X0216867Y0087828D01*
X0216867Y0090306D01*
X0215919Y0092595D01*
X0214166Y0094348D01*
X0211877Y0095296D01*
X0209399Y0095296D01*
X0207109Y0094348D01*
X0205357Y0092595D01*
X0205323Y0092513D01*
X0205289Y0092595D01*
X0203536Y0094348D01*
X0201247Y0095296D01*
X0198769Y0095296D01*
X0201889Y0095030D02*
X0208756Y0095030D01*
X0206193Y0093431D02*
X0204453Y0093431D01*
X0212519Y0095030D02*
X0227654Y0095030D01*
X0228296Y0095296D02*
X0226007Y0094348D01*
X0224255Y0092595D01*
X0223306Y0090306D01*
X0223306Y0087828D01*
X0224255Y0085538D01*
X0226007Y0083786D01*
X0228296Y0082838D01*
X0230774Y0082838D01*
X0233064Y0083786D01*
X0234816Y0085538D01*
X0234850Y0085621D01*
X0234885Y0085538D01*
X0236637Y0083786D01*
X0238926Y0082838D01*
X0241404Y0082838D01*
X0243694Y0083786D01*
X0245446Y0085538D01*
X0246394Y0087828D01*
X0246394Y0090306D01*
X0245446Y0092595D01*
X0243694Y0094348D01*
X0241404Y0095296D01*
X0238926Y0095296D01*
X0236637Y0094348D01*
X0234885Y0092595D01*
X0234850Y0092513D01*
X0234816Y0092595D01*
X0233064Y0094348D01*
X0230774Y0095296D01*
X0228296Y0095296D01*
X0231417Y0095030D02*
X0238284Y0095030D01*
X0235721Y0093431D02*
X0233980Y0093431D01*
X0242047Y0095030D02*
X0279774Y0095030D01*
X0279774Y0096628D02*
X0059208Y0096628D01*
X0059540Y0097431D02*
X0059540Y0100136D01*
X0058505Y0102635D01*
X0056592Y0104548D01*
X0054093Y0105583D01*
X0045388Y0105583D01*
X0042888Y0104548D01*
X0040975Y0102635D01*
X0039940Y0100136D01*
X0039940Y0097431D01*
X0040975Y0094932D01*
X0042888Y0093019D01*
X0045388Y0091983D01*
X0054093Y0091983D01*
X0056592Y0093019D01*
X0058505Y0094932D01*
X0059540Y0097431D01*
X0059540Y0098227D02*
X0279774Y0098227D01*
X0279774Y0099826D02*
X0059540Y0099826D01*
X0059007Y0101424D02*
X0279774Y0101424D01*
X0279774Y0103023D02*
X0058118Y0103023D01*
X0056416Y0104621D02*
X0279774Y0104621D01*
X0279774Y0106220D02*
X0023525Y0106220D01*
X0023525Y0107818D02*
X0279774Y0107818D01*
X0279774Y0109417D02*
X0023525Y0109417D01*
X0023525Y0111015D02*
X0139560Y0111015D01*
X0139320Y0111114D02*
X0140423Y0110657D01*
X0158636Y0110657D01*
X0158674Y0110619D01*
X0159992Y0110073D01*
X0161418Y0110073D01*
X0162735Y0110619D01*
X0163743Y0111627D01*
X0164289Y0112945D01*
X0164289Y0112999D01*
X0198955Y0147665D01*
X0202846Y0147665D01*
X0203051Y0147460D01*
X0204441Y0146884D01*
X0205945Y0146884D01*
X0207335Y0147460D01*
X0208398Y0148524D01*
X0208974Y0149913D01*
X0208974Y0151417D01*
X0208398Y0152807D01*
X0207335Y0153871D01*
X0205945Y0154446D01*
X0204441Y0154446D01*
X0203051Y0153871D01*
X0202846Y0153665D01*
X0197116Y0153665D01*
X0196013Y0153209D01*
X0160046Y0117242D01*
X0159992Y0117242D01*
X0158674Y0116696D01*
X0158636Y0116657D01*
X0142262Y0116657D01*
X0118310Y0140610D01*
X0117207Y0141067D01*
X0113955Y0141067D01*
X0113916Y0141105D01*
X0112599Y0141651D01*
X0111173Y0141651D01*
X0109856Y0141105D01*
X0108847Y0140097D01*
X0108302Y0138780D01*
X0108302Y0137354D01*
X0108847Y0136037D01*
X0109856Y0135028D01*
X0111173Y0134483D01*
X0112599Y0134483D01*
X0113916Y0135028D01*
X0113955Y0135067D01*
X0115368Y0135067D01*
X0138476Y0111958D01*
X0139320Y0111114D01*
X0137821Y0112614D02*
X0023525Y0112614D01*
X0023525Y0114212D02*
X0136222Y0114212D01*
X0134624Y0115811D02*
X0023525Y0115811D01*
X0023525Y0117409D02*
X0033239Y0117409D01*
X0034209Y0117007D02*
X0032188Y0117844D01*
X0030640Y0119392D01*
X0029803Y0121413D01*
X0029803Y0123601D01*
X0030640Y0125623D01*
X0032188Y0127170D01*
X0034209Y0128007D01*
X0036397Y0128007D01*
X0038419Y0127170D01*
X0039966Y0125623D01*
X0040803Y0123601D01*
X0040803Y0121413D01*
X0039966Y0119392D01*
X0038419Y0117844D01*
X0036397Y0117007D01*
X0034209Y0117007D01*
X0037368Y0117409D02*
X0133025Y0117409D01*
X0131427Y0119008D02*
X0039582Y0119008D01*
X0040469Y0120606D02*
X0129828Y0120606D01*
X0128230Y0122205D02*
X0040803Y0122205D01*
X0040719Y0123803D02*
X0126631Y0123803D01*
X0125033Y0125402D02*
X0040057Y0125402D01*
X0038588Y0127000D02*
X0123434Y0127000D01*
X0121836Y0128599D02*
X0036860Y0128599D01*
X0036397Y0128407D02*
X0038419Y0129244D01*
X0039966Y0130792D01*
X0040803Y0132813D01*
X0040803Y0135001D01*
X0039966Y0137023D01*
X0038419Y0138570D01*
X0036397Y0139407D01*
X0034209Y0139407D01*
X0032188Y0138570D01*
X0030640Y0137023D01*
X0029803Y0135001D01*
X0029803Y0132813D01*
X0030640Y0130792D01*
X0032188Y0129244D01*
X0034209Y0128407D01*
X0036397Y0128407D01*
X0033746Y0128599D02*
X0023525Y0128599D01*
X0023525Y0130197D02*
X0031235Y0130197D01*
X0030225Y0131796D02*
X0023525Y0131796D01*
X0023525Y0133394D02*
X0029803Y0133394D01*
X0029803Y0134993D02*
X0023525Y0134993D01*
X0023525Y0136591D02*
X0030462Y0136591D01*
X0031808Y0138190D02*
X0023525Y0138190D01*
X0023525Y0139788D02*
X0092160Y0139788D01*
X0092160Y0140355D02*
X0092160Y0138929D01*
X0092706Y0137611D01*
X0093714Y0136603D01*
X0095031Y0136057D01*
X0096457Y0136057D01*
X0097774Y0136603D01*
X0098783Y0137611D01*
X0099328Y0138929D01*
X0099328Y0139549D01*
X0116452Y0156673D01*
X0116848Y0157628D01*
X0116848Y0201557D01*
X0140916Y0225624D01*
X0184450Y0225624D01*
X0185406Y0226020D01*
X0186137Y0226752D01*
X0189538Y0230152D01*
X0190158Y0230152D01*
X0191475Y0230698D01*
X0191963Y0231185D01*
X0191963Y0228495D01*
X0192344Y0227574D01*
X0191745Y0227326D01*
X0190737Y0226318D01*
X0190191Y0225000D01*
X0190191Y0223574D01*
X0190737Y0222257D01*
X0191745Y0221249D01*
X0193063Y0220703D01*
X0193683Y0220703D01*
X0207711Y0206675D01*
X0207711Y0204186D01*
X0207059Y0204838D01*
X0190273Y0221624D01*
X0190273Y0222244D01*
X0189728Y0223562D01*
X0188719Y0224570D01*
X0187402Y0225116D01*
X0185976Y0225116D01*
X0184659Y0224570D01*
X0183650Y0223562D01*
X0183105Y0222244D01*
X0183105Y0220819D01*
X0183650Y0219501D01*
X0184659Y0218493D01*
X0185976Y0217947D01*
X0186596Y0217947D01*
X0202987Y0201557D01*
X0202987Y0181270D01*
X0191321Y0169604D01*
X0190700Y0169604D01*
X0189383Y0169058D01*
X0188375Y0168050D01*
X0187829Y0166733D01*
X0187829Y0165307D01*
X0188375Y0163989D01*
X0189383Y0162981D01*
X0190700Y0162435D01*
X0192126Y0162435D01*
X0193444Y0162981D01*
X0194452Y0163989D01*
X0194998Y0165307D01*
X0194998Y0165927D01*
X0207711Y0178640D01*
X0207711Y0174971D01*
X0159037Y0126297D01*
X0158417Y0126297D01*
X0157100Y0125751D01*
X0156091Y0124743D01*
X0155546Y0123426D01*
X0155546Y0122000D01*
X0156091Y0120682D01*
X0157100Y0119674D01*
X0158417Y0119128D01*
X0159843Y0119128D01*
X0161160Y0119674D01*
X0162168Y0120682D01*
X0162714Y0122000D01*
X0162714Y0122620D01*
X0211648Y0171554D01*
X0211648Y0150955D01*
X0192502Y0131809D01*
X0191882Y0131809D01*
X0190564Y0131263D01*
X0189556Y0130255D01*
X0189010Y0128937D01*
X0189010Y0127511D01*
X0189556Y0126194D01*
X0190564Y0125186D01*
X0191882Y0124640D01*
X0193307Y0124640D01*
X0194625Y0125186D01*
X0195633Y0126194D01*
X0196179Y0127511D01*
X0196179Y0128132D01*
X0216452Y0148405D01*
X0216848Y0149361D01*
X0216848Y0202262D01*
X0217106Y0202004D01*
X0238223Y0180888D01*
X0238223Y0180267D01*
X0238769Y0178950D01*
X0239777Y0177942D01*
X0241094Y0177396D01*
X0242520Y0177396D01*
X0243837Y0177942D01*
X0244846Y0178950D01*
X0245391Y0180267D01*
X0245391Y0181553D01*
X0245703Y0181247D01*
X0245703Y0180661D01*
X0246249Y0179344D01*
X0247257Y0178335D01*
X0248574Y0177790D01*
X0250000Y0177790D01*
X0251318Y0178335D01*
X0252326Y0179344D01*
X0252872Y0180661D01*
X0252872Y0182087D01*
X0252532Y0182908D01*
X0253937Y0182908D01*
X0255255Y0183454D01*
X0256263Y0184462D01*
X0256809Y0185779D01*
X0256809Y0187205D01*
X0256263Y0188522D01*
X0255255Y0189531D01*
X0253937Y0190076D01*
X0253317Y0190076D01*
X0237320Y0206073D01*
X0237320Y0211025D01*
X0236925Y0211981D01*
X0236730Y0212175D01*
X0236730Y0212796D01*
X0236184Y0214113D01*
X0235176Y0215121D01*
X0233859Y0215667D01*
X0232433Y0215667D01*
X0231115Y0215121D01*
X0230107Y0214113D01*
X0229634Y0212972D01*
X0226234Y0216372D01*
X0226772Y0216372D01*
X0228089Y0216918D01*
X0229098Y0217926D01*
X0229643Y0219244D01*
X0229643Y0219864D01*
X0233829Y0224050D01*
X0255710Y0224050D01*
X0256666Y0224445D01*
X0257397Y0225177D01*
X0265531Y0233311D01*
X0265590Y0233453D01*
X0265605Y0233453D01*
X0268827Y0236675D01*
X0268827Y0241231D01*
X0266105Y0243953D01*
X0268827Y0246675D01*
X0268827Y0251231D01*
X0266105Y0253953D01*
X0268827Y0256675D01*
X0268827Y0261231D01*
X0265605Y0264453D01*
X0261049Y0264453D01*
X0258185Y0261589D01*
X0255522Y0264253D01*
X0253527Y0264253D01*
X0253527Y0259153D01*
X0253127Y0259153D01*
X0253127Y0264253D01*
X0251131Y0264253D01*
X0248027Y0261148D01*
X0248027Y0259153D01*
X0253127Y0259153D01*
X0253127Y0258753D01*
X0248027Y0258753D01*
X0248027Y0256757D01*
X0250690Y0254094D01*
X0247949Y0251353D01*
X0227175Y0251353D01*
X0227164Y0251357D01*
X0226698Y0251353D01*
X0226231Y0251353D01*
X0226221Y0251348D01*
X0226209Y0251348D01*
X0225780Y0251166D01*
X0225349Y0250987D01*
X0225341Y0250979D01*
X0225330Y0250975D01*
X0225004Y0250642D01*
X0224674Y0250312D01*
X0224670Y0250302D01*
X0221376Y0246946D01*
X0221376Y0247835D01*
X0220830Y0249152D01*
X0220191Y0249791D01*
X0220191Y0276503D01*
X0222092Y0278577D01*
X0222835Y0278577D01*
X0224152Y0279123D01*
X0225161Y0280131D01*
X0225706Y0281448D01*
X0225706Y0282874D01*
X0225611Y0283105D01*
X0230513Y0283105D01*
X0231469Y0283501D01*
X0232200Y0284232D01*
X0237372Y0289404D01*
X0248604Y0289404D01*
X0271491Y0266518D01*
X0271491Y0235207D01*
X0256138Y0219855D01*
X0255743Y0218899D01*
X0255743Y0208646D01*
X0255304Y0208207D01*
X0254758Y0206890D01*
X0254758Y0205464D01*
X0255304Y0204147D01*
X0256312Y0203139D01*
X0257630Y0202593D01*
X0259055Y0202593D01*
X0260373Y0203139D01*
X0261381Y0204147D01*
X0261927Y0205464D01*
X0261927Y0206890D01*
X0261381Y0208207D01*
X0260943Y0208646D01*
X0260943Y0217305D01*
X0275563Y0231926D01*
X0276295Y0232657D01*
X0276691Y0233613D01*
X0276691Y0268112D01*
X0276295Y0269067D01*
X0275563Y0269799D01*
X0251885Y0293477D01*
X0251154Y0294208D01*
X0250198Y0294604D01*
X0235778Y0294604D01*
X0234822Y0294208D01*
X0232768Y0292153D01*
X0232641Y0292459D01*
X0231633Y0293468D01*
X0230315Y0294013D01*
X0229446Y0294013D01*
X0229446Y0294331D01*
X0228871Y0295721D01*
X0227807Y0296784D01*
X0226417Y0297360D01*
X0226127Y0297360D01*
X0219097Y0304390D01*
X0217994Y0304846D01*
X0206753Y0304846D01*
X0206547Y0305052D01*
X0205158Y0305628D01*
X0203653Y0305628D01*
X0202264Y0305052D01*
X0201200Y0303988D01*
X0200624Y0302599D01*
X0200624Y0301094D01*
X0201200Y0299705D01*
X0202264Y0298641D01*
X0203653Y0298065D01*
X0205158Y0298065D01*
X0206547Y0298641D01*
X0206753Y0298846D01*
X0216155Y0298846D01*
X0221884Y0293117D01*
X0221884Y0292827D01*
X0222460Y0291437D01*
X0222836Y0291061D01*
X0220030Y0291061D01*
X0219074Y0290665D01*
X0216414Y0288004D01*
X0216454Y0288102D01*
X0216454Y0289606D01*
X0215879Y0290996D01*
X0214815Y0292060D01*
X0213425Y0292635D01*
X0211921Y0292635D01*
X0210531Y0292060D01*
X0210326Y0291854D01*
X0194548Y0291854D01*
X0194343Y0292060D01*
X0192953Y0292635D01*
X0191449Y0292635D01*
X0190059Y0292060D01*
X0188995Y0290996D01*
X0188420Y0289606D01*
X0188420Y0288102D01*
X0188995Y0286713D01*
X0190059Y0285649D01*
X0191449Y0285073D01*
X0192953Y0285073D01*
X0194343Y0285649D01*
X0194548Y0285854D01*
X0210326Y0285854D01*
X0210531Y0285649D01*
X0211921Y0285073D01*
X0213425Y0285073D01*
X0213524Y0285114D01*
X0199392Y0270982D01*
X0167274Y0270982D01*
X0166319Y0270586D01*
X0165730Y0269998D01*
X0165110Y0269998D01*
X0163793Y0269452D01*
X0162784Y0268444D01*
X0162555Y0267891D01*
X0162206Y0268241D01*
X0162206Y0277195D01*
X0167579Y0282568D01*
X0167580Y0282568D01*
X0167967Y0282955D01*
X0168310Y0283299D01*
X0168311Y0283299D01*
X0179586Y0294581D01*
X0180205Y0294581D01*
X0181522Y0295127D01*
X0182531Y0296135D01*
X0183076Y0297452D01*
X0183076Y0298878D01*
X0182531Y0300196D01*
X0181522Y0301204D01*
X0180205Y0301750D01*
X0178779Y0301750D01*
X0177462Y0301204D01*
X0176454Y0300196D01*
X0175908Y0298878D01*
X0175908Y0298257D01*
X0164247Y0286589D01*
X0157402Y0279744D01*
X0157006Y0278789D01*
X0157006Y0268241D01*
X0156568Y0267802D01*
X0156022Y0266485D01*
X0156022Y0265059D01*
X0156568Y0263741D01*
X0157576Y0262733D01*
X0158893Y0262187D01*
X0160319Y0262187D01*
X0161637Y0262733D01*
X0162645Y0263741D01*
X0162874Y0264294D01*
X0163793Y0263375D01*
X0165110Y0262829D01*
X0166536Y0262829D01*
X0167853Y0263375D01*
X0168861Y0264383D01*
X0169407Y0265700D01*
X0169407Y0265782D01*
X0197735Y0265782D01*
X0185361Y0253408D01*
X0185003Y0254270D01*
X0183995Y0255279D01*
X0183517Y0255477D01*
X0184137Y0255733D01*
X0185145Y0256741D01*
X0185691Y0258059D01*
X0185691Y0259485D01*
X0185145Y0260802D01*
X0184137Y0261810D01*
X0182819Y0262356D01*
X0181393Y0262356D01*
X0180076Y0261810D01*
X0179068Y0260802D01*
X0178522Y0259485D01*
X0178522Y0258864D01*
X0177029Y0257372D01*
X0171183Y0257372D01*
X0170579Y0257976D01*
X0169623Y0258372D01*
X0147575Y0258372D01*
X0147137Y0258810D01*
X0145819Y0259356D01*
X0144393Y0259356D01*
X0143076Y0258810D01*
X0142068Y0257802D01*
X0141522Y0256485D01*
X0141522Y0255059D01*
X0142068Y0253741D01*
X0143076Y0252733D01*
X0144393Y0252187D01*
X0145819Y0252187D01*
X0147137Y0252733D01*
X0147575Y0253172D01*
X0168029Y0253172D01*
X0168631Y0252570D01*
X0168517Y0252523D01*
X0167509Y0251515D01*
X0166963Y0250197D01*
X0166963Y0248771D01*
X0167509Y0247454D01*
X0168517Y0246446D01*
X0169834Y0245900D01*
X0171260Y0245900D01*
X0172578Y0246446D01*
X0173016Y0246884D01*
X0178837Y0246884D01*
X0177738Y0245785D01*
X0165719Y0245785D01*
X0164877Y0246626D01*
X0164146Y0247358D01*
X0163190Y0247754D01*
X0159400Y0247754D01*
X0158445Y0247358D01*
X0155689Y0244602D01*
X0154957Y0243870D01*
X0154561Y0242915D01*
X0154561Y0238337D01*
X0154957Y0237382D01*
X0158107Y0234232D01*
X0158838Y0233501D01*
X0159794Y0233105D01*
X0163354Y0233105D01*
X0163793Y0232666D01*
X0165110Y0232120D01*
X0166536Y0232120D01*
X0167853Y0232666D01*
X0168861Y0233674D01*
X0169407Y0234992D01*
X0169407Y0236418D01*
X0168861Y0237735D01*
X0168767Y0237829D01*
X0174588Y0237829D01*
X0178774Y0233644D01*
X0178774Y0233023D01*
X0179320Y0231706D01*
X0180201Y0230824D01*
X0139321Y0230824D01*
X0138366Y0230429D01*
X0112917Y0204980D01*
X0112917Y0239186D01*
X0141088Y0267357D01*
X0141378Y0267357D01*
X0142768Y0267932D01*
X0143831Y0268996D01*
X0144407Y0270386D01*
X0144407Y0271890D01*
X0143831Y0273280D01*
X0142768Y0274343D01*
X0141378Y0274919D01*
X0139874Y0274919D01*
X0138484Y0274343D01*
X0137421Y0273280D01*
X0136845Y0271890D01*
X0136845Y0271599D01*
X0107374Y0242128D01*
X0106917Y0241026D01*
X0106917Y0192554D01*
X0106105Y0193366D01*
X0101727Y0197744D01*
X0100624Y0198201D01*
X0099295Y0198201D01*
X0098480Y0199016D01*
X0096826Y0199701D01*
X0091796Y0199701D01*
X0090142Y0199016D01*
X0088876Y0197750D01*
X0088191Y0196096D01*
X0088191Y0194306D01*
X0088876Y0192652D01*
X0090142Y0191386D01*
X0091796Y0190701D01*
X0096826Y0190701D01*
X0098480Y0191386D01*
X0099040Y0191946D01*
X0101406Y0189580D01*
X0101406Y0177105D01*
X0098769Y0174468D01*
X0097925Y0173625D01*
X0097469Y0172522D01*
X0097469Y0158258D01*
X0097081Y0157323D01*
X0097081Y0155819D01*
X0097657Y0154429D01*
X0098720Y0153365D01*
X0100110Y0152790D01*
X0101614Y0152790D01*
X0103004Y0153365D01*
X0104068Y0154429D01*
X0104643Y0155819D01*
X0104643Y0157323D01*
X0104068Y0158713D01*
X0103468Y0159312D01*
X0103468Y0162791D01*
X0104232Y0162027D01*
X0105622Y0161451D01*
X0107126Y0161451D01*
X0108516Y0162027D01*
X0109579Y0163090D01*
X0109804Y0163632D01*
X0111617Y0165445D01*
X0111648Y0165476D01*
X0111648Y0159223D01*
X0095651Y0143226D01*
X0095031Y0143226D01*
X0093714Y0142680D01*
X0092706Y0141672D01*
X0092160Y0140355D01*
X0092587Y0141387D02*
X0023525Y0141387D01*
X0023525Y0142985D02*
X0094450Y0142985D01*
X0097009Y0144584D02*
X0023525Y0144584D01*
X0023525Y0146182D02*
X0098608Y0146182D01*
X0100206Y0147781D02*
X0023525Y0147781D01*
X0023525Y0149379D02*
X0101805Y0149379D01*
X0103403Y0150978D02*
X0023525Y0150978D01*
X0023525Y0152576D02*
X0105002Y0152576D01*
X0103814Y0154175D02*
X0106600Y0154175D01*
X0108199Y0155773D02*
X0104625Y0155773D01*
X0104623Y0157372D02*
X0109797Y0157372D01*
X0111396Y0158970D02*
X0103810Y0158970D01*
X0103468Y0160569D02*
X0111648Y0160569D01*
X0111648Y0162167D02*
X0108656Y0162167D01*
X0109938Y0163766D02*
X0111648Y0163766D01*
X0111648Y0165364D02*
X0111536Y0165364D01*
X0116848Y0165364D02*
X0187829Y0165364D01*
X0187925Y0166963D02*
X0116848Y0166963D01*
X0116848Y0168561D02*
X0188886Y0168561D01*
X0191877Y0170160D02*
X0116848Y0170160D01*
X0116848Y0171759D02*
X0193475Y0171759D01*
X0195074Y0173357D02*
X0116848Y0173357D01*
X0116848Y0174956D02*
X0196672Y0174956D01*
X0198271Y0176554D02*
X0116848Y0176554D01*
X0116848Y0178153D02*
X0199869Y0178153D01*
X0201468Y0179751D02*
X0116848Y0179751D01*
X0116848Y0181350D02*
X0181366Y0181350D01*
X0181186Y0181530D02*
X0181791Y0180924D01*
X0183181Y0180349D01*
X0184685Y0180349D01*
X0186075Y0180924D01*
X0187139Y0181988D01*
X0187714Y0183378D01*
X0187714Y0184882D01*
X0187139Y0186272D01*
X0186512Y0186898D01*
X0186751Y0186997D01*
X0187759Y0188005D01*
X0188305Y0189322D01*
X0188305Y0190748D01*
X0187759Y0192066D01*
X0186878Y0192947D01*
X0188551Y0192947D01*
X0188989Y0192509D01*
X0190307Y0191963D01*
X0191733Y0191963D01*
X0193050Y0192509D01*
X0194058Y0193517D01*
X0194604Y0194834D01*
X0194604Y0196260D01*
X0194058Y0197578D01*
X0193050Y0198586D01*
X0191733Y0199131D01*
X0190307Y0199131D01*
X0188989Y0198586D01*
X0188551Y0198147D01*
X0187766Y0198147D01*
X0187510Y0198403D01*
X0187538Y0198414D01*
X0188546Y0199422D01*
X0189092Y0200740D01*
X0189092Y0202166D01*
X0188546Y0203483D01*
X0187538Y0204491D01*
X0186221Y0205037D01*
X0185601Y0205037D01*
X0171626Y0219011D01*
X0170671Y0219407D01*
X0164355Y0219407D01*
X0163916Y0219846D01*
X0162599Y0220391D01*
X0161173Y0220391D01*
X0159856Y0219846D01*
X0158847Y0218837D01*
X0158302Y0217520D01*
X0158302Y0216094D01*
X0158315Y0216061D01*
X0157236Y0216061D01*
X0155919Y0215515D01*
X0154910Y0214507D01*
X0154365Y0213189D01*
X0154365Y0212124D01*
X0154086Y0212124D01*
X0152769Y0211578D01*
X0151761Y0210570D01*
X0151215Y0209252D01*
X0151215Y0207927D01*
X0146429Y0212712D01*
X0146117Y0212841D01*
X0145412Y0213546D01*
X0144095Y0214092D01*
X0142669Y0214092D01*
X0141352Y0213546D01*
X0140343Y0212538D01*
X0139798Y0211221D01*
X0139798Y0209795D01*
X0140343Y0208478D01*
X0141352Y0207469D01*
X0142669Y0206924D01*
X0144095Y0206924D01*
X0144639Y0207149D01*
X0148658Y0203130D01*
X0149389Y0202398D01*
X0150345Y0202002D01*
X0156104Y0202002D01*
X0157059Y0202398D01*
X0157451Y0202790D01*
X0158840Y0202790D01*
X0178973Y0182657D01*
X0179704Y0181926D01*
X0180660Y0181530D01*
X0181186Y0181530D01*
X0181177Y0184130D02*
X0183933Y0184130D01*
X0181177Y0184130D02*
X0159917Y0205390D01*
X0156374Y0205390D01*
X0155587Y0204602D01*
X0150862Y0204602D01*
X0144957Y0210508D01*
X0143382Y0210508D01*
X0140005Y0211721D02*
X0127012Y0211721D01*
X0125414Y0210123D02*
X0139798Y0210123D01*
X0140324Y0208524D02*
X0123815Y0208524D01*
X0122217Y0206926D02*
X0142664Y0206926D01*
X0144100Y0206926D02*
X0144862Y0206926D01*
X0146460Y0205327D02*
X0120618Y0205327D01*
X0119020Y0203729D02*
X0148059Y0203729D01*
X0150036Y0202130D02*
X0117421Y0202130D01*
X0116848Y0200532D02*
X0161098Y0200532D01*
X0159500Y0202130D02*
X0156412Y0202130D01*
X0157555Y0201846D02*
X0157555Y0169957D01*
X0163621Y0182306D02*
X0165165Y0181666D01*
X0166835Y0181666D01*
X0168379Y0182306D01*
X0169561Y0183487D01*
X0170200Y0185031D01*
X0170200Y0186702D01*
X0169561Y0188245D01*
X0168379Y0189427D01*
X0166835Y0190066D01*
X0165165Y0190066D01*
X0163621Y0189427D01*
X0162439Y0188245D01*
X0161800Y0186702D01*
X0161800Y0185031D01*
X0162439Y0183487D01*
X0163621Y0182306D01*
X0162978Y0182948D02*
X0150022Y0182948D01*
X0150561Y0183487D02*
X0151200Y0185031D01*
X0151200Y0186702D01*
X0150561Y0188245D01*
X0149379Y0189427D01*
X0147835Y0190066D01*
X0146165Y0190066D01*
X0144621Y0189427D01*
X0143439Y0188245D01*
X0142800Y0186702D01*
X0142800Y0185031D01*
X0143439Y0183487D01*
X0144621Y0182306D01*
X0146165Y0181666D01*
X0147835Y0181666D01*
X0149379Y0182306D01*
X0150561Y0183487D01*
X0150999Y0184547D02*
X0162001Y0184547D01*
X0161800Y0186145D02*
X0151200Y0186145D01*
X0150768Y0187744D02*
X0162232Y0187744D01*
X0163536Y0189342D02*
X0149464Y0189342D01*
X0144536Y0189342D02*
X0116848Y0189342D01*
X0116848Y0187744D02*
X0143232Y0187744D01*
X0142800Y0186145D02*
X0116848Y0186145D01*
X0116848Y0184547D02*
X0143001Y0184547D01*
X0143978Y0182948D02*
X0116848Y0182948D01*
X0116848Y0190941D02*
X0170689Y0190941D01*
X0169091Y0192539D02*
X0116848Y0192539D01*
X0116848Y0194138D02*
X0167492Y0194138D01*
X0165894Y0195736D02*
X0116848Y0195736D01*
X0116848Y0197335D02*
X0164295Y0197335D01*
X0162697Y0198933D02*
X0116848Y0198933D01*
X0114248Y0202634D02*
X0114248Y0158146D01*
X0095744Y0139642D01*
X0092466Y0138190D02*
X0038799Y0138190D01*
X0040144Y0136591D02*
X0093742Y0136591D01*
X0097746Y0136591D02*
X0108617Y0136591D01*
X0108302Y0138190D02*
X0099022Y0138190D01*
X0099568Y0139788D02*
X0108719Y0139788D01*
X0110535Y0141387D02*
X0101166Y0141387D01*
X0102765Y0142985D02*
X0175726Y0142985D01*
X0174127Y0141387D02*
X0113237Y0141387D01*
X0119132Y0139788D02*
X0172529Y0139788D01*
X0170930Y0138190D02*
X0120730Y0138190D01*
X0122329Y0136591D02*
X0169332Y0136591D01*
X0167733Y0134993D02*
X0123927Y0134993D01*
X0125526Y0133394D02*
X0166135Y0133394D01*
X0164536Y0131796D02*
X0127124Y0131796D01*
X0128723Y0130197D02*
X0162938Y0130197D01*
X0161339Y0128599D02*
X0130321Y0128599D01*
X0131920Y0127000D02*
X0159741Y0127000D01*
X0156750Y0125402D02*
X0133518Y0125402D01*
X0135117Y0123803D02*
X0155702Y0123803D01*
X0155546Y0122205D02*
X0136715Y0122205D01*
X0138314Y0120606D02*
X0156167Y0120606D01*
X0159130Y0122713D02*
X0210311Y0173894D01*
X0210311Y0207752D01*
X0193776Y0224287D01*
X0190466Y0222911D02*
X0189997Y0222911D01*
X0190191Y0224509D02*
X0188780Y0224509D01*
X0190650Y0226108D02*
X0185494Y0226108D01*
X0184598Y0224509D02*
X0139801Y0224509D01*
X0138202Y0222911D02*
X0183381Y0222911D01*
X0183105Y0221312D02*
X0136603Y0221312D01*
X0135005Y0219714D02*
X0159724Y0219714D01*
X0158548Y0218115D02*
X0133406Y0218115D01*
X0131808Y0216517D02*
X0158302Y0216517D01*
X0155322Y0214918D02*
X0130209Y0214918D01*
X0128611Y0213320D02*
X0141125Y0213320D01*
X0145639Y0213320D02*
X0154419Y0213320D01*
X0153115Y0211721D02*
X0147420Y0211721D01*
X0149019Y0210123D02*
X0151576Y0210123D01*
X0151215Y0208524D02*
X0150617Y0208524D01*
X0154799Y0208539D02*
X0166217Y0208539D01*
X0184720Y0190035D01*
X0187286Y0192539D02*
X0188959Y0192539D01*
X0188225Y0190941D02*
X0202987Y0190941D01*
X0202987Y0192539D02*
X0193080Y0192539D01*
X0194315Y0194138D02*
X0202987Y0194138D01*
X0202987Y0195736D02*
X0194604Y0195736D01*
X0194159Y0197335D02*
X0202987Y0197335D01*
X0202987Y0198933D02*
X0192211Y0198933D01*
X0189828Y0198933D02*
X0188057Y0198933D01*
X0189006Y0200532D02*
X0202987Y0200532D01*
X0202413Y0202130D02*
X0189092Y0202130D01*
X0188301Y0203729D02*
X0200815Y0203729D01*
X0199216Y0205327D02*
X0185310Y0205327D01*
X0183712Y0206926D02*
X0197618Y0206926D01*
X0196019Y0208524D02*
X0182113Y0208524D01*
X0180515Y0210123D02*
X0194421Y0210123D01*
X0192822Y0211721D02*
X0178916Y0211721D01*
X0177318Y0213320D02*
X0191224Y0213320D01*
X0189625Y0214918D02*
X0175719Y0214918D01*
X0174121Y0216517D02*
X0188027Y0216517D01*
X0185570Y0218115D02*
X0172522Y0218115D01*
X0170154Y0216807D02*
X0185508Y0201453D01*
X0186689Y0195547D02*
X0169760Y0212476D01*
X0157949Y0212476D01*
X0161886Y0216807D02*
X0170154Y0216807D01*
X0164048Y0219714D02*
X0183562Y0219714D01*
X0186689Y0221531D02*
X0205587Y0202634D01*
X0205587Y0180193D01*
X0191413Y0166020D01*
X0188598Y0163766D02*
X0116848Y0163766D01*
X0116848Y0162167D02*
X0194908Y0162167D01*
X0194229Y0163766D02*
X0196506Y0163766D01*
X0194998Y0165364D02*
X0198105Y0165364D01*
X0199703Y0166963D02*
X0196034Y0166963D01*
X0197632Y0168561D02*
X0201302Y0168561D01*
X0202900Y0170160D02*
X0199231Y0170160D01*
X0200829Y0171759D02*
X0204499Y0171759D01*
X0206097Y0173357D02*
X0202428Y0173357D01*
X0204026Y0174956D02*
X0207696Y0174956D01*
X0207711Y0176554D02*
X0205625Y0176554D01*
X0207223Y0178153D02*
X0207711Y0178153D01*
X0202987Y0181350D02*
X0186500Y0181350D01*
X0187536Y0182948D02*
X0202987Y0182948D01*
X0202987Y0184547D02*
X0187714Y0184547D01*
X0187191Y0186145D02*
X0202987Y0186145D01*
X0202987Y0187744D02*
X0187498Y0187744D01*
X0188305Y0189342D02*
X0202987Y0189342D01*
X0191020Y0195547D02*
X0186689Y0195547D01*
X0177084Y0184547D02*
X0169999Y0184547D01*
X0170200Y0186145D02*
X0175485Y0186145D01*
X0173887Y0187744D02*
X0169768Y0187744D01*
X0168464Y0189342D02*
X0172288Y0189342D01*
X0169022Y0182948D02*
X0178682Y0182948D01*
X0203860Y0163766D02*
X0211648Y0163766D01*
X0211648Y0165364D02*
X0205459Y0165364D01*
X0207057Y0166963D02*
X0211648Y0166963D01*
X0211648Y0168561D02*
X0208656Y0168561D01*
X0210254Y0170160D02*
X0211648Y0170160D01*
X0216848Y0170160D02*
X0279774Y0170160D01*
X0279774Y0168561D02*
X0216848Y0168561D01*
X0216848Y0166963D02*
X0279774Y0166963D01*
X0279774Y0165364D02*
X0216848Y0165364D01*
X0216848Y0163766D02*
X0279774Y0163766D01*
X0279774Y0162167D02*
X0216848Y0162167D01*
X0216848Y0160569D02*
X0279774Y0160569D01*
X0279774Y0158970D02*
X0216848Y0158970D01*
X0216848Y0157372D02*
X0279774Y0157372D01*
X0279774Y0155773D02*
X0216848Y0155773D01*
X0216848Y0154175D02*
X0279774Y0154175D01*
X0279774Y0152576D02*
X0216848Y0152576D01*
X0216848Y0150978D02*
X0279774Y0150978D01*
X0279774Y0149379D02*
X0216848Y0149379D01*
X0215828Y0147781D02*
X0279774Y0147781D01*
X0279774Y0146182D02*
X0214229Y0146182D01*
X0212631Y0144584D02*
X0279774Y0144584D01*
X0279774Y0142985D02*
X0211032Y0142985D01*
X0209434Y0141387D02*
X0279774Y0141387D01*
X0279774Y0139788D02*
X0207835Y0139788D01*
X0206237Y0138190D02*
X0279774Y0138190D01*
X0279774Y0136591D02*
X0204638Y0136591D01*
X0203040Y0134993D02*
X0279774Y0134993D01*
X0279774Y0133394D02*
X0201441Y0133394D01*
X0199843Y0131796D02*
X0279774Y0131796D01*
X0279774Y0130197D02*
X0198244Y0130197D01*
X0196646Y0128599D02*
X0279774Y0128599D01*
X0279774Y0127000D02*
X0195967Y0127000D01*
X0194841Y0125402D02*
X0279774Y0125402D01*
X0279774Y0123803D02*
X0175093Y0123803D01*
X0173495Y0122205D02*
X0279774Y0122205D01*
X0279774Y0120606D02*
X0171896Y0120606D01*
X0170298Y0119008D02*
X0279774Y0119008D01*
X0279774Y0117409D02*
X0168699Y0117409D01*
X0167101Y0115811D02*
X0279774Y0115811D01*
X0279774Y0114212D02*
X0165502Y0114212D01*
X0164152Y0112614D02*
X0279774Y0112614D01*
X0279774Y0111015D02*
X0163131Y0111015D01*
X0160214Y0117409D02*
X0141511Y0117409D01*
X0139912Y0119008D02*
X0161812Y0119008D01*
X0162092Y0120606D02*
X0163411Y0120606D01*
X0162714Y0122205D02*
X0165009Y0122205D01*
X0163897Y0123803D02*
X0166608Y0123803D01*
X0165496Y0125402D02*
X0168206Y0125402D01*
X0167094Y0127000D02*
X0169805Y0127000D01*
X0168693Y0128599D02*
X0171403Y0128599D01*
X0170291Y0130197D02*
X0173002Y0130197D01*
X0171890Y0131796D02*
X0174600Y0131796D01*
X0173488Y0133394D02*
X0176199Y0133394D01*
X0175087Y0134993D02*
X0177797Y0134993D01*
X0176686Y0136591D02*
X0179396Y0136591D01*
X0178284Y0138190D02*
X0180994Y0138190D01*
X0179883Y0139788D02*
X0182593Y0139788D01*
X0181481Y0141387D02*
X0184191Y0141387D01*
X0183080Y0142985D02*
X0185790Y0142985D01*
X0184678Y0144584D02*
X0187388Y0144584D01*
X0186277Y0146182D02*
X0188987Y0146182D01*
X0187875Y0147781D02*
X0190585Y0147781D01*
X0189474Y0149379D02*
X0192184Y0149379D01*
X0191072Y0150978D02*
X0193782Y0150978D01*
X0192671Y0152576D02*
X0195381Y0152576D01*
X0194269Y0154175D02*
X0203785Y0154175D01*
X0206601Y0154175D02*
X0211648Y0154175D01*
X0211648Y0155773D02*
X0195868Y0155773D01*
X0197466Y0157372D02*
X0211648Y0157372D01*
X0211648Y0158970D02*
X0199065Y0158970D01*
X0200663Y0160569D02*
X0211648Y0160569D01*
X0211648Y0162167D02*
X0202262Y0162167D01*
X0193309Y0160569D02*
X0116848Y0160569D01*
X0116848Y0158970D02*
X0191711Y0158970D01*
X0190112Y0157372D02*
X0116742Y0157372D01*
X0115553Y0155773D02*
X0188514Y0155773D01*
X0186915Y0154175D02*
X0113954Y0154175D01*
X0112356Y0152576D02*
X0185317Y0152576D01*
X0183718Y0150978D02*
X0110757Y0150978D01*
X0109159Y0149379D02*
X0182120Y0149379D01*
X0180521Y0147781D02*
X0107560Y0147781D01*
X0105962Y0146182D02*
X0178923Y0146182D01*
X0177324Y0144584D02*
X0104363Y0144584D01*
X0109941Y0134993D02*
X0040803Y0134993D01*
X0040803Y0133394D02*
X0117040Y0133394D01*
X0115442Y0134993D02*
X0113830Y0134993D01*
X0118639Y0131796D02*
X0040382Y0131796D01*
X0039371Y0130197D02*
X0120237Y0130197D01*
X0097911Y0154175D02*
X0023525Y0154175D01*
X0023525Y0155773D02*
X0097100Y0155773D01*
X0097101Y0157372D02*
X0023525Y0157372D01*
X0023525Y0158970D02*
X0097469Y0158970D01*
X0097469Y0160569D02*
X0023525Y0160569D01*
X0023525Y0162167D02*
X0097469Y0162167D01*
X0097469Y0163766D02*
X0023525Y0163766D01*
X0023525Y0165364D02*
X0097469Y0165364D01*
X0097469Y0166963D02*
X0023525Y0166963D01*
X0023525Y0168561D02*
X0097469Y0168561D01*
X0097469Y0170160D02*
X0023525Y0170160D01*
X0023525Y0171759D02*
X0097469Y0171759D01*
X0097814Y0173357D02*
X0023525Y0173357D01*
X0023525Y0174956D02*
X0099256Y0174956D01*
X0100855Y0176554D02*
X0067275Y0176554D01*
X0066606Y0175885D02*
X0067957Y0177235D01*
X0068687Y0179000D01*
X0068687Y0180909D01*
X0067957Y0182673D01*
X0066606Y0184024D01*
X0064842Y0184754D01*
X0059333Y0184754D01*
X0057568Y0184024D01*
X0056218Y0182673D01*
X0055487Y0180909D01*
X0055487Y0179000D01*
X0056218Y0177235D01*
X0057568Y0175885D01*
X0059333Y0175154D01*
X0064842Y0175154D01*
X0066606Y0175885D01*
X0068337Y0178153D02*
X0101406Y0178153D01*
X0101406Y0179751D02*
X0068687Y0179751D01*
X0068505Y0181350D02*
X0090778Y0181350D01*
X0091040Y0181216D02*
X0091684Y0181007D01*
X0092353Y0180901D01*
X0094211Y0180901D01*
X0094211Y0185101D01*
X0088391Y0185101D01*
X0088391Y0184862D01*
X0088497Y0184194D01*
X0088706Y0183550D01*
X0089013Y0182947D01*
X0089411Y0182400D01*
X0089890Y0181921D01*
X0090437Y0181523D01*
X0091040Y0181216D01*
X0089013Y0182948D02*
X0067682Y0182948D01*
X0065344Y0184547D02*
X0088441Y0184547D01*
X0088391Y0185301D02*
X0094211Y0185301D01*
X0094211Y0189501D01*
X0092353Y0189501D01*
X0091684Y0189395D01*
X0091040Y0189186D01*
X0090437Y0188878D01*
X0089890Y0188481D01*
X0089411Y0188002D01*
X0089013Y0187454D01*
X0088706Y0186851D01*
X0088497Y0186208D01*
X0088391Y0185539D01*
X0088391Y0185301D01*
X0088487Y0186145D02*
X0023525Y0186145D01*
X0023525Y0184547D02*
X0034277Y0184547D01*
X0034325Y0184554D02*
X0033610Y0184441D01*
X0032922Y0184217D01*
X0032276Y0183889D01*
X0031691Y0183463D01*
X0031179Y0182951D01*
X0030753Y0182365D01*
X0030424Y0181720D01*
X0030201Y0181031D01*
X0030087Y0180316D01*
X0030087Y0180154D01*
X0036287Y0180154D01*
X0036287Y0179754D01*
X0036687Y0179754D01*
X0036687Y0175354D01*
X0038649Y0175354D01*
X0039365Y0175468D01*
X0040053Y0175691D01*
X0040698Y0176020D01*
X0041284Y0176446D01*
X0041796Y0176958D01*
X0042222Y0177543D01*
X0042550Y0178189D01*
X0042774Y0178877D01*
X0042887Y0179592D01*
X0042887Y0179754D01*
X0036687Y0179754D01*
X0036687Y0180154D01*
X0036287Y0180154D01*
X0036287Y0184554D01*
X0034325Y0184554D01*
X0036287Y0184547D02*
X0036687Y0184547D01*
X0036687Y0184554D02*
X0036687Y0180154D01*
X0042887Y0180154D01*
X0042887Y0180316D01*
X0042774Y0181031D01*
X0042550Y0181720D01*
X0042222Y0182365D01*
X0041796Y0182951D01*
X0041284Y0183463D01*
X0040698Y0183889D01*
X0040053Y0184217D01*
X0039365Y0184441D01*
X0038649Y0184554D01*
X0036687Y0184554D01*
X0036687Y0182948D02*
X0036287Y0182948D01*
X0036287Y0181350D02*
X0036687Y0181350D01*
X0036687Y0179751D02*
X0036287Y0179751D01*
X0036287Y0179754D02*
X0036287Y0175354D01*
X0034325Y0175354D01*
X0033610Y0175468D01*
X0032922Y0175691D01*
X0032276Y0176020D01*
X0031691Y0176446D01*
X0031179Y0176958D01*
X0030753Y0177543D01*
X0030424Y0178189D01*
X0030201Y0178877D01*
X0030087Y0179592D01*
X0030087Y0179754D01*
X0036287Y0179754D01*
X0036287Y0178153D02*
X0036687Y0178153D01*
X0036687Y0176554D02*
X0036287Y0176554D01*
X0031582Y0176554D02*
X0023525Y0176554D01*
X0023525Y0178153D02*
X0030443Y0178153D01*
X0030087Y0179751D02*
X0023525Y0179751D01*
X0023525Y0181350D02*
X0030304Y0181350D01*
X0031177Y0182948D02*
X0023525Y0182948D01*
X0023525Y0187744D02*
X0089223Y0187744D01*
X0091522Y0189342D02*
X0023525Y0189342D01*
X0023525Y0190941D02*
X0091217Y0190941D01*
X0088989Y0192539D02*
X0023525Y0192539D01*
X0023525Y0194138D02*
X0031516Y0194138D01*
X0031968Y0193685D02*
X0033733Y0192954D01*
X0039242Y0192954D01*
X0041006Y0193685D01*
X0042357Y0195035D01*
X0043087Y0196800D01*
X0043087Y0198709D01*
X0042357Y0200473D01*
X0041006Y0201824D01*
X0039242Y0202554D01*
X0033733Y0202554D01*
X0031968Y0201824D01*
X0030618Y0200473D01*
X0029887Y0198709D01*
X0029887Y0196800D01*
X0030618Y0195035D01*
X0031968Y0193685D01*
X0030328Y0195736D02*
X0023525Y0195736D01*
X0023525Y0197335D02*
X0029887Y0197335D01*
X0029980Y0198933D02*
X0023525Y0198933D01*
X0023525Y0200532D02*
X0030677Y0200532D01*
X0032709Y0202130D02*
X0023525Y0202130D01*
X0023525Y0203729D02*
X0088430Y0203729D01*
X0088191Y0204306D02*
X0088876Y0202652D01*
X0090142Y0201386D01*
X0091796Y0200701D01*
X0096826Y0200701D01*
X0098480Y0201386D01*
X0099746Y0202652D01*
X0100431Y0204306D01*
X0100431Y0206096D01*
X0099746Y0207750D01*
X0098480Y0209016D01*
X0096826Y0209701D01*
X0091796Y0209701D01*
X0090142Y0209016D01*
X0088876Y0207750D01*
X0088191Y0206096D01*
X0088191Y0204306D01*
X0088191Y0205327D02*
X0023525Y0205327D01*
X0023525Y0206926D02*
X0088535Y0206926D01*
X0089651Y0208524D02*
X0023525Y0208524D01*
X0023525Y0210123D02*
X0106917Y0210123D01*
X0106917Y0211721D02*
X0098815Y0211721D01*
X0098480Y0211386D02*
X0099746Y0212652D01*
X0100431Y0214306D01*
X0100431Y0216096D01*
X0099746Y0217750D01*
X0098480Y0219016D01*
X0096826Y0219701D01*
X0091796Y0219701D01*
X0090142Y0219016D01*
X0088876Y0217750D01*
X0088191Y0216096D01*
X0088191Y0214306D01*
X0088876Y0212652D01*
X0090142Y0211386D01*
X0091796Y0210701D01*
X0096826Y0210701D01*
X0098480Y0211386D01*
X0100023Y0213320D02*
X0106917Y0213320D01*
X0106917Y0214918D02*
X0100431Y0214918D01*
X0100257Y0216517D02*
X0106917Y0216517D01*
X0106917Y0218115D02*
X0099380Y0218115D01*
X0098303Y0221312D02*
X0106917Y0221312D01*
X0106917Y0219714D02*
X0023525Y0219714D01*
X0023525Y0221312D02*
X0090319Y0221312D01*
X0090142Y0221386D02*
X0091796Y0220701D01*
X0096826Y0220701D01*
X0098480Y0221386D01*
X0099746Y0222652D01*
X0100431Y0224306D01*
X0100431Y0226096D01*
X0099746Y0227750D01*
X0098480Y0229016D01*
X0096826Y0229701D01*
X0091796Y0229701D01*
X0090142Y0229016D01*
X0088876Y0227750D01*
X0088191Y0226096D01*
X0088191Y0224306D01*
X0088876Y0222652D01*
X0090142Y0221386D01*
X0088769Y0222911D02*
X0023525Y0222911D01*
X0023525Y0224509D02*
X0088191Y0224509D01*
X0088196Y0226108D02*
X0023525Y0226108D01*
X0023525Y0227706D02*
X0088858Y0227706D01*
X0090840Y0229305D02*
X0023525Y0229305D01*
X0023525Y0230903D02*
X0047953Y0230903D01*
X0047733Y0230995D02*
X0049754Y0230157D01*
X0051942Y0230157D01*
X0053964Y0230995D01*
X0055511Y0232542D01*
X0056348Y0234563D01*
X0056348Y0236752D01*
X0055511Y0238773D01*
X0053964Y0240320D01*
X0053149Y0240657D01*
X0053964Y0240995D01*
X0055511Y0242542D01*
X0056348Y0244563D01*
X0056348Y0246752D01*
X0055511Y0248773D01*
X0053964Y0250320D01*
X0053149Y0250657D01*
X0053964Y0250995D01*
X0055511Y0252542D01*
X0056348Y0254563D01*
X0056348Y0256752D01*
X0055511Y0258773D01*
X0053964Y0260320D01*
X0053149Y0260657D01*
X0053964Y0260995D01*
X0055511Y0262542D01*
X0056348Y0264563D01*
X0056348Y0266752D01*
X0055511Y0268773D01*
X0053964Y0270320D01*
X0053149Y0270657D01*
X0053964Y0270995D01*
X0055511Y0272542D01*
X0056348Y0274563D01*
X0056348Y0276752D01*
X0055511Y0278773D01*
X0053964Y0280320D01*
X0052906Y0280758D01*
X0053626Y0281125D01*
X0054301Y0281615D01*
X0054891Y0282205D01*
X0055381Y0282880D01*
X0055760Y0283623D01*
X0056018Y0284416D01*
X0056148Y0285240D01*
X0056148Y0285457D01*
X0051048Y0285457D01*
X0051048Y0285857D01*
X0056148Y0285857D01*
X0056148Y0286075D01*
X0056018Y0286899D01*
X0055760Y0287692D01*
X0055381Y0288435D01*
X0054891Y0289110D01*
X0054301Y0289700D01*
X0053626Y0290190D01*
X0052883Y0290569D01*
X0052089Y0290827D01*
X0051265Y0290957D01*
X0051048Y0290957D01*
X0051048Y0285858D01*
X0050648Y0285858D01*
X0050648Y0290957D01*
X0050431Y0290957D01*
X0049607Y0290827D01*
X0048814Y0290569D01*
X0048070Y0290190D01*
X0047395Y0289700D01*
X0046805Y0289110D01*
X0046315Y0288435D01*
X0045936Y0287692D01*
X0045679Y0286899D01*
X0045548Y0286075D01*
X0045548Y0285857D01*
X0050648Y0285857D01*
X0050648Y0285457D01*
X0045548Y0285457D01*
X0045548Y0285240D01*
X0045679Y0284416D01*
X0045936Y0283623D01*
X0046315Y0282880D01*
X0046805Y0282205D01*
X0047395Y0281615D01*
X0048070Y0281125D01*
X0048790Y0280758D01*
X0047733Y0280320D01*
X0046185Y0278773D01*
X0045348Y0276752D01*
X0045348Y0274563D01*
X0046185Y0272542D01*
X0047733Y0270995D01*
X0048547Y0270657D01*
X0047733Y0270320D01*
X0046185Y0268773D01*
X0045348Y0266752D01*
X0045348Y0264563D01*
X0046185Y0262542D01*
X0047733Y0260995D01*
X0048547Y0260657D01*
X0047733Y0260320D01*
X0046185Y0258773D01*
X0045348Y0256752D01*
X0045348Y0254563D01*
X0046185Y0252542D01*
X0047733Y0250995D01*
X0048547Y0250657D01*
X0047733Y0250320D01*
X0046185Y0248773D01*
X0045348Y0246752D01*
X0045348Y0244563D01*
X0046185Y0242542D01*
X0047733Y0240995D01*
X0048547Y0240657D01*
X0047733Y0240320D01*
X0046185Y0238773D01*
X0045348Y0236752D01*
X0045348Y0234563D01*
X0046185Y0232542D01*
X0047733Y0230995D01*
X0046225Y0232502D02*
X0023525Y0232502D01*
X0023525Y0234100D02*
X0045540Y0234100D01*
X0045348Y0235699D02*
X0023525Y0235699D01*
X0023525Y0237297D02*
X0045574Y0237297D01*
X0046308Y0238896D02*
X0023525Y0238896D01*
X0023525Y0240495D02*
X0048153Y0240495D01*
X0046634Y0242093D02*
X0023525Y0242093D01*
X0023525Y0243692D02*
X0045709Y0243692D01*
X0045348Y0245290D02*
X0023525Y0245290D01*
X0023525Y0246889D02*
X0045405Y0246889D01*
X0046067Y0248487D02*
X0023525Y0248487D01*
X0023525Y0250086D02*
X0047498Y0250086D01*
X0047043Y0251684D02*
X0023525Y0251684D01*
X0023525Y0253283D02*
X0045879Y0253283D01*
X0045348Y0254881D02*
X0023525Y0254881D01*
X0023525Y0256480D02*
X0045348Y0256480D01*
X0045898Y0258078D02*
X0023525Y0258078D01*
X0023525Y0259677D02*
X0047089Y0259677D01*
X0047452Y0261275D02*
X0023525Y0261275D01*
X0023525Y0262874D02*
X0046048Y0262874D01*
X0045386Y0264472D02*
X0023525Y0264472D01*
X0023525Y0266071D02*
X0045348Y0266071D01*
X0045728Y0267669D02*
X0023525Y0267669D01*
X0023525Y0269268D02*
X0046680Y0269268D01*
X0048043Y0270866D02*
X0023525Y0270866D01*
X0023525Y0272465D02*
X0046263Y0272465D01*
X0045555Y0274063D02*
X0023525Y0274063D01*
X0023525Y0275662D02*
X0045348Y0275662D01*
X0045559Y0277260D02*
X0023525Y0277260D01*
X0023525Y0278859D02*
X0046271Y0278859D01*
X0048064Y0280457D02*
X0023525Y0280457D01*
X0023525Y0282056D02*
X0046954Y0282056D01*
X0045926Y0283654D02*
X0023525Y0283654D01*
X0023525Y0285253D02*
X0045548Y0285253D01*
X0045671Y0286851D02*
X0023525Y0286851D01*
X0023525Y0288450D02*
X0046326Y0288450D01*
X0047875Y0290048D02*
X0023525Y0290048D01*
X0023525Y0291647D02*
X0069128Y0291647D01*
X0069128Y0291252D02*
X0069128Y0292756D01*
X0069704Y0294146D01*
X0070768Y0295209D01*
X0072157Y0295785D01*
X0073662Y0295785D01*
X0075051Y0295209D01*
X0075257Y0295004D01*
X0093397Y0295004D01*
X0093602Y0295209D01*
X0094992Y0295785D01*
X0096496Y0295785D01*
X0097886Y0295209D01*
X0098950Y0294146D01*
X0099525Y0292756D01*
X0099525Y0291252D01*
X0098950Y0289862D01*
X0097886Y0288798D01*
X0096496Y0288223D01*
X0094992Y0288223D01*
X0093602Y0288798D01*
X0093397Y0289004D01*
X0075257Y0289004D01*
X0075051Y0288798D01*
X0073662Y0288223D01*
X0072157Y0288223D01*
X0070768Y0288798D01*
X0069704Y0289862D01*
X0069128Y0291252D01*
X0069627Y0290048D02*
X0053821Y0290048D01*
X0055370Y0288450D02*
X0071609Y0288450D01*
X0074210Y0288450D02*
X0094444Y0288450D01*
X0097044Y0288450D02*
X0121116Y0288450D01*
X0121161Y0288405D02*
X0122551Y0287829D01*
X0124055Y0287829D01*
X0125445Y0288405D01*
X0125650Y0288610D01*
X0143191Y0288610D01*
X0144294Y0289067D01*
X0148962Y0293735D01*
X0149252Y0293735D01*
X0150642Y0294310D01*
X0151705Y0295374D01*
X0152281Y0296764D01*
X0152281Y0298268D01*
X0151705Y0299658D01*
X0150642Y0300721D01*
X0149252Y0301297D01*
X0147748Y0301297D01*
X0146358Y0300721D01*
X0145295Y0299658D01*
X0144719Y0298268D01*
X0144719Y0297977D01*
X0141352Y0294610D01*
X0125650Y0294610D01*
X0125445Y0294816D01*
X0124055Y0295391D01*
X0122551Y0295391D01*
X0121161Y0294816D01*
X0120098Y0293752D01*
X0119522Y0292362D01*
X0119522Y0290858D01*
X0120098Y0289468D01*
X0121161Y0288405D01*
X0119857Y0290048D02*
X0099027Y0290048D01*
X0099525Y0291647D02*
X0119522Y0291647D01*
X0119888Y0293245D02*
X0099323Y0293245D01*
X0098251Y0294844D02*
X0121229Y0294844D01*
X0125377Y0294844D02*
X0141585Y0294844D01*
X0143184Y0296442D02*
X0023525Y0296442D01*
X0023525Y0294844D02*
X0070402Y0294844D01*
X0069331Y0293245D02*
X0023525Y0293245D01*
X0023525Y0298041D02*
X0144719Y0298041D01*
X0145287Y0299639D02*
X0023525Y0299639D01*
X0023525Y0301238D02*
X0147606Y0301238D01*
X0149394Y0301238D02*
X0177544Y0301238D01*
X0176223Y0299639D02*
X0151713Y0299639D01*
X0152281Y0298041D02*
X0175692Y0298041D01*
X0174094Y0296442D02*
X0152148Y0296442D01*
X0151175Y0294844D02*
X0172497Y0294844D01*
X0170899Y0293245D02*
X0148472Y0293245D01*
X0146874Y0291647D02*
X0169302Y0291647D01*
X0167704Y0290048D02*
X0145275Y0290048D01*
X0144563Y0280193D02*
X0075665Y0280193D01*
X0068972Y0273500D01*
X0056348Y0275662D02*
X0157006Y0275662D01*
X0157006Y0277260D02*
X0056137Y0277260D01*
X0055425Y0278859D02*
X0157035Y0278859D01*
X0158115Y0280457D02*
X0053632Y0280457D01*
X0054742Y0282056D02*
X0159714Y0282056D01*
X0161312Y0283654D02*
X0055770Y0283654D01*
X0056148Y0285253D02*
X0162911Y0285253D01*
X0164509Y0286851D02*
X0056025Y0286851D01*
X0051048Y0286851D02*
X0050648Y0286851D01*
X0050648Y0288450D02*
X0051048Y0288450D01*
X0051048Y0290048D02*
X0050648Y0290048D01*
X0056141Y0274063D02*
X0138204Y0274063D01*
X0137083Y0272465D02*
X0055433Y0272465D01*
X0053653Y0270866D02*
X0136112Y0270866D01*
X0134513Y0269268D02*
X0055016Y0269268D01*
X0055968Y0267669D02*
X0132915Y0267669D01*
X0131316Y0266071D02*
X0056348Y0266071D01*
X0056310Y0264472D02*
X0129718Y0264472D01*
X0128119Y0262874D02*
X0055648Y0262874D01*
X0054244Y0261275D02*
X0126521Y0261275D01*
X0124922Y0259677D02*
X0054607Y0259677D01*
X0055799Y0258078D02*
X0123324Y0258078D01*
X0121725Y0256480D02*
X0056348Y0256480D01*
X0056348Y0254881D02*
X0120127Y0254881D01*
X0118528Y0253283D02*
X0055817Y0253283D01*
X0054653Y0251684D02*
X0116930Y0251684D01*
X0115331Y0250086D02*
X0054198Y0250086D01*
X0055629Y0248487D02*
X0089613Y0248487D01*
X0090142Y0249016D02*
X0088876Y0247750D01*
X0088191Y0246096D01*
X0088191Y0244306D01*
X0088876Y0242652D01*
X0090142Y0241386D01*
X0091796Y0240701D01*
X0096826Y0240701D01*
X0098480Y0241386D01*
X0099746Y0242652D01*
X0100431Y0244306D01*
X0100431Y0246096D01*
X0099746Y0247750D01*
X0098480Y0249016D01*
X0096826Y0249701D01*
X0091796Y0249701D01*
X0090142Y0249016D01*
X0088519Y0246889D02*
X0056291Y0246889D01*
X0056348Y0245290D02*
X0088191Y0245290D01*
X0088445Y0243692D02*
X0055987Y0243692D01*
X0055062Y0242093D02*
X0089435Y0242093D01*
X0090142Y0239016D02*
X0088876Y0237750D01*
X0088191Y0236096D01*
X0088191Y0234306D01*
X0088876Y0232652D01*
X0090142Y0231386D01*
X0091796Y0230701D01*
X0096826Y0230701D01*
X0098480Y0231386D01*
X0099746Y0232652D01*
X0100431Y0234306D01*
X0100431Y0236096D01*
X0099746Y0237750D01*
X0098480Y0239016D01*
X0096826Y0239701D01*
X0091796Y0239701D01*
X0090142Y0239016D01*
X0090022Y0238896D02*
X0055388Y0238896D01*
X0056122Y0237297D02*
X0088689Y0237297D01*
X0088191Y0235699D02*
X0056348Y0235699D01*
X0056156Y0234100D02*
X0088276Y0234100D01*
X0089026Y0232502D02*
X0055471Y0232502D01*
X0053743Y0230903D02*
X0091307Y0230903D01*
X0097315Y0230903D02*
X0106917Y0230903D01*
X0106917Y0229305D02*
X0097782Y0229305D01*
X0099764Y0227706D02*
X0106917Y0227706D01*
X0106917Y0226108D02*
X0100426Y0226108D01*
X0100431Y0224509D02*
X0106917Y0224509D01*
X0106917Y0222911D02*
X0099853Y0222911D01*
X0099596Y0232502D02*
X0106917Y0232502D01*
X0106917Y0234100D02*
X0100346Y0234100D01*
X0100431Y0235699D02*
X0106917Y0235699D01*
X0106917Y0237297D02*
X0099933Y0237297D01*
X0098600Y0238896D02*
X0106917Y0238896D01*
X0106917Y0240495D02*
X0053543Y0240495D01*
X0023525Y0218115D02*
X0089242Y0218115D01*
X0088365Y0216517D02*
X0023525Y0216517D01*
X0023525Y0214918D02*
X0088191Y0214918D01*
X0088599Y0213320D02*
X0023525Y0213320D01*
X0023525Y0211721D02*
X0089807Y0211721D01*
X0098971Y0208524D02*
X0106917Y0208524D01*
X0106917Y0206926D02*
X0100087Y0206926D01*
X0100431Y0205327D02*
X0106917Y0205327D01*
X0106917Y0203729D02*
X0100192Y0203729D01*
X0099224Y0202130D02*
X0106917Y0202130D01*
X0106917Y0200532D02*
X0067898Y0200532D01*
X0067957Y0200473D02*
X0066606Y0201824D01*
X0064842Y0202554D01*
X0059333Y0202554D01*
X0057568Y0201824D01*
X0056218Y0200473D01*
X0055487Y0198709D01*
X0055487Y0196800D01*
X0056218Y0195035D01*
X0057568Y0193685D01*
X0059333Y0192954D01*
X0064842Y0192954D01*
X0066606Y0193685D01*
X0067957Y0195035D01*
X0068687Y0196800D01*
X0068687Y0198709D01*
X0067957Y0200473D01*
X0068595Y0198933D02*
X0090059Y0198933D01*
X0088704Y0197335D02*
X0068687Y0197335D01*
X0068247Y0195736D02*
X0088191Y0195736D01*
X0088261Y0194138D02*
X0067059Y0194138D01*
X0057116Y0194138D02*
X0041459Y0194138D01*
X0042647Y0195736D02*
X0055928Y0195736D01*
X0055487Y0197335D02*
X0043087Y0197335D01*
X0042995Y0198933D02*
X0055580Y0198933D01*
X0056277Y0200532D02*
X0042298Y0200532D01*
X0040266Y0202130D02*
X0058309Y0202130D01*
X0065866Y0202130D02*
X0089398Y0202130D01*
X0098563Y0198933D02*
X0106917Y0198933D01*
X0106917Y0197335D02*
X0102136Y0197335D01*
X0103735Y0195736D02*
X0106917Y0195736D01*
X0106917Y0194138D02*
X0105333Y0194138D01*
X0100045Y0190941D02*
X0097405Y0190941D01*
X0096938Y0189395D02*
X0096269Y0189501D01*
X0094411Y0189501D01*
X0094411Y0185301D01*
X0094211Y0185301D01*
X0094211Y0185101D01*
X0094411Y0185101D01*
X0094411Y0185301D01*
X0100231Y0185301D01*
X0100231Y0185539D01*
X0100125Y0186208D01*
X0099916Y0186851D01*
X0099609Y0187454D01*
X0099211Y0188002D01*
X0098732Y0188481D01*
X0098185Y0188878D01*
X0097582Y0189186D01*
X0096938Y0189395D01*
X0097100Y0189342D02*
X0101406Y0189342D01*
X0101406Y0187744D02*
X0099399Y0187744D01*
X0100135Y0186145D02*
X0101406Y0186145D01*
X0100231Y0185101D02*
X0094411Y0185101D01*
X0094411Y0180901D01*
X0096269Y0180901D01*
X0096938Y0181007D01*
X0097582Y0181216D01*
X0098185Y0181523D01*
X0098732Y0181921D01*
X0099211Y0182400D01*
X0099609Y0182947D01*
X0099916Y0183550D01*
X0100125Y0184194D01*
X0100231Y0184862D01*
X0100231Y0185101D01*
X0100181Y0184547D02*
X0101406Y0184547D01*
X0101406Y0182948D02*
X0099609Y0182948D01*
X0097844Y0181350D02*
X0101406Y0181350D01*
X0094411Y0181350D02*
X0094211Y0181350D01*
X0094211Y0182948D02*
X0094411Y0182948D01*
X0094411Y0184547D02*
X0094211Y0184547D01*
X0094211Y0186145D02*
X0094411Y0186145D01*
X0094411Y0187744D02*
X0094211Y0187744D01*
X0094211Y0189342D02*
X0094411Y0189342D01*
X0114248Y0202634D02*
X0139839Y0228224D01*
X0183933Y0228224D01*
X0189445Y0233736D01*
X0191681Y0230903D02*
X0191963Y0230903D01*
X0191963Y0229305D02*
X0188691Y0229305D01*
X0187092Y0227706D02*
X0192289Y0227706D01*
X0194563Y0229012D02*
X0214248Y0209327D01*
X0214248Y0149878D01*
X0192594Y0128224D01*
X0189222Y0127000D02*
X0178290Y0127000D01*
X0176692Y0125402D02*
X0190348Y0125402D01*
X0189010Y0128599D02*
X0179889Y0128599D01*
X0181487Y0130197D02*
X0189532Y0130197D01*
X0191850Y0131796D02*
X0183086Y0131796D01*
X0184684Y0133394D02*
X0194087Y0133394D01*
X0195686Y0134993D02*
X0186283Y0134993D01*
X0187881Y0136591D02*
X0197284Y0136591D01*
X0198883Y0138190D02*
X0189480Y0138190D01*
X0191078Y0139788D02*
X0200481Y0139788D01*
X0202080Y0141387D02*
X0192677Y0141387D01*
X0194275Y0142985D02*
X0203678Y0142985D01*
X0205277Y0144584D02*
X0195874Y0144584D01*
X0197472Y0146182D02*
X0206875Y0146182D01*
X0207656Y0147781D02*
X0208474Y0147781D01*
X0208753Y0149379D02*
X0210072Y0149379D01*
X0208974Y0150978D02*
X0211648Y0150978D01*
X0211648Y0152576D02*
X0208494Y0152576D01*
X0216848Y0171759D02*
X0279774Y0171759D01*
X0279774Y0173357D02*
X0216848Y0173357D01*
X0216848Y0174956D02*
X0279774Y0174956D01*
X0279774Y0176554D02*
X0216848Y0176554D01*
X0216848Y0178153D02*
X0239566Y0178153D01*
X0238437Y0179751D02*
X0216848Y0179751D01*
X0216848Y0181350D02*
X0237761Y0181350D01*
X0236162Y0182948D02*
X0216848Y0182948D01*
X0216848Y0184547D02*
X0234564Y0184547D01*
X0232965Y0186145D02*
X0216848Y0186145D01*
X0216848Y0187744D02*
X0231367Y0187744D01*
X0229768Y0189342D02*
X0216848Y0189342D01*
X0216848Y0190941D02*
X0228170Y0190941D01*
X0226571Y0192539D02*
X0216848Y0192539D01*
X0216848Y0194138D02*
X0224973Y0194138D01*
X0223374Y0195736D02*
X0216848Y0195736D01*
X0216848Y0197335D02*
X0221776Y0197335D01*
X0220177Y0198933D02*
X0216848Y0198933D01*
X0216848Y0200532D02*
X0218579Y0200532D01*
X0217106Y0202004D02*
X0217106Y0202004D01*
X0216980Y0202130D02*
X0216848Y0202130D01*
X0218579Y0204209D02*
X0241807Y0180980D01*
X0245177Y0179751D02*
X0246080Y0179751D01*
X0245598Y0181350D02*
X0245391Y0181350D01*
X0244048Y0178153D02*
X0247699Y0178153D01*
X0250876Y0178153D02*
X0279774Y0178153D01*
X0279774Y0179751D02*
X0252495Y0179751D01*
X0252872Y0181350D02*
X0279774Y0181350D01*
X0279774Y0182948D02*
X0254034Y0182948D01*
X0256298Y0184547D02*
X0279774Y0184547D01*
X0279774Y0186145D02*
X0256809Y0186145D01*
X0256586Y0187744D02*
X0279774Y0187744D01*
X0279774Y0189342D02*
X0255443Y0189342D01*
X0252453Y0190941D02*
X0279774Y0190941D01*
X0279774Y0192539D02*
X0250854Y0192539D01*
X0249256Y0194138D02*
X0279774Y0194138D01*
X0279774Y0195736D02*
X0247657Y0195736D01*
X0246059Y0197335D02*
X0279774Y0197335D01*
X0279774Y0198933D02*
X0244460Y0198933D01*
X0242862Y0200532D02*
X0279774Y0200532D01*
X0279774Y0202130D02*
X0241263Y0202130D01*
X0239665Y0203729D02*
X0255722Y0203729D01*
X0254815Y0205327D02*
X0238066Y0205327D01*
X0237320Y0206926D02*
X0254773Y0206926D01*
X0255621Y0208524D02*
X0237320Y0208524D01*
X0237320Y0210123D02*
X0255743Y0210123D01*
X0255743Y0211721D02*
X0237032Y0211721D01*
X0236513Y0213320D02*
X0255743Y0213320D01*
X0255743Y0214918D02*
X0235379Y0214918D01*
X0233146Y0212083D02*
X0234720Y0210508D01*
X0234720Y0204996D01*
X0253224Y0186492D01*
X0249287Y0181374D02*
X0229209Y0201059D01*
X0229209Y0209720D01*
X0213461Y0225469D01*
X0213461Y0229406D01*
X0226059Y0219957D02*
X0232752Y0226650D01*
X0255193Y0226650D01*
X0263327Y0234783D01*
X0263327Y0238953D01*
X0268827Y0238896D02*
X0271491Y0238896D01*
X0271491Y0240495D02*
X0268827Y0240495D01*
X0267965Y0242093D02*
X0271491Y0242093D01*
X0271491Y0243692D02*
X0266366Y0243692D01*
X0267442Y0245290D02*
X0271491Y0245290D01*
X0271491Y0246889D02*
X0268827Y0246889D01*
X0268827Y0248487D02*
X0271491Y0248487D01*
X0271491Y0250086D02*
X0268827Y0250086D01*
X0268374Y0251684D02*
X0271491Y0251684D01*
X0271491Y0253283D02*
X0266775Y0253283D01*
X0267033Y0254881D02*
X0271491Y0254881D01*
X0271491Y0256480D02*
X0268632Y0256480D01*
X0268827Y0258078D02*
X0271491Y0258078D01*
X0271491Y0259677D02*
X0268827Y0259677D01*
X0268783Y0261275D02*
X0271491Y0261275D01*
X0271491Y0262874D02*
X0267184Y0262874D01*
X0271491Y0264472D02*
X0220191Y0264472D01*
X0220191Y0262874D02*
X0249752Y0262874D01*
X0248154Y0261275D02*
X0220191Y0261275D01*
X0220191Y0259677D02*
X0248027Y0259677D01*
X0248027Y0258078D02*
X0220191Y0258078D01*
X0220191Y0256480D02*
X0248305Y0256480D01*
X0249903Y0254881D02*
X0220191Y0254881D01*
X0220191Y0253283D02*
X0249878Y0253283D01*
X0248280Y0251684D02*
X0220191Y0251684D01*
X0220191Y0250086D02*
X0224458Y0250086D01*
X0222888Y0248487D02*
X0221105Y0248487D01*
X0194563Y0238854D02*
X0194563Y0229012D01*
X0191682Y0221312D02*
X0190585Y0221312D01*
X0192184Y0219714D02*
X0194672Y0219714D01*
X0193782Y0218115D02*
X0196271Y0218115D01*
X0195381Y0216517D02*
X0197869Y0216517D01*
X0196979Y0214918D02*
X0199468Y0214918D01*
X0198578Y0213320D02*
X0201066Y0213320D01*
X0200176Y0211721D02*
X0202665Y0211721D01*
X0201775Y0210123D02*
X0204263Y0210123D01*
X0203373Y0208524D02*
X0205862Y0208524D01*
X0204972Y0206926D02*
X0207460Y0206926D01*
X0207711Y0205327D02*
X0206570Y0205327D01*
X0218579Y0204209D02*
X0218579Y0213657D01*
X0227121Y0216517D02*
X0255743Y0216517D01*
X0255743Y0218115D02*
X0229176Y0218115D01*
X0229643Y0219714D02*
X0256080Y0219714D01*
X0257596Y0221312D02*
X0231092Y0221312D01*
X0232690Y0222911D02*
X0259195Y0222911D01*
X0260793Y0224509D02*
X0256730Y0224509D01*
X0258328Y0226108D02*
X0262392Y0226108D01*
X0263990Y0227706D02*
X0259927Y0227706D01*
X0261525Y0229305D02*
X0265589Y0229305D01*
X0267187Y0230903D02*
X0263124Y0230903D01*
X0264722Y0232502D02*
X0268786Y0232502D01*
X0270384Y0234100D02*
X0266253Y0234100D01*
X0267851Y0235699D02*
X0271491Y0235699D01*
X0271491Y0237297D02*
X0268827Y0237297D01*
X0274091Y0234130D02*
X0274091Y0267594D01*
X0249681Y0292004D01*
X0236295Y0292004D01*
X0229996Y0285705D01*
X0221335Y0285705D01*
X0178815Y0243185D01*
X0164642Y0243185D01*
X0162673Y0245154D01*
X0159917Y0245154D01*
X0157161Y0242398D01*
X0157161Y0238854D01*
X0160311Y0235705D01*
X0165823Y0235705D01*
X0169407Y0235699D02*
X0176719Y0235699D01*
X0178317Y0234100D02*
X0169038Y0234100D01*
X0167457Y0232502D02*
X0178990Y0232502D01*
X0180122Y0230903D02*
X0112917Y0230903D01*
X0112917Y0229305D02*
X0137242Y0229305D01*
X0135644Y0227706D02*
X0112917Y0227706D01*
X0112917Y0226108D02*
X0134045Y0226108D01*
X0132447Y0224509D02*
X0112917Y0224509D01*
X0112917Y0222911D02*
X0130848Y0222911D01*
X0129250Y0221312D02*
X0112917Y0221312D01*
X0112917Y0219714D02*
X0127651Y0219714D01*
X0126053Y0218115D02*
X0112917Y0218115D01*
X0112917Y0216517D02*
X0124454Y0216517D01*
X0122856Y0214918D02*
X0112917Y0214918D01*
X0112917Y0213320D02*
X0121257Y0213320D01*
X0119659Y0211721D02*
X0112917Y0211721D01*
X0112917Y0210123D02*
X0118060Y0210123D01*
X0116462Y0208524D02*
X0112917Y0208524D01*
X0112917Y0206926D02*
X0114863Y0206926D01*
X0113264Y0205327D02*
X0112917Y0205327D01*
X0112917Y0232502D02*
X0164189Y0232502D01*
X0158238Y0234100D02*
X0112917Y0234100D01*
X0112917Y0235699D02*
X0156640Y0235699D01*
X0155041Y0237297D02*
X0112917Y0237297D01*
X0112917Y0238896D02*
X0154561Y0238896D01*
X0154561Y0240495D02*
X0114225Y0240495D01*
X0115824Y0242093D02*
X0154561Y0242093D01*
X0154883Y0243692D02*
X0117422Y0243692D01*
X0119021Y0245290D02*
X0156377Y0245290D01*
X0157975Y0246889D02*
X0120619Y0246889D01*
X0122218Y0248487D02*
X0167081Y0248487D01*
X0166963Y0250086D02*
X0123816Y0250086D01*
X0125415Y0251684D02*
X0167678Y0251684D01*
X0165823Y0251059D02*
X0140626Y0251059D01*
X0137083Y0254602D01*
X0137083Y0259720D01*
X0149681Y0272319D01*
X0149681Y0275075D01*
X0144563Y0280193D01*
X0143048Y0274063D02*
X0157006Y0274063D01*
X0157006Y0272465D02*
X0144169Y0272465D01*
X0144407Y0270866D02*
X0157006Y0270866D01*
X0157006Y0269268D02*
X0143944Y0269268D01*
X0142133Y0267669D02*
X0156513Y0267669D01*
X0156022Y0266071D02*
X0139802Y0266071D01*
X0138203Y0264472D02*
X0156265Y0264472D01*
X0157435Y0262874D02*
X0136604Y0262874D01*
X0135006Y0261275D02*
X0179541Y0261275D01*
X0178602Y0259677D02*
X0133407Y0259677D01*
X0131809Y0258078D02*
X0142344Y0258078D01*
X0141522Y0256480D02*
X0130210Y0256480D01*
X0128612Y0254881D02*
X0141596Y0254881D01*
X0142526Y0253283D02*
X0127013Y0253283D01*
X0113733Y0248487D02*
X0099009Y0248487D01*
X0100103Y0246889D02*
X0112134Y0246889D01*
X0110536Y0245290D02*
X0100431Y0245290D01*
X0100177Y0243692D02*
X0108937Y0243692D01*
X0107359Y0242093D02*
X0099187Y0242093D01*
X0145106Y0255772D02*
X0169106Y0255772D01*
X0170106Y0254772D01*
X0178106Y0254772D01*
X0182106Y0258772D01*
X0184672Y0261275D02*
X0193228Y0261275D01*
X0191630Y0259677D02*
X0185611Y0259677D01*
X0185691Y0258078D02*
X0190031Y0258078D01*
X0188433Y0256480D02*
X0184883Y0256480D01*
X0184392Y0254881D02*
X0186834Y0254881D01*
X0181965Y0252240D02*
X0179209Y0249484D01*
X0170547Y0249484D01*
X0168074Y0246889D02*
X0164615Y0246889D01*
X0162280Y0240429D02*
X0175665Y0240429D01*
X0182358Y0233736D01*
X0175120Y0237297D02*
X0169043Y0237297D01*
X0170332Y0258078D02*
X0177736Y0258078D01*
X0168898Y0264472D02*
X0196425Y0264472D01*
X0194827Y0262874D02*
X0166643Y0262874D01*
X0165002Y0262874D02*
X0161777Y0262874D01*
X0159606Y0265772D02*
X0159606Y0278272D01*
X0166106Y0284772D01*
X0179492Y0298165D01*
X0180839Y0294844D02*
X0220158Y0294844D01*
X0221756Y0293245D02*
X0178251Y0293245D01*
X0176653Y0291647D02*
X0189646Y0291647D01*
X0188603Y0290048D02*
X0175056Y0290048D01*
X0173458Y0288450D02*
X0188420Y0288450D01*
X0188938Y0286851D02*
X0171861Y0286851D01*
X0170263Y0285253D02*
X0191015Y0285253D01*
X0193386Y0285253D02*
X0211488Y0285253D01*
X0212064Y0283654D02*
X0168665Y0283654D01*
X0167067Y0282056D02*
X0210465Y0282056D01*
X0208867Y0280457D02*
X0165469Y0280457D01*
X0163870Y0278859D02*
X0207268Y0278859D01*
X0205670Y0277260D02*
X0162272Y0277260D01*
X0162206Y0275662D02*
X0204071Y0275662D01*
X0202473Y0274063D02*
X0162206Y0274063D01*
X0162206Y0272465D02*
X0200874Y0272465D01*
X0200469Y0268382D02*
X0167791Y0268382D01*
X0165823Y0266413D01*
X0163608Y0269268D02*
X0162206Y0269268D01*
X0162206Y0270866D02*
X0166995Y0270866D01*
X0166106Y0288450D02*
X0125490Y0288450D01*
X0181440Y0301238D02*
X0200624Y0301238D01*
X0200723Y0302836D02*
X0023525Y0302836D01*
X0023525Y0304435D02*
X0201647Y0304435D01*
X0201265Y0299639D02*
X0182761Y0299639D01*
X0183076Y0298041D02*
X0216961Y0298041D01*
X0218559Y0296442D02*
X0182658Y0296442D01*
X0215228Y0291647D02*
X0222373Y0291647D01*
X0220547Y0288461D02*
X0200469Y0268382D01*
X0220191Y0267669D02*
X0270339Y0267669D01*
X0271491Y0266071D02*
X0220191Y0266071D01*
X0220191Y0269268D02*
X0268740Y0269268D01*
X0267142Y0270866D02*
X0220191Y0270866D01*
X0220191Y0272465D02*
X0265543Y0272465D01*
X0263945Y0274063D02*
X0220191Y0274063D01*
X0220191Y0275662D02*
X0262346Y0275662D01*
X0260748Y0277260D02*
X0220885Y0277260D01*
X0223515Y0278859D02*
X0259149Y0278859D01*
X0257551Y0280457D02*
X0225296Y0280457D01*
X0225706Y0282056D02*
X0255952Y0282056D01*
X0254354Y0283654D02*
X0231623Y0283654D01*
X0232200Y0284232D02*
X0232200Y0284232D01*
X0233221Y0285253D02*
X0252755Y0285253D01*
X0251157Y0286851D02*
X0234820Y0286851D01*
X0236418Y0288450D02*
X0249558Y0288450D01*
X0253715Y0291647D02*
X0279774Y0291647D01*
X0279774Y0293245D02*
X0252117Y0293245D01*
X0251885Y0293477D02*
X0251885Y0293477D01*
X0255314Y0290048D02*
X0279774Y0290048D01*
X0279774Y0288450D02*
X0256912Y0288450D01*
X0258511Y0286851D02*
X0279774Y0286851D01*
X0279774Y0285253D02*
X0260109Y0285253D01*
X0261708Y0283654D02*
X0279774Y0283654D01*
X0279774Y0282056D02*
X0263306Y0282056D01*
X0264905Y0280457D02*
X0279774Y0280457D01*
X0279774Y0278859D02*
X0266503Y0278859D01*
X0268102Y0277260D02*
X0279774Y0277260D01*
X0279774Y0275662D02*
X0269700Y0275662D01*
X0271299Y0274063D02*
X0279774Y0274063D01*
X0279774Y0272465D02*
X0272897Y0272465D01*
X0274496Y0270866D02*
X0279774Y0270866D01*
X0279774Y0269268D02*
X0276094Y0269268D01*
X0275563Y0269799D02*
X0275563Y0269799D01*
X0276691Y0267669D02*
X0279774Y0267669D01*
X0279774Y0266071D02*
X0276691Y0266071D01*
X0276691Y0264472D02*
X0279774Y0264472D01*
X0279774Y0262874D02*
X0276691Y0262874D01*
X0276691Y0261275D02*
X0279774Y0261275D01*
X0279774Y0259677D02*
X0276691Y0259677D01*
X0276691Y0258078D02*
X0279774Y0258078D01*
X0279774Y0256480D02*
X0276691Y0256480D01*
X0276691Y0254881D02*
X0279774Y0254881D01*
X0279774Y0253283D02*
X0276691Y0253283D01*
X0276691Y0251684D02*
X0279774Y0251684D01*
X0279774Y0250086D02*
X0276691Y0250086D01*
X0276691Y0248487D02*
X0279774Y0248487D01*
X0279774Y0246889D02*
X0276691Y0246889D01*
X0276691Y0245290D02*
X0279774Y0245290D01*
X0279774Y0243692D02*
X0276691Y0243692D01*
X0276691Y0242093D02*
X0279774Y0242093D01*
X0279774Y0240495D02*
X0276691Y0240495D01*
X0276691Y0238896D02*
X0279774Y0238896D01*
X0279774Y0237297D02*
X0276691Y0237297D01*
X0276691Y0235699D02*
X0279774Y0235699D01*
X0279774Y0234100D02*
X0276691Y0234100D01*
X0276140Y0232502D02*
X0279774Y0232502D01*
X0279774Y0230903D02*
X0274541Y0230903D01*
X0272942Y0229305D02*
X0279774Y0229305D01*
X0279774Y0227706D02*
X0271344Y0227706D01*
X0269745Y0226108D02*
X0279774Y0226108D01*
X0279774Y0224509D02*
X0268147Y0224509D01*
X0266548Y0222911D02*
X0279774Y0222911D01*
X0279774Y0221312D02*
X0264950Y0221312D01*
X0263351Y0219714D02*
X0279774Y0219714D01*
X0279774Y0218115D02*
X0261753Y0218115D01*
X0260943Y0216517D02*
X0279774Y0216517D01*
X0279774Y0214918D02*
X0260943Y0214918D01*
X0260943Y0213320D02*
X0279774Y0213320D01*
X0279774Y0211721D02*
X0260943Y0211721D01*
X0260943Y0210123D02*
X0279774Y0210123D01*
X0279774Y0208524D02*
X0261064Y0208524D01*
X0261912Y0206926D02*
X0279774Y0206926D01*
X0279774Y0205327D02*
X0261870Y0205327D01*
X0260963Y0203729D02*
X0279774Y0203729D01*
X0258343Y0206177D02*
X0258343Y0218382D01*
X0274091Y0234130D01*
X0253527Y0259677D02*
X0253127Y0259677D01*
X0253127Y0261275D02*
X0253527Y0261275D01*
X0253527Y0262874D02*
X0253127Y0262874D01*
X0256901Y0262874D02*
X0259470Y0262874D01*
X0229602Y0290429D02*
X0227634Y0288461D01*
X0220547Y0288461D01*
X0218458Y0290048D02*
X0216271Y0290048D01*
X0216454Y0288450D02*
X0216860Y0288450D01*
X0229234Y0294844D02*
X0279774Y0294844D01*
X0279774Y0296442D02*
X0228149Y0296442D01*
X0225446Y0298041D02*
X0279774Y0298041D01*
X0279774Y0299639D02*
X0223847Y0299639D01*
X0222249Y0301238D02*
X0279774Y0301238D01*
X0279774Y0302836D02*
X0220650Y0302836D01*
X0218988Y0304435D02*
X0279774Y0304435D01*
X0279774Y0306033D02*
X0023525Y0306033D01*
X0023525Y0307632D02*
X0279774Y0307632D01*
X0279774Y0309230D02*
X0023525Y0309230D01*
X0023525Y0310829D02*
X0279774Y0310829D01*
X0279774Y0312428D02*
X0023525Y0312428D01*
X0023525Y0314026D02*
X0279774Y0314026D01*
X0279774Y0315625D02*
X0023525Y0315625D01*
X0023525Y0317223D02*
X0279774Y0317223D01*
X0279774Y0318822D02*
X0023525Y0318822D01*
X0023525Y0320420D02*
X0279774Y0320420D01*
X0279774Y0322019D02*
X0023525Y0322019D01*
X0023525Y0323617D02*
X0279774Y0323617D01*
X0279774Y0325216D02*
X0268078Y0325216D01*
X0268024Y0325184D02*
X0272360Y0327688D01*
X0272360Y0327688D01*
X0275767Y0331359D01*
X0277939Y0335871D01*
X0278686Y0340823D01*
X0277939Y0345775D01*
X0275767Y0350287D01*
X0272360Y0353958D01*
X0268024Y0356462D01*
X0268024Y0356462D01*
X0263141Y0357576D01*
X0258147Y0357202D01*
X0253486Y0355372D01*
X0253486Y0355372D01*
X0249571Y0352250D01*
X0249571Y0352250D01*
X0246750Y0348112D01*
X0245273Y0343327D01*
X0245273Y0338319D01*
X0246750Y0333534D01*
X0249571Y0329396D01*
X0253486Y0326274D01*
X0258147Y0324444D01*
X0258147Y0324444D01*
X0263141Y0324070D01*
X0268024Y0325184D01*
X0268024Y0325184D01*
X0270847Y0326814D02*
X0279774Y0326814D01*
X0279774Y0328413D02*
X0273033Y0328413D01*
X0272360Y0327688D02*
X0272360Y0327688D01*
X0274516Y0330011D02*
X0279774Y0330011D01*
X0279774Y0331610D02*
X0275887Y0331610D01*
X0275767Y0331359D02*
X0275767Y0331359D01*
X0276657Y0333208D02*
X0279774Y0333208D01*
X0279774Y0334807D02*
X0277427Y0334807D01*
X0277939Y0335871D02*
X0277939Y0335871D01*
X0278020Y0336405D02*
X0279774Y0336405D01*
X0279774Y0338004D02*
X0278261Y0338004D01*
X0278502Y0339602D02*
X0279774Y0339602D01*
X0279774Y0341201D02*
X0278629Y0341201D01*
X0278388Y0342799D02*
X0279774Y0342799D01*
X0279774Y0344398D02*
X0278147Y0344398D01*
X0277939Y0345775D02*
X0277939Y0345775D01*
X0277833Y0345996D02*
X0279774Y0345996D01*
X0279774Y0347595D02*
X0277063Y0347595D01*
X0276293Y0349193D02*
X0279774Y0349193D01*
X0279774Y0350792D02*
X0275298Y0350792D01*
X0275767Y0350287D02*
X0275767Y0350287D01*
X0273815Y0352390D02*
X0279774Y0352390D01*
X0279774Y0353989D02*
X0272306Y0353989D01*
X0272360Y0353958D02*
X0272360Y0353958D01*
X0269538Y0355587D02*
X0279774Y0355587D01*
X0279774Y0357186D02*
X0264850Y0357186D01*
X0263141Y0357576D02*
X0263141Y0357576D01*
X0258147Y0357202D02*
X0258147Y0357202D01*
X0258107Y0357186D02*
X0224516Y0357186D01*
X0225249Y0356453D02*
X0223336Y0358366D01*
X0220837Y0359401D01*
X0218132Y0359401D01*
X0215632Y0358366D01*
X0213719Y0356453D01*
X0212684Y0353953D01*
X0212684Y0351248D01*
X0213719Y0348749D01*
X0215632Y0346836D01*
X0218132Y0345801D01*
X0220837Y0345801D01*
X0223336Y0346836D01*
X0225249Y0348749D01*
X0226284Y0351248D01*
X0226284Y0353953D01*
X0225249Y0356453D01*
X0225607Y0355587D02*
X0235717Y0355587D01*
X0235310Y0355180D02*
X0234617Y0353506D01*
X0234617Y0351695D01*
X0235310Y0350022D01*
X0236590Y0348741D01*
X0238264Y0348048D01*
X0240075Y0348048D01*
X0241748Y0348741D01*
X0243029Y0350022D01*
X0243722Y0351695D01*
X0243722Y0353506D01*
X0243029Y0355180D01*
X0241748Y0356460D01*
X0240075Y0357154D01*
X0238264Y0357154D01*
X0236590Y0356460D01*
X0235310Y0355180D01*
X0234816Y0353989D02*
X0226270Y0353989D01*
X0226284Y0352390D02*
X0234617Y0352390D01*
X0234991Y0350792D02*
X0226095Y0350792D01*
X0225433Y0349193D02*
X0236138Y0349193D01*
X0242200Y0349193D02*
X0247487Y0349193D01*
X0246750Y0348112D02*
X0246750Y0348112D01*
X0246590Y0347595D02*
X0224095Y0347595D01*
X0221309Y0345996D02*
X0246097Y0345996D01*
X0245604Y0344398D02*
X0023525Y0344398D01*
X0023525Y0345996D02*
X0217660Y0345996D01*
X0214874Y0347595D02*
X0166977Y0347595D01*
X0166718Y0347336D02*
X0168631Y0349249D01*
X0169666Y0351748D01*
X0169666Y0354453D01*
X0168631Y0356953D01*
X0166718Y0358866D01*
X0164219Y0359901D01*
X0161514Y0359901D01*
X0159014Y0358866D01*
X0157101Y0356953D01*
X0156066Y0354453D01*
X0156066Y0351748D01*
X0157101Y0349249D01*
X0159014Y0347336D01*
X0161514Y0346301D01*
X0164219Y0346301D01*
X0166718Y0347336D01*
X0168575Y0349193D02*
X0180088Y0349193D01*
X0179972Y0349241D02*
X0181646Y0348548D01*
X0183457Y0348548D01*
X0185130Y0349241D01*
X0186411Y0350522D01*
X0187104Y0352195D01*
X0187104Y0354006D01*
X0186411Y0355680D01*
X0185130Y0356960D01*
X0183457Y0357654D01*
X0181646Y0357654D01*
X0179972Y0356960D01*
X0178692Y0355680D01*
X0177998Y0354006D01*
X0177998Y0352195D01*
X0178692Y0350522D01*
X0179972Y0349241D01*
X0178580Y0350792D02*
X0169270Y0350792D01*
X0169666Y0352390D02*
X0177998Y0352390D01*
X0177998Y0353989D02*
X0169666Y0353989D01*
X0169196Y0355587D02*
X0178653Y0355587D01*
X0180516Y0357186D02*
X0168398Y0357186D01*
X0166799Y0358784D02*
X0216643Y0358784D01*
X0214453Y0357186D02*
X0184586Y0357186D01*
X0186449Y0355587D02*
X0196347Y0355587D01*
X0195940Y0355180D02*
X0197220Y0356460D01*
X0198894Y0357154D01*
X0200705Y0357154D01*
X0202378Y0356460D01*
X0203659Y0355180D01*
X0204352Y0353506D01*
X0204352Y0351695D01*
X0203659Y0350022D01*
X0202378Y0348741D01*
X0200705Y0348048D01*
X0198894Y0348048D01*
X0197220Y0348741D01*
X0195940Y0350022D01*
X0195246Y0351695D01*
X0195246Y0353506D01*
X0195940Y0355180D01*
X0195446Y0353989D02*
X0187104Y0353989D01*
X0187104Y0352390D02*
X0195246Y0352390D01*
X0195621Y0350792D02*
X0186523Y0350792D01*
X0185015Y0349193D02*
X0196768Y0349193D01*
X0202830Y0349193D02*
X0213535Y0349193D01*
X0212873Y0350792D02*
X0203978Y0350792D01*
X0204352Y0352390D02*
X0212684Y0352390D01*
X0212699Y0353989D02*
X0204152Y0353989D01*
X0203251Y0355587D02*
X0213361Y0355587D01*
X0222325Y0358784D02*
X0279774Y0358784D01*
X0279774Y0360383D02*
X0023525Y0360383D01*
X0023525Y0361981D02*
X0279774Y0361981D01*
X0254034Y0355587D02*
X0242621Y0355587D01*
X0243522Y0353989D02*
X0251751Y0353989D01*
X0249747Y0352390D02*
X0243722Y0352390D01*
X0243348Y0350792D02*
X0248577Y0350792D01*
X0249571Y0352250D02*
X0249571Y0352250D01*
X0245273Y0342799D02*
X0023525Y0342799D01*
X0023525Y0341201D02*
X0245273Y0341201D01*
X0245273Y0339602D02*
X0184287Y0339602D01*
X0184184Y0339645D02*
X0181706Y0339645D01*
X0179416Y0338697D01*
X0177664Y0336944D01*
X0177630Y0336862D01*
X0177596Y0336944D01*
X0175843Y0338697D01*
X0173554Y0339645D01*
X0171076Y0339645D01*
X0168786Y0338697D01*
X0167034Y0336944D01*
X0166086Y0334655D01*
X0166086Y0332177D01*
X0167034Y0329887D01*
X0168786Y0328135D01*
X0171076Y0327187D01*
X0173554Y0327187D01*
X0175843Y0328135D01*
X0177596Y0329887D01*
X0177630Y0329970D01*
X0177664Y0329887D01*
X0179416Y0328135D01*
X0181706Y0327187D01*
X0184184Y0327187D01*
X0186473Y0328135D01*
X0188226Y0329887D01*
X0189174Y0332177D01*
X0189174Y0334655D01*
X0188226Y0336944D01*
X0186473Y0338697D01*
X0184184Y0339645D01*
X0181603Y0339602D02*
X0173657Y0339602D01*
X0170973Y0339602D02*
X0154759Y0339602D01*
X0154656Y0339645D02*
X0152178Y0339645D01*
X0149889Y0338697D01*
X0148137Y0336944D01*
X0148102Y0336862D01*
X0148068Y0336944D01*
X0146316Y0338697D01*
X0144026Y0339645D01*
X0141548Y0339645D01*
X0139259Y0338697D01*
X0137507Y0336944D01*
X0136558Y0334655D01*
X0136558Y0332177D01*
X0137507Y0329887D01*
X0139259Y0328135D01*
X0141548Y0327187D01*
X0144026Y0327187D01*
X0146316Y0328135D01*
X0148068Y0329887D01*
X0148102Y0329970D01*
X0148137Y0329887D01*
X0149889Y0328135D01*
X0152178Y0327187D01*
X0154656Y0327187D01*
X0156946Y0328135D01*
X0158698Y0329887D01*
X0159646Y0332177D01*
X0159646Y0334655D01*
X0158698Y0336944D01*
X0156946Y0338697D01*
X0154656Y0339645D01*
X0152075Y0339602D02*
X0144129Y0339602D01*
X0141445Y0339602D02*
X0131669Y0339602D01*
X0131566Y0339645D02*
X0129088Y0339645D01*
X0126798Y0338697D01*
X0125046Y0336944D01*
X0125012Y0336862D01*
X0124978Y0336944D01*
X0123225Y0338697D01*
X0120936Y0339645D01*
X0118458Y0339645D01*
X0116168Y0338697D01*
X0114416Y0336944D01*
X0113468Y0334655D01*
X0113468Y0332177D01*
X0114416Y0329887D01*
X0116168Y0328135D01*
X0118458Y0327187D01*
X0120936Y0327187D01*
X0123225Y0328135D01*
X0124978Y0329887D01*
X0125012Y0329970D01*
X0125046Y0329887D01*
X0126798Y0328135D01*
X0129088Y0327187D01*
X0131566Y0327187D01*
X0133855Y0328135D01*
X0135608Y0329887D01*
X0136556Y0332177D01*
X0136556Y0334655D01*
X0135608Y0336944D01*
X0133855Y0338697D01*
X0131566Y0339645D01*
X0128985Y0339602D02*
X0121039Y0339602D01*
X0118355Y0339602D02*
X0102141Y0339602D01*
X0102038Y0339645D02*
X0099560Y0339645D01*
X0097271Y0338697D01*
X0095518Y0336944D01*
X0095484Y0336862D01*
X0095450Y0336944D01*
X0093698Y0338697D01*
X0091408Y0339645D01*
X0088930Y0339645D01*
X0086641Y0338697D01*
X0084888Y0336944D01*
X0084470Y0335935D01*
X0084052Y0336944D01*
X0082300Y0338697D01*
X0080011Y0339645D01*
X0077533Y0339645D01*
X0075243Y0338697D01*
X0073491Y0336944D01*
X0073457Y0336862D01*
X0073423Y0336944D01*
X0071670Y0338697D01*
X0069381Y0339645D01*
X0066903Y0339645D01*
X0064613Y0338697D01*
X0062861Y0336944D01*
X0061913Y0334655D01*
X0061913Y0332177D01*
X0062861Y0329887D01*
X0064613Y0328135D01*
X0066903Y0327187D01*
X0069381Y0327187D01*
X0071670Y0328135D01*
X0073423Y0329887D01*
X0073457Y0329970D01*
X0073491Y0329887D01*
X0075243Y0328135D01*
X0077533Y0327187D01*
X0080011Y0327187D01*
X0082300Y0328135D01*
X0084052Y0329887D01*
X0084470Y0330896D01*
X0084888Y0329887D01*
X0086641Y0328135D01*
X0088930Y0327187D01*
X0091408Y0327187D01*
X0093698Y0328135D01*
X0095450Y0329887D01*
X0095484Y0329970D01*
X0095518Y0329887D01*
X0097271Y0328135D01*
X0099560Y0327187D01*
X0102038Y0327187D01*
X0104328Y0328135D01*
X0106080Y0329887D01*
X0107028Y0332177D01*
X0107028Y0334655D01*
X0106080Y0336944D01*
X0104328Y0338697D01*
X0102038Y0339645D01*
X0099457Y0339602D02*
X0091511Y0339602D01*
X0088827Y0339602D02*
X0080114Y0339602D01*
X0077430Y0339602D02*
X0069484Y0339602D01*
X0066800Y0339602D02*
X0050586Y0339602D01*
X0050483Y0339645D02*
X0048005Y0339645D01*
X0045716Y0338697D01*
X0043963Y0336944D01*
X0043929Y0336862D01*
X0043895Y0336944D01*
X0042143Y0338697D01*
X0039853Y0339645D01*
X0037375Y0339645D01*
X0035086Y0338697D01*
X0033333Y0336944D01*
X0032385Y0334655D01*
X0032385Y0332177D01*
X0033333Y0329887D01*
X0035086Y0328135D01*
X0037375Y0327187D01*
X0039853Y0327187D01*
X0042143Y0328135D01*
X0043895Y0329887D01*
X0043929Y0329970D01*
X0043963Y0329887D01*
X0045716Y0328135D01*
X0048005Y0327187D01*
X0050483Y0327187D01*
X0052773Y0328135D01*
X0054525Y0329887D01*
X0055473Y0332177D01*
X0055473Y0334655D01*
X0054525Y0336944D01*
X0052773Y0338697D01*
X0050483Y0339645D01*
X0047902Y0339602D02*
X0039956Y0339602D01*
X0037272Y0339602D02*
X0023525Y0339602D01*
X0023525Y0338004D02*
X0034393Y0338004D01*
X0033110Y0336405D02*
X0023525Y0336405D01*
X0023525Y0334807D02*
X0032448Y0334807D01*
X0032385Y0333208D02*
X0023525Y0333208D01*
X0023525Y0331610D02*
X0032620Y0331610D01*
X0033282Y0330011D02*
X0023525Y0330011D01*
X0023525Y0328413D02*
X0034808Y0328413D01*
X0042420Y0328413D02*
X0045438Y0328413D01*
X0053050Y0328413D02*
X0064336Y0328413D01*
X0062810Y0330011D02*
X0054576Y0330011D01*
X0055238Y0331610D02*
X0062147Y0331610D01*
X0061913Y0333208D02*
X0055473Y0333208D01*
X0055410Y0334807D02*
X0061976Y0334807D01*
X0062638Y0336405D02*
X0054748Y0336405D01*
X0053465Y0338004D02*
X0063920Y0338004D01*
X0072363Y0338004D02*
X0074550Y0338004D01*
X0082993Y0338004D02*
X0085948Y0338004D01*
X0084665Y0336405D02*
X0084276Y0336405D01*
X0094391Y0338004D02*
X0096578Y0338004D01*
X0105021Y0338004D02*
X0115475Y0338004D01*
X0114193Y0336405D02*
X0106303Y0336405D01*
X0106965Y0334807D02*
X0113531Y0334807D01*
X0113468Y0333208D02*
X0107028Y0333208D01*
X0106793Y0331610D02*
X0113703Y0331610D01*
X0114365Y0330011D02*
X0106131Y0330011D01*
X0104605Y0328413D02*
X0115891Y0328413D01*
X0123503Y0328413D02*
X0126521Y0328413D01*
X0134133Y0328413D02*
X0138981Y0328413D01*
X0137455Y0330011D02*
X0135659Y0330011D01*
X0136321Y0331610D02*
X0136793Y0331610D01*
X0136556Y0333208D02*
X0136558Y0333208D01*
X0136493Y0334807D02*
X0136621Y0334807D01*
X0137283Y0336405D02*
X0135831Y0336405D01*
X0134548Y0338004D02*
X0138566Y0338004D01*
X0147009Y0338004D02*
X0149196Y0338004D01*
X0157639Y0338004D02*
X0168094Y0338004D01*
X0166811Y0336405D02*
X0158921Y0336405D01*
X0159584Y0334807D02*
X0166149Y0334807D01*
X0166086Y0333208D02*
X0159646Y0333208D01*
X0159412Y0331610D02*
X0166321Y0331610D01*
X0166983Y0330011D02*
X0158749Y0330011D01*
X0157224Y0328413D02*
X0168509Y0328413D01*
X0176121Y0328413D02*
X0179139Y0328413D01*
X0186751Y0328413D02*
X0195099Y0328413D01*
X0195877Y0327635D02*
X0198166Y0326687D01*
X0200645Y0326687D01*
X0202934Y0327635D01*
X0204686Y0329387D01*
X0204720Y0329470D01*
X0204755Y0329387D01*
X0206507Y0327635D01*
X0208796Y0326687D01*
X0211274Y0326687D01*
X0213564Y0327635D01*
X0215316Y0329387D01*
X0216265Y0331677D01*
X0216265Y0334155D01*
X0215316Y0336444D01*
X0213564Y0338197D01*
X0211274Y0339145D01*
X0208796Y0339145D01*
X0206507Y0338197D01*
X0204755Y0336444D01*
X0204720Y0336362D01*
X0204686Y0336444D01*
X0202934Y0338197D01*
X0200645Y0339145D01*
X0198166Y0339145D01*
X0195877Y0338197D01*
X0194125Y0336444D01*
X0193176Y0334155D01*
X0193176Y0331677D01*
X0194125Y0329387D01*
X0195877Y0327635D01*
X0197859Y0326814D02*
X0023525Y0326814D01*
X0023525Y0325216D02*
X0256182Y0325216D01*
X0253486Y0326274D02*
X0253486Y0326274D01*
X0252808Y0326814D02*
X0241110Y0326814D01*
X0240802Y0326687D02*
X0243092Y0327635D01*
X0244844Y0329387D01*
X0245792Y0331677D01*
X0245792Y0334155D01*
X0244844Y0336444D01*
X0243092Y0338197D01*
X0240802Y0339145D01*
X0238324Y0339145D01*
X0236034Y0338197D01*
X0234282Y0336444D01*
X0234248Y0336362D01*
X0234214Y0336444D01*
X0232462Y0338197D01*
X0230172Y0339145D01*
X0227694Y0339145D01*
X0225405Y0338197D01*
X0223652Y0336444D01*
X0222704Y0334155D01*
X0222704Y0331677D01*
X0223652Y0329387D01*
X0225405Y0327635D01*
X0227694Y0326687D01*
X0230172Y0326687D01*
X0232462Y0327635D01*
X0234214Y0329387D01*
X0234248Y0329470D01*
X0234282Y0329387D01*
X0236034Y0327635D01*
X0238324Y0326687D01*
X0240802Y0326687D01*
X0238016Y0326814D02*
X0230480Y0326814D01*
X0227386Y0326814D02*
X0211582Y0326814D01*
X0208489Y0326814D02*
X0200952Y0326814D01*
X0203712Y0328413D02*
X0205729Y0328413D01*
X0214342Y0328413D02*
X0224627Y0328413D01*
X0223394Y0330011D02*
X0215575Y0330011D01*
X0216237Y0331610D02*
X0222732Y0331610D01*
X0222704Y0333208D02*
X0216265Y0333208D01*
X0215995Y0334807D02*
X0222974Y0334807D01*
X0223636Y0336405D02*
X0215332Y0336405D01*
X0213757Y0338004D02*
X0225212Y0338004D01*
X0232654Y0338004D02*
X0235842Y0338004D01*
X0234266Y0336405D02*
X0234230Y0336405D01*
X0243284Y0338004D02*
X0245371Y0338004D01*
X0245864Y0336405D02*
X0244860Y0336405D01*
X0245522Y0334807D02*
X0246357Y0334807D01*
X0246750Y0333534D02*
X0246750Y0333534D01*
X0246971Y0333208D02*
X0245792Y0333208D01*
X0245764Y0331610D02*
X0248061Y0331610D01*
X0249151Y0330011D02*
X0245102Y0330011D01*
X0243869Y0328413D02*
X0250804Y0328413D01*
X0249571Y0329396D02*
X0249571Y0329396D01*
X0249571Y0329396D01*
X0235257Y0328413D02*
X0233239Y0328413D01*
X0206314Y0338004D02*
X0203127Y0338004D01*
X0204703Y0336405D02*
X0204738Y0336405D01*
X0195684Y0338004D02*
X0187166Y0338004D01*
X0188449Y0336405D02*
X0194109Y0336405D01*
X0193446Y0334807D02*
X0189111Y0334807D01*
X0189174Y0333208D02*
X0193176Y0333208D01*
X0193204Y0331610D02*
X0188939Y0331610D01*
X0188277Y0330011D02*
X0193866Y0330011D01*
X0178723Y0338004D02*
X0176536Y0338004D01*
X0158756Y0347595D02*
X0114359Y0347595D01*
X0114100Y0347336D02*
X0116013Y0349249D01*
X0117048Y0351748D01*
X0117048Y0354453D01*
X0116013Y0356953D01*
X0114100Y0358866D01*
X0111601Y0359901D01*
X0108895Y0359901D01*
X0106396Y0358866D01*
X0104483Y0356953D01*
X0103448Y0354453D01*
X0103448Y0351748D01*
X0104483Y0349249D01*
X0106396Y0347336D01*
X0108895Y0346301D01*
X0111601Y0346301D01*
X0114100Y0347336D01*
X0115957Y0349193D02*
X0127470Y0349193D01*
X0127354Y0349241D02*
X0129027Y0348548D01*
X0130839Y0348548D01*
X0132512Y0349241D01*
X0133793Y0350522D01*
X0134486Y0352195D01*
X0134486Y0354006D01*
X0133793Y0355680D01*
X0132512Y0356960D01*
X0130839Y0357654D01*
X0129027Y0357654D01*
X0127354Y0356960D01*
X0126073Y0355680D01*
X0125380Y0354006D01*
X0125380Y0352195D01*
X0126073Y0350522D01*
X0127354Y0349241D01*
X0125962Y0350792D02*
X0116652Y0350792D01*
X0117048Y0352390D02*
X0125380Y0352390D01*
X0125380Y0353989D02*
X0117048Y0353989D01*
X0116578Y0355587D02*
X0126035Y0355587D01*
X0127898Y0357186D02*
X0115780Y0357186D01*
X0114181Y0358784D02*
X0158933Y0358784D01*
X0157335Y0357186D02*
X0145216Y0357186D01*
X0145760Y0356960D02*
X0144087Y0357654D01*
X0142275Y0357654D01*
X0140602Y0356960D01*
X0139321Y0355680D01*
X0138628Y0354006D01*
X0138628Y0352195D01*
X0139321Y0350522D01*
X0140602Y0349241D01*
X0142275Y0348548D01*
X0144087Y0348548D01*
X0145760Y0349241D01*
X0147041Y0350522D01*
X0147734Y0352195D01*
X0147734Y0354006D01*
X0147041Y0355680D01*
X0145760Y0356960D01*
X0147079Y0355587D02*
X0156536Y0355587D01*
X0156066Y0353989D02*
X0147734Y0353989D01*
X0147734Y0352390D02*
X0156066Y0352390D01*
X0156462Y0350792D02*
X0147153Y0350792D01*
X0145644Y0349193D02*
X0157157Y0349193D01*
X0140718Y0349193D02*
X0132396Y0349193D01*
X0133905Y0350792D02*
X0139210Y0350792D01*
X0138628Y0352390D02*
X0134486Y0352390D01*
X0134486Y0353989D02*
X0138628Y0353989D01*
X0139283Y0355587D02*
X0133831Y0355587D01*
X0131968Y0357186D02*
X0141146Y0357186D01*
X0126105Y0338004D02*
X0123918Y0338004D01*
X0106137Y0347595D02*
X0062804Y0347595D01*
X0062545Y0347336D02*
X0064458Y0349249D01*
X0065493Y0351748D01*
X0065493Y0354453D01*
X0064458Y0356953D01*
X0062545Y0358866D01*
X0060046Y0359901D01*
X0057340Y0359901D01*
X0054841Y0358866D01*
X0052928Y0356953D01*
X0051893Y0354453D01*
X0051893Y0351748D01*
X0052928Y0349249D01*
X0054841Y0347336D01*
X0057340Y0346301D01*
X0060046Y0346301D01*
X0062545Y0347336D01*
X0064402Y0349193D02*
X0075915Y0349193D01*
X0075799Y0349241D02*
X0077472Y0348548D01*
X0079284Y0348548D01*
X0080957Y0349241D01*
X0082238Y0350522D01*
X0082931Y0352195D01*
X0082931Y0354006D01*
X0082238Y0355680D01*
X0080957Y0356960D01*
X0079284Y0357654D01*
X0077472Y0357654D01*
X0075799Y0356960D01*
X0074518Y0355680D01*
X0073825Y0354006D01*
X0073825Y0352195D01*
X0074518Y0350522D01*
X0075799Y0349241D01*
X0074406Y0350792D02*
X0065097Y0350792D01*
X0065493Y0352390D02*
X0073825Y0352390D01*
X0073825Y0353989D02*
X0065493Y0353989D01*
X0065023Y0355587D02*
X0074480Y0355587D01*
X0076343Y0357186D02*
X0064225Y0357186D01*
X0062626Y0358784D02*
X0106315Y0358784D01*
X0104716Y0357186D02*
X0092598Y0357186D01*
X0093142Y0356960D02*
X0091469Y0357654D01*
X0089657Y0357654D01*
X0087984Y0356960D01*
X0086703Y0355680D01*
X0086010Y0354006D01*
X0086010Y0352195D01*
X0086703Y0350522D01*
X0087984Y0349241D01*
X0089657Y0348548D01*
X0091469Y0348548D01*
X0093142Y0349241D01*
X0094423Y0350522D01*
X0095116Y0352195D01*
X0095116Y0354006D01*
X0094423Y0355680D01*
X0093142Y0356960D01*
X0094461Y0355587D02*
X0103918Y0355587D01*
X0103448Y0353989D02*
X0095116Y0353989D01*
X0095116Y0352390D02*
X0103448Y0352390D01*
X0103844Y0350792D02*
X0094534Y0350792D01*
X0093026Y0349193D02*
X0104539Y0349193D01*
X0088100Y0349193D02*
X0080841Y0349193D01*
X0082349Y0350792D02*
X0086592Y0350792D01*
X0086010Y0352390D02*
X0082931Y0352390D01*
X0082931Y0353989D02*
X0086010Y0353989D01*
X0086665Y0355587D02*
X0082276Y0355587D01*
X0080413Y0357186D02*
X0088528Y0357186D01*
X0054760Y0358784D02*
X0023525Y0358784D01*
X0023525Y0357186D02*
X0036973Y0357186D01*
X0036429Y0356960D02*
X0035148Y0355680D01*
X0034455Y0354006D01*
X0034455Y0352195D01*
X0035148Y0350522D01*
X0036429Y0349241D01*
X0038102Y0348548D01*
X0039913Y0348548D01*
X0041587Y0349241D01*
X0042868Y0350522D01*
X0043561Y0352195D01*
X0043561Y0354006D01*
X0042868Y0355680D01*
X0041587Y0356960D01*
X0039913Y0357654D01*
X0038102Y0357654D01*
X0036429Y0356960D01*
X0035110Y0355587D02*
X0023525Y0355587D01*
X0023525Y0353989D02*
X0034455Y0353989D01*
X0034455Y0352390D02*
X0023525Y0352390D01*
X0023525Y0350792D02*
X0035036Y0350792D01*
X0036545Y0349193D02*
X0023525Y0349193D01*
X0023525Y0347595D02*
X0054582Y0347595D01*
X0052984Y0349193D02*
X0041471Y0349193D01*
X0042979Y0350792D02*
X0052289Y0350792D01*
X0051893Y0352390D02*
X0043561Y0352390D01*
X0043561Y0353989D02*
X0051893Y0353989D01*
X0052363Y0355587D02*
X0042906Y0355587D01*
X0041043Y0357186D02*
X0053161Y0357186D01*
X0045023Y0338004D02*
X0042836Y0338004D01*
X0071948Y0328413D02*
X0074965Y0328413D01*
X0082578Y0328413D02*
X0086363Y0328413D01*
X0084837Y0330011D02*
X0084104Y0330011D01*
X0093975Y0328413D02*
X0096993Y0328413D01*
X0146594Y0328413D02*
X0149611Y0328413D01*
X0231855Y0293245D02*
X0233860Y0293245D01*
X0263141Y0324070D02*
X0263141Y0324070D01*
X0230912Y0214918D02*
X0227688Y0214918D01*
X0229286Y0213320D02*
X0229779Y0213320D01*
X0104092Y0162167D02*
X0103468Y0162167D01*
X0056899Y0176554D02*
X0041392Y0176554D01*
X0042532Y0178153D02*
X0055838Y0178153D01*
X0055487Y0179751D02*
X0042887Y0179751D01*
X0042671Y0181350D02*
X0055670Y0181350D01*
X0056493Y0182948D02*
X0041798Y0182948D01*
X0038698Y0184547D02*
X0058831Y0184547D01*
X0032018Y0127000D02*
X0023525Y0127000D01*
X0023525Y0125402D02*
X0030549Y0125402D01*
X0029887Y0123803D02*
X0023525Y0123803D01*
X0023525Y0122205D02*
X0029803Y0122205D01*
X0030137Y0120606D02*
X0023525Y0120606D01*
X0023525Y0119008D02*
X0031024Y0119008D01*
X0023525Y0104621D02*
X0043064Y0104621D01*
X0041363Y0103023D02*
X0023525Y0103023D01*
X0023525Y0101424D02*
X0040474Y0101424D01*
X0039940Y0099826D02*
X0023525Y0099826D01*
X0023525Y0098227D02*
X0039940Y0098227D01*
X0040273Y0096628D02*
X0023525Y0096628D01*
X0023525Y0095030D02*
X0040935Y0095030D01*
X0042476Y0093431D02*
X0023525Y0093431D01*
X0023525Y0091833D02*
X0063178Y0091833D01*
X0062772Y0090234D02*
X0023525Y0090234D01*
X0023525Y0088636D02*
X0062738Y0088636D01*
X0062738Y0087037D02*
X0023525Y0087037D01*
X0023525Y0085439D02*
X0062738Y0085439D01*
X0062752Y0083840D02*
X0023525Y0083840D01*
X0023525Y0082242D02*
X0063133Y0082242D01*
X0064069Y0080643D02*
X0023525Y0080643D01*
X0023525Y0079045D02*
X0043822Y0079045D01*
X0049740Y0079045D02*
X0049740Y0079045D01*
X0049740Y0077446D02*
X0049740Y0077446D01*
X0049740Y0075848D02*
X0049740Y0075848D01*
X0049740Y0074249D02*
X0049740Y0074249D01*
X0049740Y0072651D02*
X0049740Y0072651D01*
X0049740Y0071052D02*
X0049740Y0071052D01*
X0049740Y0069454D02*
X0049740Y0069454D01*
X0055658Y0079045D02*
X0066137Y0079045D01*
X0073207Y0080643D02*
X0245612Y0080643D01*
X0246105Y0082242D02*
X0182123Y0082242D01*
X0181660Y0082050D02*
X0183950Y0082999D01*
X0185702Y0084751D01*
X0186650Y0087040D01*
X0186650Y0089519D01*
X0185702Y0091808D01*
X0183950Y0093560D01*
X0181660Y0094509D01*
X0179182Y0094509D01*
X0176893Y0093560D01*
X0175140Y0091808D01*
X0175106Y0091726D01*
X0175072Y0091808D01*
X0173320Y0093560D01*
X0171030Y0094509D01*
X0168552Y0094509D01*
X0166263Y0093560D01*
X0164511Y0091808D01*
X0163562Y0089519D01*
X0163562Y0087040D01*
X0164511Y0084751D01*
X0166263Y0082999D01*
X0168552Y0082050D01*
X0171030Y0082050D01*
X0173320Y0082999D01*
X0175072Y0084751D01*
X0175106Y0084833D01*
X0175140Y0084751D01*
X0176893Y0082999D01*
X0179182Y0082050D01*
X0181660Y0082050D01*
X0178720Y0082242D02*
X0171493Y0082242D01*
X0174162Y0083840D02*
X0176051Y0083840D01*
X0184791Y0083840D02*
X0196425Y0083840D01*
X0194827Y0085439D02*
X0185987Y0085439D01*
X0186649Y0087037D02*
X0194106Y0087037D01*
X0193779Y0088636D02*
X0186650Y0088636D01*
X0186354Y0090234D02*
X0193779Y0090234D01*
X0194411Y0091833D02*
X0185677Y0091833D01*
X0184079Y0093431D02*
X0195563Y0093431D01*
X0203591Y0083840D02*
X0207055Y0083840D01*
X0205456Y0085439D02*
X0205189Y0085439D01*
X0214221Y0083840D02*
X0225953Y0083840D01*
X0224354Y0085439D02*
X0215819Y0085439D01*
X0216539Y0087037D02*
X0223634Y0087037D01*
X0223306Y0088636D02*
X0216867Y0088636D01*
X0216867Y0090234D02*
X0223306Y0090234D01*
X0223939Y0091833D02*
X0216234Y0091833D01*
X0215083Y0093431D02*
X0225091Y0093431D01*
X0233118Y0083840D02*
X0236583Y0083840D01*
X0234984Y0085439D02*
X0234717Y0085439D01*
X0243748Y0083840D02*
X0246598Y0083840D01*
X0247504Y0085439D02*
X0245347Y0085439D01*
X0246067Y0087037D02*
X0248594Y0087037D01*
X0249778Y0088636D02*
X0246394Y0088636D01*
X0246394Y0090234D02*
X0251783Y0090234D01*
X0254098Y0091833D02*
X0245762Y0091833D01*
X0244610Y0093431D02*
X0258273Y0093431D01*
X0264740Y0093431D02*
X0279774Y0093431D01*
X0279774Y0091833D02*
X0269494Y0091833D01*
X0272263Y0090234D02*
X0279774Y0090234D01*
X0279774Y0088636D02*
X0273791Y0088636D01*
X0275275Y0087037D02*
X0279774Y0087037D01*
X0279774Y0085439D02*
X0276281Y0085439D01*
X0277051Y0083840D02*
X0279774Y0083840D01*
X0279774Y0082242D02*
X0277821Y0082242D01*
X0278143Y0080643D02*
X0279774Y0080643D01*
X0279774Y0079045D02*
X0278384Y0079045D01*
X0278625Y0077446D02*
X0279774Y0077446D01*
X0279774Y0075848D02*
X0278506Y0075848D01*
X0278265Y0074249D02*
X0279774Y0074249D01*
X0279774Y0072651D02*
X0278024Y0072651D01*
X0277439Y0071052D02*
X0279774Y0071052D01*
X0279774Y0069454D02*
X0276669Y0069454D01*
X0275899Y0067855D02*
X0279774Y0067855D01*
X0279774Y0066257D02*
X0274539Y0066257D01*
X0273056Y0064658D02*
X0279774Y0064658D01*
X0279774Y0063060D02*
X0270890Y0063060D01*
X0268122Y0061461D02*
X0279774Y0061461D01*
X0176764Y0093431D02*
X0173449Y0093431D01*
X0175047Y0091833D02*
X0175165Y0091833D01*
X0166134Y0093431D02*
X0154551Y0093431D01*
X0154422Y0093560D02*
X0152133Y0094509D01*
X0149655Y0094509D01*
X0147365Y0093560D01*
X0145613Y0091808D01*
X0145579Y0091726D01*
X0145545Y0091808D01*
X0143792Y0093560D01*
X0141503Y0094509D01*
X0139025Y0094509D01*
X0136735Y0093560D01*
X0134983Y0091808D01*
X0134035Y0089519D01*
X0134035Y0087040D01*
X0134983Y0084751D01*
X0136735Y0082999D01*
X0139025Y0082050D01*
X0141503Y0082050D01*
X0143792Y0082999D01*
X0145545Y0084751D01*
X0145579Y0084833D01*
X0145613Y0084751D01*
X0147365Y0082999D01*
X0149655Y0082050D01*
X0152133Y0082050D01*
X0154422Y0082999D01*
X0156174Y0084751D01*
X0157123Y0087040D01*
X0157123Y0089519D01*
X0156174Y0091808D01*
X0154422Y0093560D01*
X0156150Y0091833D02*
X0164535Y0091833D01*
X0163859Y0090234D02*
X0156826Y0090234D01*
X0157123Y0088636D02*
X0163562Y0088636D01*
X0163563Y0087037D02*
X0157122Y0087037D01*
X0156459Y0085439D02*
X0164226Y0085439D01*
X0165421Y0083840D02*
X0155264Y0083840D01*
X0152595Y0082242D02*
X0168090Y0082242D01*
X0156381Y0074249D02*
X0105348Y0074249D01*
X0106835Y0072651D02*
X0117901Y0072651D01*
X0118098Y0072848D02*
X0116818Y0071567D01*
X0116124Y0069894D01*
X0116124Y0068083D01*
X0116818Y0066409D01*
X0118098Y0065129D01*
X0119772Y0064435D01*
X0121583Y0064435D01*
X0123256Y0065129D01*
X0124537Y0066409D01*
X0125230Y0068083D01*
X0125230Y0069894D01*
X0124537Y0071567D01*
X0123256Y0072848D01*
X0121583Y0073541D01*
X0119772Y0073541D01*
X0118098Y0072848D01*
X0116604Y0071052D02*
X0107497Y0071052D01*
X0107792Y0069454D02*
X0116124Y0069454D01*
X0116219Y0067855D02*
X0107792Y0067855D01*
X0107221Y0066257D02*
X0116970Y0066257D01*
X0119234Y0064658D02*
X0106279Y0064658D01*
X0104449Y0063060D02*
X0156261Y0063060D01*
X0154662Y0064658D02*
X0143052Y0064658D01*
X0143236Y0064735D02*
X0144517Y0066016D01*
X0145210Y0067689D01*
X0145210Y0069500D01*
X0144517Y0071173D01*
X0143236Y0072454D01*
X0141563Y0073147D01*
X0139752Y0073147D01*
X0138079Y0072454D01*
X0136798Y0071173D01*
X0136105Y0069500D01*
X0136105Y0067689D01*
X0136798Y0066016D01*
X0138079Y0064735D01*
X0139752Y0064042D01*
X0141563Y0064042D01*
X0143236Y0064735D01*
X0144617Y0066257D02*
X0153951Y0066257D01*
X0153543Y0067855D02*
X0145210Y0067855D01*
X0145210Y0069454D02*
X0153543Y0069454D01*
X0154000Y0071052D02*
X0144567Y0071052D01*
X0142762Y0072651D02*
X0154782Y0072651D01*
X0138553Y0072651D02*
X0123453Y0072651D01*
X0124750Y0071052D02*
X0136748Y0071052D01*
X0136105Y0069454D02*
X0125230Y0069454D01*
X0125136Y0067855D02*
X0136105Y0067855D01*
X0136698Y0066257D02*
X0124384Y0066257D01*
X0122121Y0064658D02*
X0138263Y0064658D01*
X0138562Y0082242D02*
X0074143Y0082242D01*
X0074524Y0083840D02*
X0076937Y0083840D01*
X0077385Y0083392D02*
X0079674Y0082444D01*
X0082152Y0082444D01*
X0084442Y0083392D01*
X0086194Y0085145D01*
X0086228Y0085227D01*
X0086262Y0085145D01*
X0088015Y0083392D01*
X0090304Y0082444D01*
X0092782Y0082444D01*
X0095072Y0083392D01*
X0096824Y0085145D01*
X0097772Y0087434D01*
X0097772Y0089912D01*
X0096824Y0092202D01*
X0095072Y0093954D01*
X0092782Y0094902D01*
X0090304Y0094902D01*
X0088015Y0093954D01*
X0086262Y0092202D01*
X0086228Y0092119D01*
X0086194Y0092202D01*
X0084442Y0093954D01*
X0082152Y0094902D01*
X0079674Y0094902D01*
X0077385Y0093954D01*
X0075633Y0092202D01*
X0074684Y0089912D01*
X0074684Y0087434D01*
X0075633Y0085145D01*
X0077385Y0083392D01*
X0075511Y0085439D02*
X0074538Y0085439D01*
X0074538Y0087037D02*
X0074849Y0087037D01*
X0074684Y0088636D02*
X0074538Y0088636D01*
X0074503Y0090234D02*
X0074818Y0090234D01*
X0075480Y0091833D02*
X0074098Y0091833D01*
X0073103Y0093431D02*
X0076862Y0093431D01*
X0084964Y0093431D02*
X0087492Y0093431D01*
X0095594Y0093431D02*
X0106390Y0093431D01*
X0106912Y0093954D02*
X0105160Y0092202D01*
X0104212Y0089912D01*
X0104212Y0087434D01*
X0105160Y0085145D01*
X0106912Y0083392D01*
X0109202Y0082444D01*
X0111680Y0082444D01*
X0113969Y0083392D01*
X0115722Y0085145D01*
X0115756Y0085227D01*
X0115790Y0085145D01*
X0117542Y0083392D01*
X0119832Y0082444D01*
X0122310Y0082444D01*
X0124599Y0083392D01*
X0126352Y0085145D01*
X0127300Y0087434D01*
X0127300Y0089912D01*
X0126352Y0092202D01*
X0124599Y0093954D01*
X0122310Y0094902D01*
X0119832Y0094902D01*
X0117542Y0093954D01*
X0115790Y0092202D01*
X0115756Y0092119D01*
X0115722Y0092202D01*
X0113969Y0093954D01*
X0111680Y0094902D01*
X0109202Y0094902D01*
X0106912Y0093954D01*
X0105007Y0091833D02*
X0096977Y0091833D01*
X0097639Y0090234D02*
X0104345Y0090234D01*
X0104212Y0088636D02*
X0097772Y0088636D01*
X0097608Y0087037D02*
X0104376Y0087037D01*
X0105038Y0085439D02*
X0096946Y0085439D01*
X0095520Y0083840D02*
X0106464Y0083840D01*
X0114417Y0083840D02*
X0117094Y0083840D01*
X0125047Y0083840D02*
X0135894Y0083840D01*
X0134698Y0085439D02*
X0126474Y0085439D01*
X0127136Y0087037D02*
X0134036Y0087037D01*
X0134035Y0088636D02*
X0127300Y0088636D01*
X0127167Y0090234D02*
X0134331Y0090234D01*
X0135008Y0091833D02*
X0126504Y0091833D01*
X0125122Y0093431D02*
X0136606Y0093431D01*
X0143921Y0093431D02*
X0147236Y0093431D01*
X0145638Y0091833D02*
X0145520Y0091833D01*
X0144634Y0083840D02*
X0146523Y0083840D01*
X0149192Y0082242D02*
X0141965Y0082242D01*
X0117020Y0093431D02*
X0114492Y0093431D01*
X0087567Y0083840D02*
X0084890Y0083840D01*
X0066403Y0095030D02*
X0058546Y0095030D01*
X0057005Y0093431D02*
X0064173Y0093431D01*
D23*
X0205587Y0227437D02*
X0226709Y0248953D01*
X0253327Y0248953D01*
X0259130Y0243972D02*
X0263327Y0248169D01*
X0263327Y0248953D01*
X0259130Y0243972D02*
X0228028Y0243972D01*
X0213461Y0229406D01*
X0217791Y0247122D02*
X0217791Y0277437D01*
X0222122Y0282161D01*
X0213461Y0264839D02*
X0182358Y0233736D01*
M02*
