G75*
%MOIN*%
%OFA0B0*%
%FSLAX25Y25*%
%IPPOS*%
%LPD*%
%AMOC8*
5,1,8,0,0,1.08239X$1,22.5*
%
%ADD10R,0.00025X0.00025*%
%ADD11R,0.00050X0.00025*%
%ADD12R,0.00075X0.00025*%
%ADD13R,0.00100X0.00025*%
%ADD14R,0.00225X0.00025*%
%ADD15R,0.00100X0.00025*%
%ADD16R,0.00350X0.00025*%
%ADD17R,0.00150X0.00025*%
%ADD18R,0.00425X0.00025*%
%ADD19R,0.00175X0.00025*%
%ADD20R,0.00500X0.00025*%
%ADD21R,0.00200X0.00025*%
%ADD22R,0.00550X0.00025*%
%ADD23R,0.00025X0.00025*%
%ADD24R,0.00200X0.00025*%
%ADD25R,0.00600X0.00025*%
%ADD26R,0.00250X0.00025*%
%ADD27R,0.00675X0.00025*%
%ADD28R,0.00275X0.00025*%
%ADD29R,0.00725X0.00025*%
%ADD30R,0.00050X0.00025*%
%ADD31R,0.00325X0.00025*%
%ADD32R,0.00775X0.00025*%
%ADD33R,0.00075X0.00025*%
%ADD34R,0.00325X0.00025*%
%ADD35R,0.00825X0.00025*%
%ADD36R,0.00075X0.00025*%
%ADD37R,0.00450X0.00025*%
%ADD38R,0.01200X0.00025*%
%ADD39R,0.00275X0.00025*%
%ADD40R,0.00125X0.00025*%
%ADD41R,0.00125X0.00025*%
%ADD42R,0.00575X0.00025*%
%ADD43R,0.00600X0.00025*%
%ADD44R,0.00025X0.00025*%
%ADD45R,0.01225X0.00025*%
%ADD46R,0.00325X0.00025*%
%ADD47R,0.00150X0.00025*%
%ADD48R,0.00175X0.00025*%
%ADD49R,0.00650X0.00025*%
%ADD50R,0.00825X0.00025*%
%ADD51R,0.01225X0.00025*%
%ADD52R,0.00650X0.00025*%
%ADD53R,0.00350X0.00025*%
%ADD54R,0.00175X0.00025*%
%ADD55R,0.00975X0.00025*%
%ADD56R,0.01050X0.00025*%
%ADD57R,0.01250X0.00025*%
%ADD58R,0.01000X0.00025*%
%ADD59R,0.00400X0.00025*%
%ADD60R,0.00225X0.00025*%
%ADD61R,0.01175X0.00025*%
%ADD62R,0.00125X0.00025*%
%ADD63R,0.01325X0.00025*%
%ADD64R,0.00475X0.00025*%
%ADD65R,0.01025X0.00025*%
%ADD66R,0.01275X0.00025*%
%ADD67R,0.00375X0.00025*%
%ADD68R,0.02750X0.00025*%
%ADD69R,0.00900X0.00025*%
%ADD70R,0.00700X0.00025*%
%ADD71R,0.02775X0.00025*%
%ADD72R,0.00950X0.00025*%
%ADD73R,0.01175X0.00025*%
%ADD74R,0.01600X0.00025*%
%ADD75R,0.00725X0.00025*%
%ADD76R,0.02850X0.00025*%
%ADD77R,0.02825X0.00025*%
%ADD78R,0.00750X0.00025*%
%ADD79R,0.02900X0.00025*%
%ADD80R,0.00075X0.00025*%
%ADD81R,0.02850X0.00025*%
%ADD82R,0.00800X0.00025*%
%ADD83R,0.03000X0.00025*%
%ADD84R,0.01100X0.00025*%
%ADD85R,0.00250X0.00025*%
%ADD86R,0.00850X0.00025*%
%ADD87R,0.04600X0.00025*%
%ADD88R,0.00875X0.00025*%
%ADD89R,0.04575X0.00025*%
%ADD90R,0.00875X0.00025*%
%ADD91R,0.04550X0.00025*%
%ADD92R,0.00775X0.00025*%
%ADD93R,0.00900X0.00025*%
%ADD94R,0.04475X0.00025*%
%ADD95R,0.00800X0.00025*%
%ADD96R,0.04425X0.00025*%
%ADD97R,0.00825X0.00025*%
%ADD98R,0.00175X0.00025*%
%ADD99R,0.02825X0.00025*%
%ADD100R,0.00925X0.00025*%
%ADD101R,0.04400X0.00025*%
%ADD102R,0.02800X0.00025*%
%ADD103R,0.00950X0.00025*%
%ADD104R,0.04350X0.00025*%
%ADD105R,0.00850X0.00025*%
%ADD106R,0.00750X0.00025*%
%ADD107R,0.00450X0.00025*%
%ADD108R,0.04000X0.00025*%
%ADD109R,0.04250X0.00025*%
%ADD110R,0.01025X0.00025*%
%ADD111R,0.03550X0.00025*%
%ADD112R,0.04150X0.00025*%
%ADD113R,0.01150X0.00025*%
%ADD114R,0.01075X0.00025*%
%ADD115R,0.03525X0.00025*%
%ADD116R,0.03975X0.00025*%
%ADD117R,0.00925X0.00025*%
%ADD118R,0.01275X0.00025*%
%ADD119R,0.01125X0.00025*%
%ADD120R,0.03525X0.00025*%
%ADD121R,0.03800X0.00025*%
%ADD122R,0.02425X0.00025*%
%ADD123R,0.03475X0.00025*%
%ADD124R,0.02525X0.00025*%
%ADD125R,0.02475X0.00025*%
%ADD126R,0.01325X0.00025*%
%ADD127R,0.03475X0.00025*%
%ADD128R,0.02275X0.00025*%
%ADD129R,0.02625X0.00025*%
%ADD130R,0.01575X0.00025*%
%ADD131R,0.00300X0.00025*%
%ADD132R,0.02750X0.00025*%
%ADD133R,0.00625X0.00025*%
%ADD134R,0.01950X0.00025*%
%ADD135R,0.04350X0.00025*%
%ADD136R,0.03050X0.00025*%
%ADD137R,0.01925X0.00025*%
%ADD138R,0.04325X0.00025*%
%ADD139R,0.02925X0.00025*%
%ADD140R,0.01975X0.00025*%
%ADD141R,0.04275X0.00025*%
%ADD142R,0.02925X0.00025*%
%ADD143R,0.00225X0.00025*%
%ADD144R,0.02100X0.00025*%
%ADD145R,0.04200X0.00025*%
%ADD146R,0.03250X0.00025*%
%ADD147R,0.02200X0.00025*%
%ADD148R,0.04150X0.00025*%
%ADD149R,0.03200X0.00025*%
%ADD150R,0.02450X0.00025*%
%ADD151R,0.04100X0.00025*%
%ADD152R,0.03200X0.00025*%
%ADD153R,0.03125X0.00025*%
%ADD154R,0.03175X0.00025*%
%ADD155R,0.03175X0.00025*%
%ADD156R,0.03750X0.00025*%
%ADD157R,0.03150X0.00025*%
%ADD158R,0.03225X0.00025*%
%ADD159R,0.03750X0.00025*%
%ADD160R,0.03150X0.00025*%
%ADD161R,0.02725X0.00025*%
%ADD162R,0.03275X0.00025*%
%ADD163R,0.02700X0.00025*%
%ADD164R,0.01825X0.00025*%
%ADD165R,0.01225X0.00025*%
%ADD166R,0.03300X0.00025*%
%ADD167R,0.02675X0.00025*%
%ADD168R,0.03725X0.00025*%
%ADD169R,0.02675X0.00025*%
%ADD170R,0.01075X0.00025*%
%ADD171R,0.01000X0.00025*%
%ADD172R,0.02775X0.00025*%
%ADD173R,0.00525X0.00025*%
%ADD174R,0.03775X0.00025*%
%ADD175R,0.02925X0.00025*%
%ADD176R,0.00300X0.00025*%
%ADD177R,0.00425X0.00025*%
%ADD178R,0.03775X0.00025*%
%ADD179R,0.02975X0.00025*%
%ADD180R,0.00425X0.00025*%
%ADD181R,0.00575X0.00025*%
%ADD182R,0.03100X0.00025*%
%ADD183R,0.01025X0.00025*%
%ADD184R,0.00675X0.00025*%
%ADD185R,0.02800X0.00025*%
%ADD186R,0.03225X0.00025*%
%ADD187R,0.01750X0.00025*%
%ADD188R,0.03275X0.00025*%
%ADD189R,0.00725X0.00025*%
%ADD190R,0.01575X0.00025*%
%ADD191R,0.03350X0.00025*%
%ADD192R,0.00700X0.00025*%
%ADD193R,0.01550X0.00025*%
%ADD194R,0.01575X0.00025*%
%ADD195R,0.01600X0.00025*%
%ADD196R,0.01500X0.00025*%
%ADD197R,0.01475X0.00025*%
%ADD198R,0.01550X0.00025*%
%ADD199R,0.00625X0.00025*%
%ADD200R,0.01475X0.00025*%
%ADD201R,0.01425X0.00025*%
%ADD202R,0.01450X0.00025*%
%ADD203R,0.01475X0.00025*%
%ADD204R,0.01425X0.00025*%
%ADD205R,0.01425X0.00025*%
%ADD206R,0.00675X0.00025*%
%ADD207R,0.01700X0.00025*%
%ADD208R,0.01425X0.00025*%
%ADD209R,0.00675X0.00025*%
%ADD210R,0.01450X0.00025*%
%ADD211R,0.01650X0.00025*%
%ADD212R,0.01400X0.00025*%
%ADD213R,0.01625X0.00025*%
%ADD214R,0.01400X0.00025*%
%ADD215R,0.01500X0.00025*%
%ADD216R,0.00025X0.00025*%
%ADD217R,0.00625X0.00025*%
%ADD218R,0.01375X0.00025*%
%ADD219R,0.00825X0.00025*%
%ADD220R,0.01375X0.00025*%
%ADD221R,0.00625X0.00025*%
%ADD222R,0.01375X0.00025*%
%ADD223R,0.00775X0.00025*%
%ADD224R,0.01350X0.00025*%
%ADD225R,0.01350X0.00025*%
%ADD226R,0.01025X0.00025*%
%ADD227R,0.00575X0.00025*%
%ADD228R,0.00550X0.00025*%
%ADD229R,0.00475X0.00025*%
%ADD230R,0.01050X0.00025*%
%ADD231R,0.00525X0.00025*%
%ADD232R,0.00500X0.00025*%
%ADD233R,0.01325X0.00025*%
%ADD234R,0.01525X0.00025*%
%ADD235R,0.01300X0.00025*%
%ADD236R,0.01300X0.00025*%
%ADD237R,0.00275X0.00025*%
%ADD238R,0.01075X0.00025*%
%ADD239R,0.00275X0.00025*%
%ADD240R,0.01075X0.00025*%
%ADD241R,0.01675X0.00025*%
%ADD242R,0.01725X0.00025*%
%ADD243R,0.00225X0.00025*%
%ADD244R,0.01800X0.00025*%
%ADD245R,0.01100X0.00025*%
%ADD246R,0.01875X0.00025*%
%ADD247R,0.01325X0.00025*%
%ADD248R,0.01900X0.00025*%
%ADD249R,0.02000X0.00025*%
%ADD250R,0.00525X0.00025*%
%ADD251R,0.01125X0.00025*%
%ADD252R,0.00125X0.00025*%
%ADD253R,0.02725X0.00025*%
%ADD254R,0.01125X0.00025*%
%ADD255R,0.02725X0.00025*%
%ADD256R,0.01150X0.00025*%
%ADD257R,0.02675X0.00025*%
%ADD258R,0.02650X0.00025*%
%ADD259R,0.02650X0.00025*%
%ADD260R,0.01175X0.00025*%
%ADD261R,0.02600X0.00025*%
%ADD262R,0.02600X0.00025*%
%ADD263R,0.01200X0.00025*%
%ADD264R,0.01225X0.00025*%
%ADD265R,0.00375X0.00025*%
%ADD266R,0.02550X0.00025*%
%ADD267R,0.01275X0.00025*%
%ADD268R,0.02550X0.00025*%
%ADD269R,0.00400X0.00025*%
%ADD270R,0.02525X0.00025*%
%ADD271R,0.00425X0.00025*%
%ADD272R,0.02500X0.00025*%
%ADD273R,0.02475X0.00025*%
%ADD274R,0.01525X0.00025*%
%ADD275R,0.02450X0.00025*%
%ADD276R,0.01525X0.00025*%
%ADD277R,0.02425X0.00025*%
%ADD278R,0.01625X0.00025*%
%ADD279R,0.02425X0.00025*%
%ADD280R,0.02400X0.00025*%
%ADD281R,0.01475X0.00025*%
%ADD282R,0.02400X0.00025*%
%ADD283R,0.01575X0.00025*%
%ADD284R,0.02500X0.00025*%
%ADD285R,0.03050X0.00025*%
%ADD286R,0.03075X0.00025*%
%ADD287R,0.02275X0.00025*%
%ADD288R,0.03075X0.00025*%
%ADD289R,0.03075X0.00025*%
%ADD290R,0.02325X0.00025*%
%ADD291R,0.02525X0.00025*%
%ADD292R,0.02350X0.00025*%
%ADD293R,0.03100X0.00025*%
%ADD294R,0.00475X0.00025*%
%ADD295R,0.03125X0.00025*%
%ADD296R,0.03125X0.00025*%
%ADD297R,0.02875X0.00025*%
%ADD298R,0.02625X0.00025*%
%ADD299R,0.02875X0.00025*%
%ADD300R,0.03025X0.00025*%
%ADD301R,0.00575X0.00025*%
%ADD302R,0.03225X0.00025*%
%ADD303R,0.03075X0.00025*%
%ADD304R,0.03300X0.00025*%
%ADD305R,0.03125X0.00025*%
%ADD306R,0.03325X0.00025*%
%ADD307R,0.03375X0.00025*%
%ADD308R,0.03000X0.00025*%
%ADD309R,0.03400X0.00025*%
%ADD310R,0.03400X0.00025*%
%ADD311R,0.03425X0.00025*%
%ADD312R,0.03250X0.00025*%
%ADD313R,0.02950X0.00025*%
%ADD314R,0.03425X0.00025*%
%ADD315R,0.03275X0.00025*%
%ADD316R,0.03450X0.00025*%
%ADD317R,0.02900X0.00025*%
%ADD318R,0.03425X0.00025*%
%ADD319R,0.03325X0.00025*%
%ADD320R,0.03350X0.00025*%
%ADD321R,0.03375X0.00025*%
%ADD322R,0.03500X0.00025*%
%ADD323R,0.03325X0.00025*%
%ADD324R,0.03550X0.00025*%
%ADD325R,0.03625X0.00025*%
%ADD326R,0.02725X0.00025*%
%ADD327R,0.03650X0.00025*%
%ADD328R,0.02700X0.00025*%
%ADD329R,0.01625X0.00025*%
%ADD330R,0.02675X0.00025*%
%ADD331R,0.01675X0.00025*%
%ADD332R,0.03775X0.00025*%
%ADD333R,0.01725X0.00025*%
%ADD334R,0.03825X0.00025*%
%ADD335R,0.01775X0.00025*%
%ADD336R,0.03875X0.00025*%
%ADD337R,0.02925X0.00025*%
%ADD338R,0.01850X0.00025*%
%ADD339R,0.03925X0.00025*%
%ADD340R,0.05875X0.00025*%
%ADD341R,0.02575X0.00025*%
%ADD342R,0.05925X0.00025*%
%ADD343R,0.02575X0.00025*%
%ADD344R,0.06000X0.00025*%
%ADD345R,0.02575X0.00025*%
%ADD346R,0.06025X0.00025*%
%ADD347R,0.06075X0.00025*%
%ADD348R,0.06125X0.00025*%
%ADD349R,0.06200X0.00025*%
%ADD350R,0.06250X0.00025*%
%ADD351R,0.06300X0.00025*%
%ADD352R,0.06350X0.00025*%
%ADD353R,0.02575X0.00025*%
%ADD354R,0.06425X0.00025*%
%ADD355R,0.06450X0.00025*%
%ADD356R,0.02475X0.00025*%
%ADD357R,0.06500X0.00025*%
%ADD358R,0.06550X0.00025*%
%ADD359R,0.06625X0.00025*%
%ADD360R,0.06700X0.00025*%
%ADD361R,0.06775X0.00025*%
%ADD362R,0.02375X0.00025*%
%ADD363R,0.06850X0.00025*%
%ADD364R,0.02375X0.00025*%
%ADD365R,0.06900X0.00025*%
%ADD366R,0.07000X0.00025*%
%ADD367R,0.02350X0.00025*%
%ADD368R,0.02325X0.00025*%
%ADD369R,0.07125X0.00025*%
%ADD370R,0.02300X0.00025*%
%ADD371R,0.09525X0.00025*%
%ADD372R,0.09550X0.00025*%
%ADD373R,0.02250X0.00025*%
%ADD374R,0.09550X0.00025*%
%ADD375R,0.02225X0.00025*%
%ADD376R,0.09600X0.00025*%
%ADD377R,0.02225X0.00025*%
%ADD378R,0.09600X0.00025*%
%ADD379R,0.09625X0.00025*%
%ADD380R,0.02175X0.00025*%
%ADD381R,0.09625X0.00025*%
%ADD382R,0.02150X0.00025*%
%ADD383R,0.09675X0.00025*%
%ADD384R,0.02150X0.00025*%
%ADD385R,0.09675X0.00025*%
%ADD386R,0.02125X0.00025*%
%ADD387R,0.09700X0.00025*%
%ADD388R,0.02100X0.00025*%
%ADD389R,0.09725X0.00025*%
%ADD390R,0.02075X0.00025*%
%ADD391R,0.09750X0.00025*%
%ADD392R,0.02050X0.00025*%
%ADD393R,0.09775X0.00025*%
%ADD394R,0.02050X0.00025*%
%ADD395R,0.09775X0.00025*%
%ADD396R,0.09825X0.00025*%
%ADD397R,0.09825X0.00025*%
%ADD398R,0.09875X0.00025*%
%ADD399R,0.09900X0.00025*%
%ADD400R,0.09900X0.00025*%
%ADD401R,0.09950X0.00025*%
%ADD402R,0.09975X0.00025*%
%ADD403R,0.10025X0.00025*%
%ADD404R,0.10075X0.00025*%
%ADD405R,0.10100X0.00025*%
%ADD406R,0.02125X0.00025*%
%ADD407R,0.02125X0.00025*%
%ADD408R,0.10175X0.00025*%
%ADD409R,0.10200X0.00025*%
%ADD410R,0.02175X0.00025*%
%ADD411R,0.10275X0.00025*%
%ADD412R,0.10325X0.00025*%
%ADD413R,0.10400X0.00025*%
%ADD414R,0.02300X0.00025*%
%ADD415R,0.12725X0.00025*%
%ADD416R,0.12725X0.00025*%
%ADD417R,0.01800X0.00025*%
%ADD418R,0.02025X0.00025*%
%ADD419R,0.12725X0.00025*%
%ADD420R,0.15275X0.00025*%
%ADD421R,0.15325X0.00025*%
%ADD422R,0.15400X0.00025*%
%ADD423R,0.15425X0.00025*%
%ADD424R,0.15475X0.00025*%
%ADD425R,0.15500X0.00025*%
%ADD426R,0.15550X0.00025*%
%ADD427R,0.15600X0.00025*%
%ADD428R,0.15625X0.00025*%
%ADD429R,0.15650X0.00025*%
%ADD430R,0.15675X0.00025*%
%ADD431R,0.15750X0.00025*%
%ADD432R,0.15775X0.00025*%
%ADD433R,0.15800X0.00025*%
%ADD434R,0.15800X0.00025*%
%ADD435R,0.15825X0.00025*%
%ADD436R,0.15875X0.00025*%
%ADD437R,0.15900X0.00025*%
%ADD438R,0.15925X0.00025*%
%ADD439R,0.15925X0.00025*%
%ADD440R,0.03700X0.00025*%
%ADD441R,0.12250X0.00025*%
%ADD442R,0.12250X0.00025*%
%ADD443R,0.03725X0.00025*%
%ADD444R,0.12225X0.00025*%
%ADD445R,0.03775X0.00025*%
%ADD446R,0.02025X0.00025*%
%ADD447R,0.02075X0.00025*%
%ADD448R,0.02075X0.00025*%
%ADD449R,0.12225X0.00025*%
%ADD450R,0.12200X0.00025*%
%ADD451R,0.12225X0.00025*%
%ADD452R,0.12175X0.00025*%
%ADD453R,0.12175X0.00025*%
%ADD454R,0.02175X0.00025*%
%ADD455R,0.09675X0.00025*%
%ADD456R,0.02200X0.00025*%
%ADD457R,0.00325X0.00025*%
%ADD458R,0.02225X0.00025*%
%ADD459R,0.09375X0.00025*%
%ADD460R,0.09175X0.00025*%
%ADD461R,0.00525X0.00025*%
%ADD462R,0.00975X0.00025*%
%ADD463R,0.08975X0.00025*%
%ADD464R,0.08775X0.00025*%
%ADD465R,0.08225X0.00025*%
%ADD466R,0.01275X0.00025*%
%ADD467R,0.00925X0.00025*%
%ADD468R,0.07000X0.00025*%
%ADD469R,0.06700X0.00025*%
%ADD470R,0.06400X0.00025*%
%ADD471R,0.06275X0.00025*%
%ADD472R,0.06150X0.00025*%
%ADD473R,0.06050X0.00025*%
%ADD474R,0.05950X0.00025*%
%ADD475R,0.05875X0.00025*%
%ADD476R,0.00975X0.00025*%
%ADD477R,0.03625X0.00025*%
%ADD478R,0.05775X0.00025*%
%ADD479R,0.03950X0.00025*%
%ADD480R,0.05675X0.00025*%
%ADD481R,0.04225X0.00025*%
%ADD482R,0.05600X0.00025*%
%ADD483R,0.04325X0.00025*%
%ADD484R,0.05550X0.00025*%
%ADD485R,0.04425X0.00025*%
%ADD486R,0.05475X0.00025*%
%ADD487R,0.04500X0.00025*%
%ADD488R,0.05400X0.00025*%
%ADD489R,0.00925X0.00025*%
%ADD490R,0.05300X0.00025*%
%ADD491R,0.04625X0.00025*%
%ADD492R,0.05225X0.00025*%
%ADD493R,0.04675X0.00025*%
%ADD494R,0.05175X0.00025*%
%ADD495R,0.04725X0.00025*%
%ADD496R,0.05100X0.00025*%
%ADD497R,0.04750X0.00025*%
%ADD498R,0.05025X0.00025*%
%ADD499R,0.04800X0.00025*%
%ADD500R,0.04975X0.00025*%
%ADD501R,0.04825X0.00025*%
%ADD502R,0.04900X0.00025*%
%ADD503R,0.04850X0.00025*%
%ADD504R,0.04875X0.00025*%
%ADD505R,0.04875X0.00025*%
%ADD506R,0.04675X0.00025*%
%ADD507R,0.01525X0.00025*%
%ADD508R,0.04925X0.00025*%
%ADD509R,0.04525X0.00025*%
%ADD510R,0.04950X0.00025*%
%ADD511R,0.04475X0.00025*%
%ADD512R,0.00375X0.00025*%
%ADD513R,0.04950X0.00025*%
%ADD514R,0.04425X0.00025*%
%ADD515R,0.04975X0.00025*%
%ADD516R,0.04500X0.00025*%
%ADD517R,0.00375X0.00025*%
%ADD518R,0.05000X0.00025*%
%ADD519R,0.01650X0.00025*%
%ADD520R,0.05125X0.00025*%
%ADD521R,0.00725X0.00025*%
%ADD522R,0.05025X0.00025*%
%ADD523R,0.01125X0.00025*%
%ADD524R,0.05050X0.00025*%
%ADD525R,0.04925X0.00025*%
%ADD526R,0.05050X0.00025*%
%ADD527R,0.04825X0.00025*%
%ADD528R,0.03575X0.00025*%
%ADD529R,0.04650X0.00025*%
%ADD530R,0.04450X0.00025*%
%ADD531R,0.04375X0.00025*%
%ADD532R,0.00975X0.00025*%
%ADD533R,0.04175X0.00025*%
%ADD534R,0.04100X0.00025*%
%ADD535R,0.04025X0.00025*%
%ADD536R,0.03175X0.00025*%
%ADD537R,0.03175X0.00025*%
%ADD538R,0.03700X0.00025*%
%ADD539R,0.03625X0.00025*%
%ADD540R,0.00875X0.00025*%
%ADD541R,0.02825X0.00025*%
%ADD542R,0.03575X0.00025*%
%ADD543R,0.00875X0.00025*%
%ADD544R,0.01175X0.00025*%
%ADD545R,0.03500X0.00025*%
%ADD546R,0.01875X0.00025*%
%ADD547R,0.01950X0.00025*%
%ADD548R,0.01775X0.00025*%
%ADD549R,0.03275X0.00025*%
%ADD550R,0.02125X0.00025*%
%ADD551R,0.02325X0.00025*%
%ADD552R,0.02975X0.00025*%
%ADD553R,0.01375X0.00025*%
%ADD554R,0.02375X0.00025*%
%ADD555R,0.02025X0.00025*%
%ADD556R,0.02825X0.00025*%
%ADD557R,0.03575X0.00025*%
%ADD558R,0.02025X0.00025*%
%ADD559R,0.04200X0.00025*%
%ADD560R,0.04400X0.00025*%
%ADD561R,0.02250X0.00025*%
%ADD562R,0.01925X0.00025*%
%ADD563R,0.02175X0.00025*%
%ADD564R,0.02775X0.00025*%
%ADD565R,0.04575X0.00025*%
%ADD566R,0.04575X0.00025*%
%ADD567R,0.01825X0.00025*%
%ADD568R,0.04525X0.00025*%
%ADD569R,0.01775X0.00025*%
%ADD570R,0.04375X0.00025*%
%ADD571R,0.04325X0.00025*%
%ADD572R,0.04050X0.00025*%
%ADD573R,0.02775X0.00025*%
%ADD574R,0.03925X0.00025*%
%ADD575R,0.03875X0.00025*%
%ADD576R,0.03800X0.00025*%
%ADD577R,0.03675X0.00025*%
%ADD578R,0.03625X0.00025*%
%ADD579R,0.03600X0.00025*%
%ADD580R,0.02875X0.00025*%
%ADD581R,0.03475X0.00025*%
%ADD582R,0.03375X0.00025*%
%ADD583R,0.03025X0.00025*%
%ADD584R,0.02950X0.00025*%
%ADD585R,0.02325X0.00025*%
%ADD586R,0.01875X0.00025*%
%ADD587R,0.01925X0.00025*%
%ADD588R,0.01250X0.00025*%
%ADD589R,0.01900X0.00025*%
%ADD590R,0.01875X0.00025*%
%ADD591R,0.02075X0.00025*%
%ADD592R,0.01700X0.00025*%
%ADD593R,0.01675X0.00025*%
%ADD594R,0.01725X0.00025*%
%ADD595R,0.01750X0.00025*%
%ADD596R,0.03925X0.00025*%
%ADD597R,0.01850X0.00025*%
%ADD598R,0.04775X0.00025*%
%ADD599R,0.02525X0.00025*%
%ADD600R,0.01975X0.00025*%
%ADD601R,0.02475X0.00025*%
%ADD602R,0.05025X0.00025*%
%ADD603R,0.05100X0.00025*%
%ADD604R,0.05175X0.00025*%
%ADD605R,0.05275X0.00025*%
%ADD606R,0.05350X0.00025*%
%ADD607R,0.05375X0.00025*%
%ADD608R,0.05075X0.00025*%
%ADD609R,0.04725X0.00025*%
%ADD610R,0.02000X0.00025*%
%ADD611R,0.04325X0.00025*%
%ADD612R,0.01975X0.00025*%
%ADD613R,0.04225X0.00025*%
%ADD614R,0.04125X0.00025*%
%ADD615R,0.04050X0.00025*%
%ADD616R,0.03975X0.00025*%
%ADD617R,0.03325X0.00025*%
%ADD618R,0.02875X0.00025*%
%ADD619R,0.01825X0.00025*%
%ADD620R,0.01825X0.00025*%
%ADD621R,0.02275X0.00025*%
%ADD622R,0.00475X0.00025*%
%ADD623R,0.05175X0.00025*%
%ADD624R,0.05325X0.00025*%
%ADD625R,0.05975X0.00025*%
%ADD626R,0.01725X0.00025*%
%ADD627R,0.06000X0.00025*%
%ADD628R,0.04125X0.00025*%
%ADD629R,0.01675X0.00025*%
%ADD630R,0.00025X0.00025*%
%ADD631R,0.01625X0.00025*%
%ADD632R,0.01775X0.00025*%
%ADD633R,0.04175X0.00025*%
%ADD634C,0.00394*%
%ADD635C,0.00512*%
%ADD636C,0.00600*%
%ADD637C,0.00000*%
D10*
X0255982Y0306734D03*
X0256082Y0306984D03*
X0261532Y0304634D03*
X0263732Y0313034D03*
X0262332Y0317034D03*
X0249989Y0314308D03*
X0249389Y0313308D03*
X0248939Y0312708D03*
X0247132Y0312884D03*
D11*
X0248951Y0312733D03*
X0249376Y0313333D03*
X0249976Y0314333D03*
X0245651Y0315483D03*
X0246351Y0320333D03*
X0259470Y0316009D03*
X0260770Y0315709D03*
X0263770Y0313109D03*
X0263745Y0313059D03*
X0261720Y0306609D03*
X0261995Y0305609D03*
X0261545Y0304659D03*
X0255945Y0306759D03*
D12*
X0256432Y0306084D03*
X0261532Y0304684D03*
X0261982Y0305634D03*
X0260782Y0315734D03*
X0259332Y0315684D03*
D13*
X0262295Y0317009D03*
X0263770Y0313159D03*
X0261970Y0305659D03*
X0261545Y0304709D03*
X0256420Y0306109D03*
X0255445Y0315909D03*
X0249951Y0314383D03*
X0249351Y0313383D03*
X0244676Y0312933D03*
D14*
X0245764Y0315533D03*
X0249064Y0319883D03*
X0251814Y0313183D03*
X0260857Y0315809D03*
X0260757Y0304709D03*
D15*
X0261545Y0304734D03*
X0261695Y0306634D03*
X0256045Y0307034D03*
X0255895Y0306784D03*
X0256070Y0305184D03*
X0248951Y0312808D03*
X0248726Y0313358D03*
X0249951Y0314408D03*
X0251301Y0313108D03*
X0255520Y0314534D03*
X0255845Y0313634D03*
X0261070Y0317234D03*
X0246351Y0320308D03*
X0244770Y0316234D03*
X0244970Y0313034D03*
X0244676Y0312908D03*
D16*
X0245120Y0313284D03*
X0246145Y0313584D03*
X0246145Y0313634D03*
X0246120Y0313734D03*
X0246095Y0313834D03*
X0251826Y0313208D03*
X0255645Y0314634D03*
X0260945Y0315934D03*
X0262020Y0314634D03*
X0261945Y0313834D03*
X0261420Y0306134D03*
X0261470Y0304934D03*
X0260770Y0304734D03*
X0256020Y0307334D03*
D17*
X0256020Y0307109D03*
X0256370Y0306159D03*
X0261545Y0304759D03*
X0261945Y0305709D03*
X0262745Y0311359D03*
X0263745Y0313209D03*
X0259595Y0314509D03*
X0255870Y0313659D03*
X0255545Y0314559D03*
X0249951Y0314483D03*
X0244995Y0313059D03*
X0244820Y0316159D03*
D18*
X0248982Y0317159D03*
X0249989Y0314883D03*
X0248839Y0313783D03*
X0255682Y0314659D03*
X0261282Y0305659D03*
X0260782Y0304759D03*
D19*
X0261532Y0304784D03*
X0261932Y0305734D03*
X0261632Y0306684D03*
X0257582Y0305584D03*
X0260832Y0315784D03*
X0249939Y0314508D03*
X0248482Y0317734D03*
X0248432Y0317784D03*
X0248382Y0317834D03*
X0248332Y0317884D03*
X0248132Y0318134D03*
X0248689Y0320058D03*
X0244832Y0316134D03*
D20*
X0245095Y0315684D03*
X0248001Y0313758D03*
X0250020Y0317934D03*
X0255720Y0314684D03*
X0261020Y0316034D03*
X0261970Y0314034D03*
X0263070Y0314484D03*
X0262220Y0311384D03*
X0260370Y0307834D03*
X0260795Y0304784D03*
X0256095Y0307484D03*
X0254345Y0305334D03*
D21*
X0256320Y0306209D03*
X0256020Y0307159D03*
X0261520Y0304809D03*
X0261895Y0305759D03*
X0245020Y0313109D03*
X0244845Y0316109D03*
X0248145Y0318109D03*
X0248220Y0318009D03*
X0248270Y0317959D03*
X0248320Y0317909D03*
X0248545Y0317659D03*
X0248645Y0317559D03*
X0248695Y0317509D03*
X0246326Y0320233D03*
D22*
X0249095Y0317009D03*
X0248701Y0314433D03*
X0247976Y0313733D03*
X0245245Y0313609D03*
X0245145Y0315609D03*
X0258470Y0317709D03*
X0261045Y0316059D03*
X0261970Y0314409D03*
X0261970Y0314359D03*
X0261970Y0314109D03*
X0262220Y0311759D03*
X0262245Y0311459D03*
X0260220Y0308009D03*
X0260245Y0307959D03*
X0260895Y0306609D03*
X0261395Y0306109D03*
X0260795Y0304809D03*
X0259320Y0314659D03*
D23*
X0263082Y0312959D03*
X0262032Y0305559D03*
X0257632Y0304909D03*
X0256982Y0304909D03*
X0248939Y0312683D03*
X0244932Y0312959D03*
X0244732Y0316309D03*
D24*
X0244870Y0316084D03*
X0247370Y0314834D03*
X0249251Y0313458D03*
X0249951Y0314558D03*
X0248670Y0317534D03*
X0248620Y0317584D03*
X0248570Y0317634D03*
X0248520Y0317684D03*
X0248295Y0317934D03*
X0248245Y0317984D03*
X0248170Y0318084D03*
X0258520Y0317784D03*
X0256020Y0307134D03*
X0257620Y0304934D03*
X0261520Y0304834D03*
D25*
X0260820Y0304834D03*
X0260845Y0306484D03*
X0260870Y0306534D03*
X0261145Y0306884D03*
X0260170Y0308134D03*
X0262270Y0311584D03*
X0262245Y0311634D03*
X0262245Y0311684D03*
X0261970Y0314234D03*
X0261970Y0314284D03*
X0261970Y0314334D03*
X0261045Y0316084D03*
X0259420Y0316434D03*
X0251801Y0313658D03*
X0248701Y0314408D03*
X0247951Y0313708D03*
X0247120Y0313534D03*
X0245270Y0313684D03*
X0250145Y0317784D03*
X0256145Y0307534D03*
D26*
X0256020Y0307209D03*
X0255920Y0306409D03*
X0261570Y0306709D03*
X0261520Y0304859D03*
X0260895Y0315859D03*
X0251351Y0313233D03*
X0247470Y0314809D03*
X0244895Y0316009D03*
X0245045Y0313159D03*
X0248795Y0317409D03*
X0248745Y0317459D03*
X0246326Y0320183D03*
D27*
X0247489Y0320133D03*
X0247539Y0320483D03*
X0249182Y0316909D03*
X0248289Y0313933D03*
X0245332Y0313909D03*
X0245232Y0315459D03*
X0255382Y0306759D03*
X0256182Y0307559D03*
X0260132Y0308259D03*
X0260832Y0304859D03*
X0262082Y0313459D03*
X0262132Y0313609D03*
X0262532Y0313859D03*
X0262582Y0313909D03*
X0262632Y0314009D03*
X0259132Y0314859D03*
X0259032Y0315009D03*
D28*
X0259207Y0315584D03*
X0259157Y0316234D03*
X0256007Y0307234D03*
X0261507Y0304884D03*
X0247557Y0314784D03*
X0248857Y0317334D03*
X0248807Y0317384D03*
X0245057Y0313184D03*
D29*
X0245282Y0315384D03*
X0248689Y0314358D03*
X0247439Y0320058D03*
X0247489Y0320608D03*
X0261732Y0316734D03*
X0262832Y0314234D03*
X0262082Y0313384D03*
X0260132Y0308284D03*
X0260832Y0304884D03*
X0255282Y0306584D03*
D30*
X0256095Y0305134D03*
X0262020Y0305584D03*
X0263745Y0313084D03*
X0263770Y0313134D03*
X0263520Y0314234D03*
X0251326Y0313058D03*
X0248951Y0312758D03*
X0248576Y0313258D03*
X0248351Y0313258D03*
X0244945Y0312984D03*
X0244676Y0312858D03*
X0244745Y0316284D03*
X0248576Y0320008D03*
X0248901Y0319858D03*
D31*
X0248882Y0317309D03*
X0246339Y0320133D03*
X0259432Y0316359D03*
X0260932Y0315909D03*
X0262032Y0314659D03*
X0261832Y0305809D03*
X0261482Y0304909D03*
X0256032Y0307309D03*
D32*
X0255257Y0306509D03*
X0260857Y0304909D03*
X0261407Y0311709D03*
X0253807Y0313959D03*
X0248714Y0314333D03*
X0249257Y0316809D03*
X0247414Y0320033D03*
X0245307Y0315359D03*
D33*
X0244757Y0316259D03*
X0244957Y0313009D03*
X0244664Y0312883D03*
X0248964Y0312783D03*
X0251314Y0313083D03*
X0256057Y0307009D03*
X0254407Y0305309D03*
D34*
X0248364Y0312783D03*
X0247657Y0314759D03*
X0249964Y0314783D03*
X0248907Y0317259D03*
X0244957Y0315909D03*
X0245107Y0313259D03*
X0259157Y0315559D03*
X0261957Y0313809D03*
D35*
X0262207Y0313684D03*
X0260407Y0306084D03*
X0260857Y0304934D03*
X0249314Y0320358D03*
X0246814Y0319408D03*
D36*
X0249964Y0314358D03*
X0249364Y0313358D03*
X0257007Y0304934D03*
D37*
X0255620Y0305234D03*
X0260520Y0307734D03*
X0262120Y0311884D03*
X0263395Y0313634D03*
X0253920Y0313834D03*
X0250001Y0314908D03*
X0248351Y0312808D03*
X0245995Y0314034D03*
X0245195Y0313434D03*
X0245070Y0315734D03*
X0246351Y0320058D03*
X0249001Y0320208D03*
X0249995Y0317984D03*
D38*
X0250545Y0317209D03*
X0246826Y0315133D03*
X0245595Y0314109D03*
X0253570Y0314109D03*
X0253770Y0312909D03*
X0254770Y0314359D03*
X0261645Y0312509D03*
X0259895Y0308359D03*
X0261045Y0304959D03*
D39*
X0257607Y0304959D03*
X0257057Y0305059D03*
X0253107Y0307609D03*
X0255607Y0314609D03*
X0258607Y0315609D03*
X0262107Y0316909D03*
D40*
X0260807Y0315759D03*
X0259307Y0315659D03*
X0262357Y0311109D03*
X0261657Y0306659D03*
X0261407Y0306159D03*
X0257007Y0304959D03*
X0256057Y0305209D03*
X0251314Y0313133D03*
X0249964Y0314433D03*
X0247257Y0314859D03*
D41*
X0248939Y0312833D03*
X0244782Y0316209D03*
X0246339Y0320283D03*
X0248639Y0320033D03*
X0256032Y0307059D03*
D42*
X0262257Y0311509D03*
X0262257Y0311559D03*
X0261957Y0314159D03*
X0261957Y0314209D03*
X0248364Y0312833D03*
X0245257Y0313659D03*
X0246414Y0319983D03*
D43*
X0249151Y0320283D03*
X0250120Y0317809D03*
X0249145Y0316959D03*
X0245170Y0315559D03*
X0245270Y0313709D03*
X0246901Y0312833D03*
X0259270Y0314709D03*
X0261970Y0314309D03*
X0261970Y0314259D03*
X0263070Y0314459D03*
X0262245Y0311659D03*
X0262270Y0311609D03*
X0262395Y0311209D03*
X0260170Y0308109D03*
X0260195Y0308059D03*
X0260845Y0306509D03*
D44*
X0256457Y0306059D03*
X0256107Y0305109D03*
X0244664Y0312833D03*
X0255507Y0314509D03*
X0255807Y0313609D03*
X0258607Y0315659D03*
D45*
X0261182Y0316434D03*
X0261332Y0316584D03*
X0263232Y0313384D03*
X0256382Y0318084D03*
X0261032Y0304984D03*
D46*
X0261307Y0305634D03*
X0257607Y0304984D03*
X0259507Y0314534D03*
X0261957Y0313784D03*
X0262057Y0316884D03*
X0251764Y0313708D03*
X0249964Y0314808D03*
D47*
X0249951Y0314458D03*
X0248726Y0314508D03*
X0251301Y0313158D03*
X0245701Y0315508D03*
X0246326Y0320258D03*
X0258620Y0315634D03*
X0259270Y0315634D03*
X0263745Y0313234D03*
X0257020Y0304984D03*
D48*
X0256357Y0306184D03*
X0248914Y0312858D03*
X0251314Y0313208D03*
X0245007Y0313084D03*
D49*
X0245320Y0313834D03*
X0245220Y0315484D03*
X0248476Y0314158D03*
X0248376Y0312858D03*
X0255345Y0306734D03*
X0257595Y0305534D03*
X0260620Y0306234D03*
X0260695Y0306284D03*
X0260745Y0306334D03*
X0260795Y0306384D03*
X0260820Y0306434D03*
X0262395Y0311234D03*
X0262095Y0313484D03*
X0262095Y0313534D03*
X0262120Y0313584D03*
X0262470Y0313784D03*
X0262645Y0314034D03*
X0262670Y0314084D03*
X0262695Y0314134D03*
X0262745Y0314184D03*
X0259195Y0314784D03*
X0247526Y0320208D03*
X0247551Y0320358D03*
X0247551Y0320408D03*
X0247551Y0320458D03*
X0247526Y0320508D03*
D50*
X0246889Y0312858D03*
X0261382Y0311534D03*
X0261382Y0311484D03*
X0261382Y0311434D03*
D51*
X0261157Y0310959D03*
X0261007Y0305009D03*
X0259557Y0305059D03*
X0247057Y0313459D03*
X0245607Y0314059D03*
X0245557Y0315009D03*
X0246864Y0319533D03*
X0256557Y0317859D03*
D52*
X0259545Y0315959D03*
X0259170Y0314809D03*
X0262095Y0313509D03*
X0262695Y0314109D03*
X0262720Y0314159D03*
X0262770Y0314209D03*
X0261795Y0316759D03*
X0250195Y0317709D03*
X0247526Y0320183D03*
X0247551Y0320333D03*
X0247551Y0320383D03*
X0247551Y0320433D03*
X0245195Y0315509D03*
X0245320Y0313859D03*
X0248226Y0313883D03*
X0248451Y0314133D03*
X0248501Y0314183D03*
X0248551Y0314233D03*
X0248701Y0314383D03*
X0248801Y0313733D03*
X0255345Y0306709D03*
X0259495Y0305009D03*
X0260495Y0306159D03*
X0260570Y0306209D03*
X0260720Y0306309D03*
X0260770Y0306359D03*
X0260145Y0308209D03*
D53*
X0257595Y0305009D03*
X0255620Y0305209D03*
X0255970Y0313709D03*
X0255570Y0315959D03*
X0259470Y0314559D03*
X0246145Y0313659D03*
X0246145Y0313609D03*
X0246145Y0313559D03*
X0246120Y0313709D03*
X0246120Y0313759D03*
X0244995Y0315859D03*
D54*
X0249289Y0313433D03*
X0249939Y0314533D03*
X0251789Y0313733D03*
X0257032Y0305009D03*
X0263732Y0313259D03*
D55*
X0255057Y0313609D03*
X0248514Y0312883D03*
X0247207Y0314209D03*
X0245364Y0320033D03*
X0245414Y0320183D03*
D56*
X0245526Y0320383D03*
X0245501Y0319283D03*
X0246651Y0314633D03*
X0246626Y0314583D03*
X0246626Y0314533D03*
X0246626Y0314483D03*
X0246901Y0312883D03*
X0253645Y0314059D03*
X0254945Y0313959D03*
X0254970Y0313909D03*
X0255370Y0312259D03*
X0257445Y0305159D03*
D57*
X0260995Y0305034D03*
X0261670Y0312534D03*
X0254720Y0314434D03*
X0256570Y0317834D03*
X0246851Y0315208D03*
X0245570Y0314984D03*
D58*
X0245420Y0315184D03*
X0246601Y0314358D03*
X0246601Y0313808D03*
X0246601Y0313758D03*
X0247695Y0312884D03*
X0248476Y0312908D03*
X0254995Y0313834D03*
X0255020Y0313784D03*
X0255020Y0313734D03*
X0255045Y0313684D03*
X0255345Y0312284D03*
X0261270Y0311134D03*
X0261170Y0306734D03*
X0259520Y0305034D03*
X0257670Y0305484D03*
X0257420Y0305134D03*
X0245401Y0320158D03*
X0245426Y0320208D03*
D59*
X0245045Y0315784D03*
X0245201Y0313408D03*
X0245145Y0313334D03*
X0249976Y0314858D03*
X0248970Y0317184D03*
X0249945Y0318034D03*
X0259420Y0316384D03*
X0261995Y0312084D03*
X0262095Y0311934D03*
X0260620Y0307684D03*
X0257595Y0305034D03*
X0256045Y0307384D03*
D60*
X0256032Y0305234D03*
X0257032Y0305034D03*
X0261182Y0306934D03*
X0263082Y0314534D03*
X0260882Y0315834D03*
X0255582Y0314584D03*
X0254182Y0313034D03*
X0249939Y0314608D03*
D61*
X0250532Y0317234D03*
X0246789Y0315058D03*
X0245532Y0315034D03*
X0245582Y0314184D03*
X0246889Y0312908D03*
X0245689Y0320608D03*
X0254782Y0314334D03*
X0258332Y0317484D03*
D62*
X0262257Y0316984D03*
X0262257Y0314784D03*
X0263757Y0313184D03*
X0261957Y0305684D03*
X0256407Y0306134D03*
X0249314Y0313408D03*
X0249064Y0314258D03*
X0245114Y0312908D03*
X0244807Y0316184D03*
D63*
X0245814Y0320683D03*
X0249507Y0316459D03*
X0257907Y0307159D03*
X0258057Y0306909D03*
X0258157Y0306759D03*
X0260957Y0305059D03*
X0261107Y0310909D03*
D64*
X0260482Y0307759D03*
X0257582Y0305559D03*
X0257582Y0305059D03*
X0255532Y0306909D03*
X0254082Y0313009D03*
X0245082Y0315709D03*
D65*
X0246614Y0314433D03*
X0246614Y0314383D03*
X0248464Y0312933D03*
X0250457Y0317359D03*
X0249464Y0320433D03*
X0245464Y0319333D03*
X0255007Y0313809D03*
X0261257Y0311109D03*
X0263007Y0314259D03*
D66*
X0261182Y0316459D03*
X0256582Y0317809D03*
X0246889Y0312933D03*
D67*
X0246157Y0313459D03*
X0246157Y0313509D03*
X0246107Y0313809D03*
X0245064Y0312933D03*
X0249964Y0314833D03*
X0248957Y0317209D03*
X0262007Y0316859D03*
X0261957Y0313859D03*
X0262007Y0312059D03*
D68*
X0257370Y0316484D03*
X0257270Y0316434D03*
X0248651Y0316608D03*
X0260245Y0305084D03*
D69*
X0257370Y0305084D03*
X0261345Y0311284D03*
X0263345Y0313534D03*
X0261095Y0316234D03*
X0255145Y0313084D03*
X0255145Y0313034D03*
X0255145Y0312984D03*
X0255145Y0312934D03*
X0255145Y0312884D03*
X0255220Y0312484D03*
X0245101Y0313158D03*
X0245376Y0319558D03*
X0245351Y0319708D03*
D70*
X0246451Y0319958D03*
X0247476Y0320108D03*
X0247501Y0320558D03*
X0250220Y0317684D03*
X0248601Y0314258D03*
X0248401Y0314058D03*
X0248376Y0314008D03*
X0248326Y0313958D03*
X0248801Y0313708D03*
X0245345Y0313984D03*
X0244951Y0312958D03*
X0245245Y0315434D03*
X0253845Y0313934D03*
X0253995Y0312984D03*
X0259020Y0315034D03*
X0262070Y0313434D03*
X0262595Y0313934D03*
X0263370Y0313584D03*
X0261370Y0306084D03*
X0255520Y0306834D03*
X0255445Y0306784D03*
X0255295Y0306634D03*
D71*
X0256957Y0307859D03*
X0260207Y0305109D03*
X0257507Y0314009D03*
X0256957Y0316259D03*
X0250207Y0314309D03*
X0248614Y0316583D03*
D72*
X0250420Y0317409D03*
X0246851Y0319433D03*
X0245426Y0319383D03*
X0245401Y0319433D03*
X0245351Y0319933D03*
X0245351Y0319983D03*
X0245376Y0320083D03*
X0245395Y0315209D03*
X0255070Y0313559D03*
X0255095Y0313459D03*
X0255120Y0313359D03*
X0261320Y0311209D03*
X0263320Y0313509D03*
X0261545Y0316659D03*
X0257395Y0305109D03*
D73*
X0251789Y0313333D03*
X0248389Y0312983D03*
X0246789Y0315083D03*
X0245582Y0314159D03*
D74*
X0246976Y0312983D03*
X0249620Y0316309D03*
X0250670Y0316959D03*
X0246926Y0319833D03*
X0259245Y0316909D03*
X0259345Y0317009D03*
X0259795Y0308509D03*
D75*
X0261407Y0312059D03*
X0247914Y0313683D03*
X0245357Y0314009D03*
X0244964Y0312983D03*
X0245257Y0315409D03*
X0247464Y0320083D03*
D76*
X0252301Y0316208D03*
X0247501Y0313058D03*
X0247451Y0313108D03*
X0247401Y0313158D03*
X0258220Y0313034D03*
X0260170Y0305134D03*
D77*
X0256932Y0307884D03*
X0258182Y0313084D03*
X0258082Y0313234D03*
X0252339Y0316258D03*
X0248589Y0316558D03*
X0247539Y0313008D03*
D78*
X0244976Y0313008D03*
X0249245Y0316834D03*
X0250295Y0317584D03*
X0247476Y0320658D03*
X0259845Y0317534D03*
X0258970Y0315084D03*
X0261395Y0312034D03*
X0261395Y0311984D03*
X0261395Y0311934D03*
X0261395Y0311884D03*
X0261395Y0311834D03*
X0261395Y0311784D03*
X0261395Y0311734D03*
X0262395Y0311284D03*
X0263045Y0314384D03*
X0261145Y0306834D03*
X0255270Y0306534D03*
X0255220Y0306434D03*
D79*
X0260120Y0305159D03*
D80*
X0256082Y0305159D03*
X0255632Y0305159D03*
X0249089Y0314233D03*
X0261132Y0317209D03*
D81*
X0258170Y0313109D03*
X0258220Y0313009D03*
X0250370Y0314259D03*
X0249945Y0315759D03*
X0248551Y0316533D03*
X0247426Y0313133D03*
X0247476Y0313083D03*
X0247526Y0313033D03*
X0254445Y0305909D03*
D82*
X0255220Y0306409D03*
X0257620Y0305509D03*
X0261395Y0311559D03*
X0261395Y0311609D03*
X0261395Y0311659D03*
X0262395Y0311309D03*
X0261670Y0316709D03*
X0251826Y0313633D03*
X0248801Y0313683D03*
X0245001Y0313033D03*
X0250320Y0317559D03*
D83*
X0248426Y0316458D03*
X0251501Y0315508D03*
X0252151Y0316058D03*
X0256845Y0307984D03*
X0260070Y0305184D03*
D84*
X0257495Y0305184D03*
X0259945Y0308334D03*
X0261595Y0312184D03*
X0261595Y0312234D03*
X0261595Y0312284D03*
X0261595Y0312334D03*
X0260920Y0316184D03*
X0261170Y0316384D03*
X0256520Y0317984D03*
X0256495Y0318034D03*
X0250495Y0317284D03*
X0249420Y0316584D03*
X0246726Y0314908D03*
X0246701Y0314858D03*
X0246676Y0314758D03*
X0245545Y0314334D03*
X0247070Y0313484D03*
X0245551Y0319208D03*
X0255445Y0312184D03*
D85*
X0255920Y0313684D03*
X0249951Y0314658D03*
X0248770Y0317434D03*
X0244920Y0315984D03*
X0244895Y0316034D03*
X0245045Y0313134D03*
X0255620Y0305184D03*
X0261870Y0305784D03*
D86*
X0261370Y0311384D03*
X0253770Y0313984D03*
X0250370Y0317484D03*
X0245345Y0315284D03*
X0245026Y0313058D03*
X0255695Y0305334D03*
D87*
X0259245Y0305209D03*
X0252001Y0319783D03*
D88*
X0253732Y0314009D03*
X0255182Y0312609D03*
X0245039Y0313083D03*
D89*
X0250582Y0314884D03*
X0259232Y0305234D03*
D90*
X0261157Y0306784D03*
X0261357Y0311334D03*
X0261607Y0316684D03*
X0255157Y0312834D03*
X0255157Y0312784D03*
X0255157Y0312734D03*
X0255157Y0312684D03*
X0255207Y0312534D03*
X0255657Y0305384D03*
X0249307Y0316734D03*
X0245064Y0313108D03*
D91*
X0251845Y0313309D03*
X0251845Y0313409D03*
X0257770Y0311659D03*
X0259220Y0305259D03*
D92*
X0255732Y0305259D03*
X0255232Y0306459D03*
X0255532Y0306809D03*
X0262082Y0313359D03*
X0262182Y0313659D03*
D93*
X0262245Y0313709D03*
X0261345Y0311309D03*
X0258870Y0315159D03*
X0261120Y0316259D03*
X0255145Y0313059D03*
X0255145Y0313009D03*
X0255145Y0312959D03*
X0255145Y0312909D03*
X0255195Y0312559D03*
X0255220Y0312509D03*
X0255620Y0305409D03*
X0245076Y0313133D03*
X0250395Y0317459D03*
X0249376Y0320383D03*
D94*
X0259207Y0305284D03*
D95*
X0255720Y0305284D03*
X0261395Y0311584D03*
X0261395Y0311634D03*
X0262395Y0311334D03*
X0258920Y0315134D03*
X0250345Y0317534D03*
X0249270Y0316784D03*
X0248701Y0314308D03*
X0245320Y0315334D03*
X0247401Y0320008D03*
X0247426Y0320708D03*
D96*
X0251757Y0313509D03*
X0259207Y0305309D03*
D97*
X0261157Y0306809D03*
X0255707Y0305309D03*
X0263357Y0313559D03*
X0250357Y0317509D03*
X0247364Y0319983D03*
D98*
X0248357Y0317859D03*
X0248407Y0317809D03*
X0248457Y0317759D03*
X0248507Y0317709D03*
X0248607Y0317609D03*
X0251314Y0313183D03*
X0262207Y0316959D03*
X0260707Y0307659D03*
D99*
X0258207Y0313059D03*
X0258107Y0313209D03*
X0252314Y0316233D03*
X0247364Y0313183D03*
D100*
X0247057Y0313509D03*
X0245114Y0313183D03*
X0247014Y0317783D03*
X0245364Y0319583D03*
X0245364Y0319633D03*
X0245364Y0319683D03*
X0255107Y0313409D03*
X0255257Y0312409D03*
X0261157Y0306759D03*
D101*
X0259195Y0305334D03*
D102*
X0258120Y0313184D03*
X0258070Y0313284D03*
X0256995Y0316284D03*
X0257145Y0316384D03*
X0251895Y0314684D03*
X0250295Y0314284D03*
X0247326Y0313208D03*
D103*
X0245151Y0313208D03*
X0249345Y0316684D03*
X0251676Y0313258D03*
X0255095Y0313434D03*
X0255095Y0313484D03*
X0255120Y0313384D03*
X0255120Y0313334D03*
X0255270Y0312384D03*
X0261320Y0311234D03*
X0261120Y0316284D03*
X0245401Y0319458D03*
X0245351Y0319958D03*
X0245351Y0320008D03*
X0245376Y0320058D03*
D104*
X0250745Y0314859D03*
X0259195Y0305359D03*
D105*
X0261345Y0306059D03*
X0261370Y0311359D03*
X0261370Y0311409D03*
X0255170Y0312659D03*
X0249295Y0316759D03*
X0258395Y0317609D03*
X0255670Y0305359D03*
D106*
X0254295Y0305359D03*
X0261395Y0311759D03*
X0261395Y0311809D03*
X0261395Y0311859D03*
X0261395Y0311909D03*
X0261395Y0311959D03*
X0261395Y0312009D03*
X0258945Y0315109D03*
X0249251Y0320333D03*
X0247476Y0320633D03*
X0247451Y0320683D03*
D107*
X0249020Y0317109D03*
X0248026Y0313783D03*
X0246020Y0314009D03*
X0245170Y0313409D03*
X0251776Y0313683D03*
X0251826Y0313233D03*
X0259395Y0314609D03*
X0261970Y0313959D03*
X0262145Y0311859D03*
X0262395Y0311159D03*
X0256070Y0307459D03*
D108*
X0251570Y0313209D03*
X0251495Y0313709D03*
X0246676Y0313233D03*
D109*
X0251976Y0320158D03*
X0258045Y0315984D03*
X0259170Y0305384D03*
D110*
X0254332Y0305384D03*
X0254982Y0313884D03*
X0249382Y0316634D03*
X0246589Y0314308D03*
X0246589Y0314258D03*
X0246589Y0314208D03*
X0246589Y0314158D03*
X0246589Y0314108D03*
X0246589Y0314058D03*
X0246589Y0314008D03*
X0246589Y0313958D03*
X0246589Y0313908D03*
X0246589Y0313858D03*
X0245489Y0319308D03*
X0245439Y0320258D03*
X0246839Y0319458D03*
D111*
X0246476Y0313258D03*
X0251120Y0313934D03*
X0258045Y0312684D03*
D112*
X0259145Y0305409D03*
D113*
X0254345Y0305409D03*
X0261195Y0311009D03*
X0261620Y0312459D03*
X0261170Y0316409D03*
X0261395Y0316609D03*
X0259845Y0317509D03*
X0256445Y0318059D03*
X0249445Y0316559D03*
X0246776Y0315033D03*
X0246751Y0314983D03*
X0245520Y0315059D03*
X0245570Y0314259D03*
X0245570Y0314209D03*
X0246676Y0313683D03*
X0245576Y0319183D03*
X0245626Y0320533D03*
D114*
X0245539Y0320433D03*
X0245539Y0319233D03*
X0245482Y0315109D03*
X0246689Y0314783D03*
X0250482Y0317309D03*
X0251739Y0313283D03*
X0254932Y0314009D03*
X0255432Y0312209D03*
X0263282Y0313459D03*
D115*
X0246489Y0313283D03*
D116*
X0253339Y0313558D03*
X0259082Y0305434D03*
D117*
X0255607Y0305434D03*
X0262257Y0313734D03*
X0250407Y0317434D03*
X0247314Y0319958D03*
X0245364Y0319658D03*
X0245364Y0319608D03*
X0245414Y0319408D03*
D118*
X0247039Y0317808D03*
X0249482Y0316484D03*
X0254332Y0305434D03*
X0261132Y0310934D03*
D119*
X0261207Y0311034D03*
X0261607Y0312134D03*
X0261607Y0312384D03*
X0261607Y0312434D03*
X0254857Y0314184D03*
X0253607Y0314084D03*
X0251764Y0313308D03*
X0245557Y0314284D03*
X0245507Y0315084D03*
X0245614Y0320508D03*
D120*
X0252314Y0320358D03*
X0246514Y0313308D03*
X0258057Y0312734D03*
D121*
X0257945Y0316609D03*
X0257970Y0316659D03*
X0257995Y0316709D03*
X0258045Y0316759D03*
X0252176Y0320283D03*
X0259045Y0305459D03*
D122*
X0254832Y0305459D03*
X0258832Y0311259D03*
X0257532Y0314159D03*
X0246932Y0313009D03*
D123*
X0246539Y0313333D03*
X0258232Y0312209D03*
D124*
X0259557Y0305484D03*
X0252514Y0316658D03*
X0246907Y0312934D03*
D125*
X0250732Y0312934D03*
X0254782Y0305484D03*
D126*
X0257957Y0307084D03*
X0258107Y0306834D03*
X0258207Y0306684D03*
X0254657Y0314534D03*
X0251864Y0313358D03*
X0246914Y0315308D03*
X0245607Y0314934D03*
D127*
X0246564Y0313358D03*
X0258057Y0312784D03*
D128*
X0257357Y0314409D03*
X0258907Y0311159D03*
X0259557Y0305509D03*
X0252607Y0314509D03*
X0246814Y0315583D03*
X0259557Y0317409D03*
D129*
X0257532Y0314059D03*
X0257932Y0313559D03*
X0254682Y0305509D03*
D130*
X0255557Y0306309D03*
X0252014Y0313383D03*
X0251864Y0314683D03*
X0249814Y0320583D03*
X0246914Y0319783D03*
X0259307Y0316959D03*
D131*
X0258495Y0317759D03*
X0262120Y0314709D03*
X0262220Y0314759D03*
X0256020Y0307259D03*
X0248701Y0313383D03*
X0248701Y0314483D03*
X0249951Y0314733D03*
X0247145Y0313559D03*
D132*
X0247001Y0313383D03*
X0247201Y0315833D03*
X0257995Y0313409D03*
X0258020Y0313359D03*
D133*
X0259207Y0314759D03*
X0259407Y0316459D03*
X0253857Y0313909D03*
X0250157Y0317759D03*
X0245307Y0313809D03*
X0245214Y0313383D03*
X0260157Y0308159D03*
X0260807Y0306409D03*
D134*
X0259470Y0305534D03*
X0253370Y0315334D03*
X0253270Y0315384D03*
X0249245Y0314534D03*
X0245945Y0314534D03*
X0257420Y0317084D03*
D135*
X0253401Y0313408D03*
D136*
X0254001Y0313858D03*
X0252101Y0316008D03*
X0249970Y0315684D03*
X0247351Y0313408D03*
X0252526Y0320458D03*
X0256820Y0308034D03*
D137*
X0259457Y0305559D03*
X0253207Y0315409D03*
D138*
X0253389Y0313433D03*
D139*
X0252214Y0316133D03*
X0252564Y0320483D03*
X0247464Y0313433D03*
D140*
X0246932Y0313284D03*
X0249732Y0316134D03*
X0259482Y0305584D03*
D141*
X0253389Y0313458D03*
X0251682Y0313584D03*
D142*
X0251007Y0313034D03*
X0247514Y0313458D03*
X0258207Y0312984D03*
D143*
X0259232Y0315609D03*
X0249939Y0314633D03*
X0249939Y0314583D03*
X0248182Y0318059D03*
X0248739Y0320083D03*
X0244882Y0316059D03*
X0261332Y0305609D03*
D144*
X0259520Y0305609D03*
X0258945Y0310959D03*
X0257245Y0314609D03*
X0253920Y0315059D03*
X0249426Y0317633D03*
X0249226Y0317283D03*
D145*
X0251645Y0313609D03*
X0253376Y0313483D03*
D146*
X0258320Y0312359D03*
X0259945Y0305759D03*
X0247726Y0313483D03*
X0247526Y0315933D03*
D147*
X0249151Y0317158D03*
X0249526Y0317758D03*
X0246945Y0313134D03*
X0257020Y0315134D03*
X0257020Y0315634D03*
X0257320Y0314484D03*
X0259545Y0305634D03*
D148*
X0253376Y0313508D03*
X0251595Y0313634D03*
D149*
X0251145Y0313084D03*
X0249970Y0315634D03*
X0247726Y0313508D03*
X0258120Y0312884D03*
D150*
X0257145Y0315859D03*
X0252526Y0316783D03*
X0252526Y0316833D03*
X0251151Y0315383D03*
X0252270Y0314609D03*
X0249870Y0315909D03*
X0248926Y0316833D03*
X0259645Y0305659D03*
D151*
X0253376Y0313533D03*
X0251570Y0313659D03*
D152*
X0247726Y0313533D03*
X0248276Y0316383D03*
D153*
X0250707Y0314134D03*
X0257457Y0313834D03*
X0259957Y0305684D03*
D154*
X0256757Y0308134D03*
X0253964Y0313908D03*
X0247714Y0313558D03*
D155*
X0250757Y0314109D03*
X0252464Y0320433D03*
X0257457Y0313809D03*
X0256757Y0308159D03*
X0259957Y0305709D03*
D156*
X0260095Y0305859D03*
X0260045Y0305909D03*
X0259945Y0306009D03*
X0253251Y0313583D03*
D157*
X0258145Y0312909D03*
X0258345Y0312459D03*
X0247701Y0313583D03*
X0247676Y0313633D03*
D158*
X0257457Y0313784D03*
X0259957Y0305734D03*
D159*
X0260070Y0305884D03*
X0259920Y0306034D03*
X0253276Y0313608D03*
D160*
X0258345Y0312484D03*
X0247676Y0313608D03*
D161*
X0254257Y0305759D03*
X0254457Y0305859D03*
D162*
X0259932Y0305784D03*
X0257632Y0315284D03*
X0257632Y0315334D03*
X0251532Y0314734D03*
D163*
X0251126Y0315008D03*
X0250120Y0314334D03*
X0250870Y0312984D03*
X0257520Y0314034D03*
X0257970Y0313484D03*
X0258695Y0311384D03*
X0254345Y0305784D03*
D164*
X0253132Y0314334D03*
X0254282Y0314834D03*
X0252882Y0315584D03*
X0252782Y0315634D03*
X0251639Y0314858D03*
X0248289Y0313658D03*
X0257482Y0317184D03*
D165*
X0254757Y0314384D03*
X0250557Y0317184D03*
X0246714Y0313658D03*
X0245607Y0314084D03*
D166*
X0248176Y0316333D03*
X0250870Y0314059D03*
X0257620Y0315409D03*
X0258295Y0312309D03*
X0259920Y0305809D03*
D167*
X0254407Y0305809D03*
X0257957Y0313509D03*
X0256857Y0314809D03*
D168*
X0259857Y0310684D03*
X0259857Y0310634D03*
X0256807Y0308534D03*
X0260107Y0305834D03*
X0251207Y0314784D03*
D169*
X0249907Y0315834D03*
X0248714Y0316658D03*
X0256857Y0314784D03*
X0254457Y0305834D03*
D170*
X0254932Y0314034D03*
X0261482Y0316634D03*
X0246689Y0314808D03*
X0246639Y0314608D03*
X0246639Y0313708D03*
X0245539Y0320408D03*
D171*
X0245451Y0320283D03*
X0245426Y0320233D03*
X0245445Y0315159D03*
X0246601Y0313833D03*
X0246601Y0313783D03*
X0246601Y0313733D03*
X0249370Y0316659D03*
X0255020Y0313759D03*
X0255045Y0313659D03*
X0255320Y0312309D03*
X0261295Y0311159D03*
X0261020Y0316209D03*
X0261145Y0316309D03*
X0258370Y0317559D03*
D172*
X0257057Y0316334D03*
X0258007Y0313384D03*
X0252364Y0316308D03*
X0254457Y0305884D03*
D173*
X0260307Y0307884D03*
X0260907Y0306684D03*
X0260907Y0306634D03*
X0261957Y0314084D03*
X0261957Y0314434D03*
X0259357Y0314634D03*
X0250057Y0317884D03*
X0248814Y0313758D03*
D174*
X0257932Y0316584D03*
X0258132Y0316884D03*
X0259982Y0305984D03*
X0260032Y0305934D03*
D175*
X0256882Y0307934D03*
X0254432Y0305934D03*
X0257482Y0313934D03*
D176*
X0260920Y0315884D03*
X0263020Y0312984D03*
X0256020Y0307284D03*
X0249951Y0314758D03*
X0248851Y0313808D03*
X0248895Y0317284D03*
X0246326Y0320158D03*
X0244945Y0315934D03*
X0245095Y0313234D03*
D177*
X0246032Y0313984D03*
X0248039Y0313808D03*
X0259432Y0314584D03*
X0260982Y0315984D03*
D178*
X0258107Y0316859D03*
X0257907Y0316559D03*
X0259857Y0310759D03*
X0260007Y0305959D03*
D179*
X0256857Y0307959D03*
X0254407Y0305959D03*
X0257407Y0315559D03*
X0252164Y0316083D03*
X0249957Y0315709D03*
D180*
X0249957Y0318009D03*
X0248064Y0313833D03*
X0245157Y0313359D03*
X0245057Y0315759D03*
X0260557Y0307709D03*
X0261157Y0306909D03*
X0262107Y0311909D03*
X0263007Y0313009D03*
D181*
X0262232Y0311734D03*
X0260182Y0308084D03*
X0260232Y0307984D03*
X0253882Y0313884D03*
X0248189Y0313858D03*
D182*
X0250645Y0314159D03*
X0251701Y0315633D03*
X0251876Y0315783D03*
X0251926Y0315833D03*
X0251976Y0315883D03*
X0253976Y0313883D03*
X0258345Y0312559D03*
D183*
X0254982Y0313859D03*
X0246589Y0313883D03*
X0246589Y0313933D03*
X0246589Y0313983D03*
X0246589Y0314033D03*
X0246589Y0314083D03*
X0246589Y0314133D03*
X0246589Y0314183D03*
X0246589Y0314233D03*
X0246589Y0314283D03*
X0246589Y0314333D03*
X0245489Y0320333D03*
D184*
X0247514Y0320158D03*
X0249214Y0320308D03*
X0249207Y0316884D03*
X0248264Y0313908D03*
X0259057Y0314984D03*
X0259107Y0314884D03*
X0259157Y0314834D03*
X0259407Y0316484D03*
X0262507Y0313834D03*
X0262557Y0313884D03*
X0260457Y0306134D03*
D185*
X0259445Y0306059D03*
X0258645Y0311409D03*
X0258070Y0313259D03*
X0258045Y0313309D03*
X0257020Y0316309D03*
X0257195Y0316409D03*
X0252351Y0316283D03*
X0250920Y0313009D03*
D186*
X0253939Y0313933D03*
X0258432Y0311459D03*
X0256732Y0308209D03*
D187*
X0258895Y0306084D03*
X0251701Y0314808D03*
X0252245Y0315934D03*
X0252170Y0315984D03*
X0251020Y0316684D03*
X0250945Y0316734D03*
X0250870Y0316784D03*
X0250720Y0316884D03*
X0249670Y0316234D03*
D188*
X0253914Y0313958D03*
X0257457Y0313734D03*
X0257657Y0315184D03*
X0257657Y0315234D03*
X0258307Y0312334D03*
D189*
X0258982Y0315059D03*
X0258432Y0317659D03*
X0262082Y0313409D03*
X0262382Y0311259D03*
X0260132Y0308309D03*
X0260432Y0306109D03*
X0255282Y0306559D03*
X0250282Y0317609D03*
D190*
X0253189Y0320733D03*
X0254482Y0314709D03*
X0258782Y0306109D03*
D191*
X0256695Y0308359D03*
X0253901Y0313983D03*
X0257620Y0315509D03*
D192*
X0259070Y0314959D03*
X0263045Y0314409D03*
X0250245Y0317659D03*
X0249220Y0316859D03*
X0248376Y0314033D03*
X0248351Y0313983D03*
X0245345Y0313959D03*
X0247501Y0320583D03*
X0255295Y0306609D03*
D193*
X0258745Y0306134D03*
X0259795Y0308484D03*
X0251951Y0314608D03*
X0251901Y0314658D03*
X0250670Y0316984D03*
X0249595Y0316334D03*
D194*
X0246914Y0319808D03*
X0255207Y0306134D03*
D195*
X0257620Y0307534D03*
X0252976Y0314008D03*
X0251851Y0314708D03*
X0245770Y0314734D03*
X0245901Y0318958D03*
X0246926Y0319858D03*
X0259320Y0316984D03*
D196*
X0259820Y0317459D03*
X0254545Y0314659D03*
X0253370Y0314209D03*
X0247026Y0315483D03*
X0259795Y0308459D03*
X0258720Y0306159D03*
D197*
X0255282Y0306159D03*
X0252039Y0314533D03*
X0256632Y0317609D03*
D198*
X0252901Y0314033D03*
X0251926Y0314633D03*
X0247076Y0317833D03*
X0245851Y0318983D03*
X0245745Y0314759D03*
D199*
X0245182Y0315534D03*
X0245282Y0313734D03*
X0250182Y0317734D03*
X0247539Y0320258D03*
X0247539Y0320308D03*
X0259232Y0314734D03*
X0260532Y0306184D03*
D200*
X0258682Y0306184D03*
X0258632Y0306234D03*
X0250632Y0317034D03*
D201*
X0246989Y0315408D03*
X0245682Y0314834D03*
X0246889Y0319658D03*
X0261932Y0312934D03*
X0258532Y0306334D03*
X0258582Y0306284D03*
X0255332Y0306184D03*
D202*
X0257720Y0307434D03*
X0259820Y0308434D03*
X0261820Y0312734D03*
X0261845Y0312784D03*
X0261870Y0312834D03*
X0261895Y0312884D03*
X0254570Y0314634D03*
X0253420Y0314184D03*
X0252826Y0314058D03*
X0252151Y0314458D03*
X0252076Y0314508D03*
X0248820Y0314584D03*
X0256620Y0317634D03*
D203*
X0252114Y0314483D03*
X0245707Y0314809D03*
X0257707Y0307459D03*
X0258657Y0306209D03*
D204*
X0255382Y0306209D03*
X0261032Y0310859D03*
X0261782Y0312659D03*
X0261832Y0312759D03*
X0252189Y0314433D03*
X0250632Y0317059D03*
X0245889Y0320733D03*
D205*
X0245657Y0314859D03*
X0252764Y0314083D03*
X0256607Y0317659D03*
X0261957Y0312959D03*
X0261807Y0312709D03*
X0258557Y0306309D03*
D206*
X0260657Y0306259D03*
X0261157Y0306859D03*
X0255307Y0306659D03*
X0259107Y0314909D03*
X0262107Y0313559D03*
X0262507Y0313809D03*
X0262607Y0313959D03*
X0262657Y0314059D03*
X0248414Y0314083D03*
X0246814Y0319383D03*
X0247514Y0320533D03*
D207*
X0251495Y0316384D03*
X0251570Y0316334D03*
X0251745Y0316234D03*
X0251995Y0316084D03*
X0253220Y0314284D03*
X0255545Y0306234D03*
D208*
X0257757Y0307384D03*
X0252714Y0314108D03*
X0252364Y0314308D03*
X0252214Y0314408D03*
D209*
X0248439Y0314108D03*
X0248032Y0314684D03*
X0245332Y0313934D03*
X0245332Y0313884D03*
X0255332Y0306684D03*
X0260132Y0308234D03*
X0262632Y0313984D03*
X0259082Y0314934D03*
D210*
X0261920Y0312909D03*
X0261895Y0312859D03*
X0261870Y0312809D03*
X0257745Y0307409D03*
X0258620Y0306259D03*
X0255520Y0306359D03*
X0247001Y0315433D03*
X0245776Y0319033D03*
X0246901Y0319683D03*
D211*
X0247051Y0315533D03*
X0251801Y0314733D03*
X0259470Y0317109D03*
X0260920Y0310809D03*
X0255570Y0306259D03*
D212*
X0257770Y0307359D03*
X0258470Y0306409D03*
X0258520Y0306359D03*
X0254595Y0314609D03*
X0252651Y0314133D03*
X0252576Y0314183D03*
X0252476Y0314233D03*
X0252401Y0314283D03*
X0252326Y0314333D03*
X0252251Y0314383D03*
X0249545Y0316409D03*
X0249701Y0320533D03*
X0246901Y0319633D03*
X0256595Y0317709D03*
D213*
X0255557Y0306284D03*
D214*
X0257795Y0307334D03*
X0258495Y0306384D03*
X0261770Y0312634D03*
X0261795Y0312684D03*
X0261970Y0312984D03*
X0256670Y0317584D03*
X0256595Y0317684D03*
X0252601Y0314158D03*
X0252526Y0314208D03*
X0252451Y0314258D03*
X0252276Y0314358D03*
X0245645Y0314884D03*
D215*
X0246345Y0312884D03*
X0252026Y0314558D03*
X0246901Y0319708D03*
X0245826Y0319008D03*
X0260995Y0310834D03*
X0255545Y0306334D03*
D216*
X0262807Y0311384D03*
X0249114Y0314208D03*
D217*
X0248514Y0314208D03*
X0249157Y0316934D03*
X0245307Y0313784D03*
X0258457Y0317684D03*
X0263057Y0314434D03*
X0260157Y0308184D03*
D218*
X0255507Y0306384D03*
X0262007Y0313034D03*
X0250607Y0317084D03*
D219*
X0248689Y0314283D03*
X0248182Y0314659D03*
X0245332Y0315309D03*
X0247389Y0320733D03*
X0261382Y0311509D03*
X0261382Y0311459D03*
X0263032Y0314359D03*
D220*
X0256282Y0318134D03*
X0254632Y0314584D03*
X0253682Y0312884D03*
X0249532Y0316434D03*
X0246889Y0319608D03*
X0245739Y0319058D03*
X0245839Y0320708D03*
X0257832Y0307284D03*
X0258382Y0306484D03*
X0258432Y0306434D03*
D221*
X0260832Y0306459D03*
X0255532Y0306859D03*
X0263032Y0313059D03*
X0247539Y0320233D03*
X0247539Y0320283D03*
X0245282Y0313759D03*
D222*
X0246964Y0315383D03*
X0258257Y0317459D03*
X0261757Y0312609D03*
X0257807Y0307309D03*
X0258407Y0306459D03*
D223*
X0255257Y0306484D03*
X0261407Y0311684D03*
X0258407Y0317634D03*
D224*
X0256720Y0317559D03*
X0254645Y0314559D03*
X0253470Y0314159D03*
X0250595Y0317109D03*
X0248645Y0314609D03*
X0246926Y0315333D03*
X0257845Y0307259D03*
X0257870Y0307209D03*
X0258220Y0306659D03*
X0258270Y0306609D03*
X0258320Y0306559D03*
X0258370Y0306509D03*
X0259845Y0308409D03*
X0262020Y0313059D03*
X0260770Y0316159D03*
D225*
X0261220Y0316534D03*
X0256595Y0317734D03*
X0246951Y0315358D03*
X0257870Y0307234D03*
X0257895Y0307184D03*
X0258245Y0306634D03*
X0258295Y0306584D03*
X0258345Y0306534D03*
X0261070Y0310884D03*
D226*
X0263307Y0313484D03*
X0247107Y0314234D03*
X0246614Y0314408D03*
X0246614Y0314458D03*
X0245464Y0320308D03*
D227*
X0255782Y0314709D03*
X0262232Y0311709D03*
X0263382Y0313609D03*
X0260882Y0306559D03*
D228*
X0260895Y0306584D03*
X0260270Y0307934D03*
X0262245Y0311484D03*
X0262195Y0311784D03*
X0261970Y0314134D03*
X0261970Y0314384D03*
X0259295Y0314684D03*
X0255520Y0306884D03*
X0245245Y0313584D03*
X0250095Y0317834D03*
X0249101Y0320258D03*
D229*
X0248714Y0314458D03*
X0245207Y0313484D03*
X0260457Y0307784D03*
X0262157Y0311834D03*
X0261957Y0313984D03*
X0261957Y0314484D03*
D230*
X0261145Y0316334D03*
X0258370Y0317534D03*
X0254945Y0313984D03*
X0254945Y0313934D03*
X0253845Y0312934D03*
X0255395Y0312234D03*
X0261245Y0311084D03*
X0250470Y0317334D03*
X0248370Y0314634D03*
X0246651Y0314658D03*
X0246626Y0314558D03*
X0246626Y0314508D03*
X0245470Y0315134D03*
X0245501Y0320358D03*
D231*
X0245107Y0315659D03*
X0249057Y0317059D03*
X0253907Y0313859D03*
X0261957Y0314059D03*
X0261957Y0314459D03*
X0261907Y0316809D03*
X0260907Y0306659D03*
X0256107Y0307509D03*
D232*
X0260345Y0307859D03*
X0260920Y0306709D03*
X0262220Y0311409D03*
X0259420Y0316409D03*
X0250045Y0317909D03*
X0249051Y0320233D03*
X0245220Y0313509D03*
D233*
X0246889Y0319583D03*
X0254682Y0314509D03*
X0256582Y0317759D03*
X0256332Y0318109D03*
X0257932Y0307109D03*
X0258182Y0306709D03*
D234*
X0251989Y0314583D03*
X0249582Y0316359D03*
D235*
X0246876Y0315258D03*
X0246876Y0319558D03*
X0254695Y0314484D03*
X0256770Y0317534D03*
X0256570Y0317784D03*
X0259870Y0308384D03*
X0258020Y0306984D03*
X0258045Y0306934D03*
X0258070Y0306884D03*
X0258145Y0306784D03*
X0258170Y0306734D03*
D236*
X0258120Y0306809D03*
X0258095Y0306859D03*
X0258020Y0306959D03*
X0257995Y0307009D03*
X0257970Y0307059D03*
X0261270Y0316559D03*
X0246901Y0315283D03*
X0245595Y0314959D03*
X0245701Y0319083D03*
D237*
X0244932Y0315959D03*
X0245082Y0313209D03*
X0249939Y0314683D03*
X0248832Y0317359D03*
X0248839Y0320133D03*
X0263382Y0313659D03*
D238*
X0261157Y0316359D03*
X0254907Y0314059D03*
X0249407Y0316609D03*
X0246664Y0314733D03*
X0246664Y0314683D03*
D239*
X0249939Y0314708D03*
X0248789Y0320108D03*
D240*
X0245564Y0320458D03*
X0245514Y0319258D03*
X0246664Y0314708D03*
X0254907Y0314084D03*
D241*
X0251764Y0314758D03*
X0245807Y0314684D03*
X0249864Y0320608D03*
X0259507Y0317134D03*
D242*
X0259532Y0317159D03*
X0252032Y0316059D03*
X0251132Y0316609D03*
X0251739Y0314783D03*
X0249032Y0314559D03*
D243*
X0248707Y0317484D03*
X0248207Y0318034D03*
X0246314Y0320208D03*
X0253957Y0313784D03*
X0255507Y0315934D03*
X0262157Y0316934D03*
X0256007Y0307184D03*
X0255507Y0306934D03*
D244*
X0251676Y0314833D03*
X0252470Y0315809D03*
X0252570Y0315759D03*
X0249695Y0316209D03*
D245*
X0246726Y0314883D03*
X0246701Y0314833D03*
X0247020Y0314259D03*
X0246851Y0319483D03*
X0245576Y0320483D03*
X0256520Y0318009D03*
X0256920Y0317459D03*
X0258345Y0317509D03*
X0254870Y0314159D03*
X0254895Y0314109D03*
X0261595Y0312359D03*
X0261595Y0312309D03*
X0261595Y0312259D03*
X0261595Y0312209D03*
X0261220Y0311059D03*
D246*
X0251614Y0314883D03*
X0246907Y0313359D03*
D247*
X0250582Y0317134D03*
X0249639Y0320508D03*
X0259832Y0317484D03*
X0261182Y0316484D03*
X0261732Y0312584D03*
X0257932Y0307134D03*
X0257982Y0307034D03*
D248*
X0254195Y0314884D03*
X0253170Y0315434D03*
X0251576Y0314908D03*
X0246920Y0313334D03*
X0257445Y0317134D03*
D249*
X0253001Y0320683D03*
X0251526Y0314933D03*
X0246945Y0313259D03*
X0245970Y0314509D03*
D250*
X0245232Y0313559D03*
X0247882Y0314709D03*
X0250039Y0314933D03*
X0250082Y0317859D03*
X0262182Y0311809D03*
X0262232Y0311359D03*
X0260282Y0307909D03*
D251*
X0254832Y0314259D03*
X0256532Y0317959D03*
X0246739Y0314933D03*
D252*
X0256032Y0307084D03*
D253*
X0256982Y0307834D03*
X0257982Y0313434D03*
X0257282Y0315934D03*
X0251139Y0314958D03*
D254*
X0254832Y0314234D03*
X0254882Y0314134D03*
X0256882Y0317484D03*
X0246932Y0314284D03*
X0246739Y0314958D03*
D255*
X0248689Y0316633D03*
X0251139Y0314983D03*
X0252389Y0316333D03*
X0257332Y0316459D03*
X0257982Y0313459D03*
D256*
X0254820Y0314284D03*
X0256545Y0317934D03*
X0249526Y0320458D03*
X0245651Y0320558D03*
X0246751Y0315008D03*
X0245570Y0314234D03*
X0261620Y0312484D03*
X0263270Y0313434D03*
D257*
X0252032Y0314659D03*
X0251139Y0315033D03*
D258*
X0251126Y0315058D03*
X0251126Y0315108D03*
X0257820Y0313684D03*
X0257945Y0313534D03*
D259*
X0252451Y0316433D03*
X0251126Y0315083D03*
X0250020Y0314359D03*
X0248751Y0316683D03*
X0257020Y0307809D03*
D260*
X0249457Y0316534D03*
X0246814Y0315108D03*
X0245614Y0319158D03*
X0246864Y0319508D03*
X0256557Y0317884D03*
D261*
X0257220Y0315909D03*
X0256870Y0314859D03*
X0258745Y0311359D03*
X0252476Y0316483D03*
X0251126Y0315183D03*
X0251126Y0315133D03*
X0249895Y0315859D03*
X0248801Y0316733D03*
D262*
X0251126Y0315208D03*
X0251126Y0315158D03*
X0252476Y0316508D03*
X0252726Y0320558D03*
X0257920Y0313584D03*
X0257070Y0307784D03*
D263*
X0261170Y0310984D03*
X0246770Y0314334D03*
X0246826Y0315158D03*
X0245595Y0314134D03*
D264*
X0246839Y0315183D03*
X0249482Y0316509D03*
X0249589Y0320483D03*
X0245739Y0320633D03*
X0245639Y0319133D03*
X0256832Y0317509D03*
D265*
X0253932Y0313809D03*
X0249882Y0318109D03*
X0246082Y0313859D03*
X0245132Y0313309D03*
X0256032Y0307359D03*
X0262032Y0312009D03*
D266*
X0257920Y0313609D03*
X0257895Y0313659D03*
X0256870Y0314909D03*
X0252526Y0316633D03*
X0251126Y0315233D03*
X0257120Y0307609D03*
D267*
X0255557Y0312159D03*
X0254707Y0314459D03*
X0261707Y0312559D03*
X0263207Y0313359D03*
X0246864Y0315233D03*
D268*
X0251126Y0315258D03*
X0252145Y0314634D03*
X0252526Y0316608D03*
X0257920Y0313634D03*
X0258770Y0311334D03*
X0257120Y0307634D03*
X0257120Y0307584D03*
D269*
X0256045Y0307409D03*
X0262070Y0311959D03*
X0261970Y0313909D03*
X0261970Y0314559D03*
X0261995Y0314609D03*
X0263070Y0314509D03*
X0260970Y0315959D03*
X0249920Y0318059D03*
X0248951Y0320183D03*
X0246351Y0320083D03*
X0245020Y0315809D03*
X0246045Y0313959D03*
X0246070Y0313909D03*
D270*
X0249832Y0314409D03*
X0251139Y0315283D03*
D271*
X0249007Y0317134D03*
X0246814Y0319358D03*
X0246057Y0313934D03*
X0245157Y0313384D03*
X0256057Y0307434D03*
X0261957Y0313934D03*
X0261957Y0314534D03*
X0261957Y0316834D03*
D272*
X0252526Y0316708D03*
X0251151Y0315308D03*
X0247026Y0315758D03*
X0257120Y0307734D03*
X0257120Y0307684D03*
D273*
X0251139Y0315333D03*
X0246989Y0315733D03*
X0252789Y0320583D03*
X0259832Y0317259D03*
D274*
X0245732Y0314784D03*
X0257682Y0307484D03*
D275*
X0257545Y0314134D03*
X0259795Y0317284D03*
X0252526Y0316808D03*
X0252526Y0316758D03*
X0251151Y0315358D03*
X0248951Y0316858D03*
X0246920Y0312984D03*
D276*
X0250657Y0317009D03*
X0246914Y0319733D03*
X0257657Y0307509D03*
D277*
X0257507Y0314184D03*
X0256907Y0314984D03*
X0251164Y0315408D03*
X0246964Y0315708D03*
D278*
X0245782Y0314709D03*
X0246939Y0319883D03*
X0253282Y0314259D03*
X0257582Y0307559D03*
D279*
X0251164Y0315433D03*
X0248964Y0316883D03*
X0259757Y0317309D03*
D280*
X0252526Y0316908D03*
X0252526Y0316858D03*
X0251176Y0315458D03*
X0249870Y0315934D03*
X0249001Y0316908D03*
X0246901Y0315658D03*
X0249720Y0314434D03*
D281*
X0249557Y0316384D03*
X0247014Y0315458D03*
D282*
X0246926Y0315683D03*
X0251176Y0315483D03*
X0252526Y0316883D03*
X0256920Y0315009D03*
X0257495Y0314209D03*
D283*
X0259282Y0316934D03*
X0253332Y0314234D03*
X0247039Y0315508D03*
D284*
X0246920Y0312959D03*
X0252526Y0316683D03*
X0252526Y0316733D03*
X0257545Y0314109D03*
X0258795Y0311309D03*
X0257120Y0307709D03*
X0257120Y0307659D03*
D285*
X0251551Y0315533D03*
X0248376Y0316433D03*
X0247401Y0315883D03*
D286*
X0251589Y0315558D03*
X0258332Y0312584D03*
D287*
X0249832Y0315984D03*
X0249089Y0317058D03*
X0246789Y0315558D03*
D288*
X0251639Y0315583D03*
X0252039Y0315933D03*
X0252089Y0315983D03*
X0251082Y0313059D03*
D289*
X0251664Y0315608D03*
X0252064Y0315958D03*
X0257457Y0313884D03*
X0258157Y0312934D03*
D290*
X0258882Y0311184D03*
X0252532Y0314534D03*
X0249039Y0316958D03*
X0246839Y0315608D03*
X0252839Y0320608D03*
D291*
X0248864Y0316783D03*
X0247064Y0315783D03*
X0257107Y0307759D03*
D292*
X0258870Y0311209D03*
X0257420Y0314309D03*
X0252445Y0314559D03*
X0252501Y0316983D03*
X0252501Y0317033D03*
X0249051Y0316983D03*
X0246876Y0315633D03*
X0246945Y0313059D03*
D293*
X0248326Y0316408D03*
X0251726Y0315658D03*
X0251851Y0315758D03*
X0251901Y0315808D03*
X0251951Y0315858D03*
X0252001Y0315908D03*
X0258345Y0312534D03*
X0256795Y0308084D03*
D294*
X0260407Y0307809D03*
X0261957Y0314009D03*
X0261957Y0314509D03*
X0261007Y0316009D03*
X0250007Y0317959D03*
X0246364Y0320033D03*
X0245207Y0313459D03*
D295*
X0249957Y0315659D03*
X0251764Y0315683D03*
X0251814Y0315733D03*
X0257457Y0313859D03*
D296*
X0251789Y0315708D03*
D297*
X0252264Y0316183D03*
X0257357Y0315959D03*
X0256907Y0307909D03*
D298*
X0256857Y0314834D03*
X0252464Y0316458D03*
X0248764Y0316708D03*
X0247114Y0315808D03*
D299*
X0247289Y0315858D03*
D300*
X0256832Y0308009D03*
D301*
X0260207Y0308034D03*
X0262257Y0311534D03*
X0261957Y0314184D03*
X0261857Y0316784D03*
X0249107Y0316984D03*
X0245157Y0315584D03*
X0245257Y0313634D03*
D302*
X0247489Y0315908D03*
X0258232Y0312634D03*
X0258332Y0312384D03*
D303*
X0256807Y0308059D03*
X0251707Y0314709D03*
D304*
X0247576Y0315958D03*
X0252401Y0320408D03*
X0257620Y0315384D03*
X0256720Y0308284D03*
D305*
X0256782Y0308109D03*
X0258332Y0312509D03*
D306*
X0256707Y0308309D03*
X0251207Y0313109D03*
X0247614Y0315983D03*
D307*
X0247664Y0316008D03*
D308*
X0252126Y0316033D03*
X0257470Y0313909D03*
D309*
X0258070Y0312809D03*
X0256720Y0308409D03*
X0249995Y0315559D03*
X0248026Y0316233D03*
X0247701Y0316033D03*
X0252351Y0320383D03*
D310*
X0248051Y0316258D03*
X0247976Y0316208D03*
X0247751Y0316058D03*
X0258345Y0311484D03*
D311*
X0250982Y0314009D03*
X0247939Y0316183D03*
X0247789Y0316083D03*
D312*
X0248226Y0316358D03*
X0250820Y0314084D03*
X0256720Y0308234D03*
D313*
X0258570Y0311434D03*
X0252201Y0316108D03*
D314*
X0251257Y0313134D03*
X0247814Y0316108D03*
X0258257Y0312234D03*
D315*
X0257632Y0315259D03*
X0257632Y0315309D03*
X0257632Y0315359D03*
X0256732Y0308259D03*
X0249982Y0315609D03*
D316*
X0247851Y0316133D03*
D317*
X0248526Y0316508D03*
X0249945Y0315734D03*
X0250445Y0314234D03*
X0252251Y0316158D03*
D318*
X0247889Y0316158D03*
D319*
X0256707Y0308334D03*
D320*
X0256695Y0308384D03*
X0258295Y0312284D03*
X0258070Y0312834D03*
X0257620Y0315484D03*
D321*
X0258282Y0312259D03*
X0248089Y0316283D03*
D322*
X0249995Y0315534D03*
X0256745Y0308434D03*
D323*
X0257632Y0315434D03*
X0249982Y0315584D03*
X0248139Y0316308D03*
D324*
X0258045Y0312709D03*
X0256770Y0308459D03*
D325*
X0256782Y0308484D03*
D326*
X0256857Y0314734D03*
X0252414Y0316358D03*
D327*
X0256795Y0308509D03*
D328*
X0256845Y0314759D03*
X0252426Y0316383D03*
X0249920Y0315809D03*
X0252676Y0320533D03*
D329*
X0254432Y0314734D03*
X0259382Y0317034D03*
X0259782Y0308534D03*
D330*
X0252439Y0316408D03*
D331*
X0246939Y0319933D03*
X0259782Y0308559D03*
D332*
X0256832Y0308559D03*
X0251332Y0313809D03*
X0257882Y0316509D03*
X0258082Y0316809D03*
D333*
X0257532Y0317234D03*
X0257532Y0317284D03*
X0252082Y0316034D03*
X0251832Y0316184D03*
X0251332Y0316484D03*
X0251182Y0316584D03*
X0251082Y0316634D03*
X0259782Y0308584D03*
D334*
X0256832Y0308584D03*
D335*
X0259782Y0308609D03*
X0253182Y0314309D03*
X0252382Y0315859D03*
X0249939Y0320633D03*
D336*
X0256832Y0308609D03*
D337*
X0248489Y0316483D03*
D338*
X0246895Y0313384D03*
X0257470Y0317384D03*
X0259795Y0308634D03*
D339*
X0256832Y0308634D03*
X0252139Y0320258D03*
D340*
X0257807Y0308659D03*
D341*
X0252489Y0316533D03*
D342*
X0257807Y0308684D03*
D343*
X0252514Y0316558D03*
D344*
X0257820Y0308709D03*
D345*
X0250807Y0312959D03*
X0246907Y0312909D03*
X0252514Y0316583D03*
D346*
X0257832Y0308734D03*
D347*
X0257832Y0308759D03*
D348*
X0257832Y0308784D03*
D349*
X0257845Y0308809D03*
D350*
X0257845Y0308834D03*
D351*
X0257845Y0308859D03*
D352*
X0257845Y0308884D03*
D353*
X0257532Y0314084D03*
X0256882Y0314884D03*
X0249932Y0314384D03*
X0248839Y0316758D03*
D354*
X0257832Y0308909D03*
D355*
X0257820Y0308934D03*
D356*
X0258807Y0311284D03*
X0248914Y0316808D03*
D357*
X0257820Y0308959D03*
D358*
X0257820Y0308984D03*
X0251801Y0319208D03*
D359*
X0257807Y0309009D03*
D360*
X0257795Y0309034D03*
D361*
X0257782Y0309059D03*
D362*
X0257457Y0314259D03*
X0259657Y0317359D03*
X0252514Y0316933D03*
X0249014Y0316933D03*
X0247214Y0317933D03*
D363*
X0251801Y0319158D03*
X0257770Y0309084D03*
D364*
X0258857Y0311234D03*
X0257107Y0315834D03*
X0259707Y0317334D03*
X0252514Y0316958D03*
X0252357Y0314584D03*
D365*
X0257745Y0309109D03*
D366*
X0257720Y0309134D03*
D367*
X0257445Y0314284D03*
X0252501Y0317008D03*
D368*
X0249064Y0317008D03*
X0257407Y0314334D03*
X0259607Y0317384D03*
D369*
X0257682Y0309159D03*
D370*
X0249076Y0317033D03*
X0246145Y0314359D03*
D371*
X0256089Y0317058D03*
D372*
X0256101Y0317083D03*
X0252426Y0318983D03*
D373*
X0249551Y0317783D03*
X0249126Y0317083D03*
X0246945Y0313109D03*
X0256995Y0315109D03*
X0257045Y0315609D03*
D374*
X0256101Y0317108D03*
D375*
X0249139Y0317108D03*
X0247189Y0317908D03*
D376*
X0256101Y0317133D03*
D377*
X0257032Y0315759D03*
X0257332Y0314459D03*
X0262732Y0313309D03*
X0249139Y0317133D03*
D378*
X0256101Y0317158D03*
D379*
X0256114Y0317183D03*
D380*
X0257307Y0314509D03*
X0249164Y0317183D03*
D381*
X0256114Y0317208D03*
D382*
X0249476Y0317708D03*
X0249176Y0317208D03*
X0246045Y0314434D03*
X0258945Y0311034D03*
D383*
X0256114Y0317233D03*
X0256114Y0317283D03*
D384*
X0256995Y0315709D03*
X0257270Y0314559D03*
X0258945Y0311009D03*
X0252770Y0314459D03*
X0249201Y0317233D03*
X0246970Y0313159D03*
D385*
X0256114Y0317258D03*
D386*
X0257257Y0314584D03*
X0249214Y0317258D03*
D387*
X0256126Y0317308D03*
D388*
X0257345Y0316934D03*
X0253870Y0315084D03*
X0253770Y0315134D03*
X0252845Y0314434D03*
X0249226Y0317308D03*
X0249401Y0317608D03*
X0252951Y0320658D03*
X0246970Y0313184D03*
X0258945Y0310984D03*
D389*
X0256114Y0317333D03*
D390*
X0257232Y0314659D03*
X0253732Y0315159D03*
X0249389Y0317583D03*
X0249239Y0317333D03*
D391*
X0256126Y0317358D03*
D392*
X0257370Y0316984D03*
X0257220Y0314684D03*
X0253670Y0315184D03*
X0253570Y0315234D03*
X0249770Y0316084D03*
X0249251Y0317358D03*
X0249276Y0317408D03*
X0249301Y0317458D03*
X0249351Y0317508D03*
X0249376Y0317558D03*
X0250101Y0320708D03*
X0258945Y0310884D03*
X0262445Y0313134D03*
X0262495Y0313184D03*
D393*
X0256114Y0317383D03*
D394*
X0257370Y0317009D03*
X0253995Y0315009D03*
X0253620Y0315209D03*
X0249276Y0317383D03*
X0249301Y0317433D03*
X0249326Y0317483D03*
X0249351Y0317533D03*
X0246970Y0313209D03*
X0262420Y0313109D03*
X0262470Y0313159D03*
D395*
X0256114Y0317408D03*
D396*
X0256114Y0317433D03*
D397*
X0256114Y0317458D03*
D398*
X0256114Y0317483D03*
D399*
X0256101Y0317508D03*
D400*
X0256101Y0317533D03*
D401*
X0256101Y0317558D03*
D402*
X0256089Y0317583D03*
D403*
X0256064Y0317608D03*
D404*
X0256064Y0317633D03*
D405*
X0256051Y0317658D03*
D406*
X0249439Y0317658D03*
D407*
X0249439Y0317683D03*
X0249782Y0316059D03*
X0246032Y0314459D03*
X0253832Y0315109D03*
X0257332Y0316909D03*
D408*
X0256039Y0317708D03*
D409*
X0256026Y0317733D03*
D410*
X0249489Y0317733D03*
X0246082Y0314409D03*
X0258932Y0311059D03*
D411*
X0256014Y0317758D03*
D412*
X0255989Y0317783D03*
D413*
X0255951Y0317808D03*
D414*
X0256970Y0315084D03*
X0257370Y0314384D03*
X0249576Y0317808D03*
X0246945Y0313084D03*
D415*
X0254814Y0317833D03*
X0254814Y0317883D03*
D416*
X0254814Y0317908D03*
X0254814Y0317858D03*
D417*
X0252520Y0315784D03*
X0247126Y0317858D03*
D418*
X0247164Y0317883D03*
X0249757Y0316109D03*
X0253507Y0315259D03*
X0257207Y0314709D03*
X0258957Y0310859D03*
X0258957Y0310809D03*
D419*
X0254839Y0317933D03*
D420*
X0253564Y0317983D03*
D421*
X0253539Y0318008D03*
D422*
X0253526Y0318033D03*
D423*
X0253514Y0318058D03*
D424*
X0253489Y0318083D03*
D425*
X0253476Y0318108D03*
D426*
X0253451Y0318133D03*
D427*
X0253451Y0318158D03*
D428*
X0253439Y0318183D03*
D429*
X0253426Y0318208D03*
D430*
X0253414Y0318233D03*
D431*
X0253401Y0318258D03*
D432*
X0253389Y0318283D03*
D433*
X0253376Y0318308D03*
D434*
X0253376Y0318333D03*
D435*
X0253364Y0318358D03*
D436*
X0253364Y0318383D03*
D437*
X0253351Y0318408D03*
D438*
X0253339Y0318433D03*
D439*
X0253339Y0318458D03*
D440*
X0258145Y0312159D03*
X0259870Y0310609D03*
D441*
X0251476Y0318483D03*
X0251401Y0318583D03*
X0251376Y0318633D03*
X0251351Y0318683D03*
X0251326Y0318733D03*
D442*
X0251326Y0318708D03*
X0251301Y0318758D03*
X0251351Y0318658D03*
X0251401Y0318608D03*
X0251426Y0318558D03*
X0251451Y0318508D03*
D443*
X0250007Y0315459D03*
X0259857Y0310709D03*
X0259857Y0310659D03*
D444*
X0251439Y0318533D03*
X0251289Y0318783D03*
D445*
X0250007Y0315434D03*
X0251457Y0313184D03*
X0257907Y0316534D03*
X0258057Y0316784D03*
X0259857Y0310784D03*
X0259857Y0310734D03*
D446*
X0258957Y0310834D03*
X0262557Y0313234D03*
X0246957Y0313234D03*
D447*
X0257357Y0316959D03*
X0258957Y0310909D03*
D448*
X0258957Y0310934D03*
X0253957Y0315034D03*
X0259657Y0317234D03*
X0246007Y0314484D03*
D449*
X0251264Y0318808D03*
D450*
X0251251Y0318833D03*
X0251226Y0318883D03*
D451*
X0251239Y0318858D03*
D452*
X0251214Y0318908D03*
D453*
X0251189Y0318933D03*
D454*
X0256982Y0315684D03*
X0257282Y0314534D03*
X0258932Y0311084D03*
D455*
X0252389Y0318958D03*
D456*
X0252901Y0320633D03*
X0249820Y0316009D03*
X0256995Y0315659D03*
X0257070Y0315159D03*
X0258920Y0311109D03*
D457*
X0262382Y0311134D03*
X0262082Y0314684D03*
X0262182Y0314734D03*
X0248889Y0320158D03*
X0247732Y0314734D03*
X0246132Y0313684D03*
X0244982Y0315884D03*
D458*
X0246107Y0314384D03*
X0249507Y0314484D03*
X0250607Y0312884D03*
X0258907Y0311134D03*
D459*
X0252464Y0319008D03*
D460*
X0252489Y0319033D03*
D461*
X0249082Y0317034D03*
X0246389Y0320008D03*
X0245132Y0315634D03*
X0245232Y0313534D03*
X0262232Y0311434D03*
X0262382Y0311184D03*
X0263032Y0313034D03*
D462*
X0261307Y0311184D03*
X0255307Y0312334D03*
X0255057Y0313584D03*
X0255057Y0313634D03*
X0249414Y0320408D03*
D463*
X0252489Y0319058D03*
D464*
X0252489Y0319083D03*
D465*
X0252314Y0319108D03*
D466*
X0253507Y0314134D03*
X0245664Y0319108D03*
X0245764Y0320658D03*
D467*
X0245339Y0319883D03*
X0245339Y0319833D03*
X0245339Y0319783D03*
X0245339Y0319733D03*
X0245389Y0319533D03*
X0245389Y0319483D03*
X0249332Y0316709D03*
X0255132Y0313309D03*
X0255132Y0313259D03*
X0255132Y0313209D03*
X0255132Y0313159D03*
X0255132Y0313109D03*
X0255232Y0312459D03*
X0261332Y0311259D03*
X0263032Y0314309D03*
D468*
X0251776Y0319133D03*
D469*
X0251801Y0319183D03*
D470*
X0251776Y0319233D03*
D471*
X0251764Y0319258D03*
D472*
X0251776Y0319283D03*
D473*
X0251776Y0319308D03*
D474*
X0251776Y0319333D03*
D475*
X0251789Y0319358D03*
D476*
X0250432Y0317384D03*
X0253682Y0314034D03*
X0255082Y0313534D03*
X0263032Y0314284D03*
X0245439Y0319358D03*
X0245389Y0320108D03*
D477*
X0258232Y0311509D03*
D478*
X0251789Y0319383D03*
D479*
X0258070Y0311534D03*
D480*
X0251814Y0319408D03*
D481*
X0257932Y0311559D03*
D482*
X0251826Y0319433D03*
D483*
X0257882Y0311584D03*
D484*
X0251826Y0319458D03*
D485*
X0249982Y0315259D03*
X0257832Y0311609D03*
D486*
X0251839Y0319483D03*
D487*
X0251820Y0313284D03*
X0257795Y0311634D03*
D488*
X0251851Y0319508D03*
D489*
X0245389Y0319508D03*
X0245339Y0319758D03*
X0245339Y0319808D03*
X0245339Y0319858D03*
X0245339Y0319908D03*
X0245382Y0315234D03*
X0247282Y0314184D03*
X0255132Y0313284D03*
X0255132Y0313234D03*
X0255132Y0313184D03*
X0255132Y0313134D03*
X0255232Y0312434D03*
X0258382Y0317584D03*
D490*
X0251851Y0319533D03*
D491*
X0257732Y0311684D03*
D492*
X0251864Y0319558D03*
X0251614Y0319908D03*
D493*
X0257707Y0311709D03*
D494*
X0251864Y0319583D03*
D495*
X0257682Y0311734D03*
D496*
X0251876Y0319608D03*
D497*
X0251976Y0319733D03*
X0251801Y0320033D03*
X0257670Y0311759D03*
D498*
X0251889Y0319633D03*
D499*
X0251951Y0319708D03*
X0257645Y0311784D03*
D500*
X0251914Y0319658D03*
D501*
X0257632Y0311809D03*
D502*
X0257570Y0311909D03*
X0251926Y0319683D03*
D503*
X0257620Y0311834D03*
D504*
X0257607Y0311859D03*
D505*
X0257582Y0311884D03*
X0250332Y0314934D03*
D506*
X0251989Y0319758D03*
D507*
X0249764Y0320558D03*
X0246914Y0319758D03*
X0254507Y0314684D03*
D508*
X0257557Y0311934D03*
D509*
X0252014Y0319808D03*
D510*
X0249895Y0315159D03*
X0250245Y0314959D03*
X0257870Y0316009D03*
X0257545Y0311959D03*
D511*
X0252039Y0319833D03*
D512*
X0249907Y0318084D03*
X0249857Y0318134D03*
X0245007Y0315834D03*
X0246107Y0313784D03*
X0246157Y0313534D03*
X0246157Y0313484D03*
X0261957Y0313884D03*
X0262057Y0311984D03*
D513*
X0257545Y0311984D03*
D514*
X0252039Y0319858D03*
D515*
X0257532Y0312009D03*
D516*
X0257695Y0316159D03*
X0251820Y0313459D03*
X0252001Y0319883D03*
D517*
X0248932Y0317234D03*
X0246339Y0320108D03*
X0246082Y0313884D03*
X0261982Y0314584D03*
X0262032Y0312034D03*
D518*
X0257520Y0312034D03*
D519*
X0259445Y0317084D03*
X0250695Y0316934D03*
X0246951Y0319908D03*
D520*
X0251639Y0319933D03*
D521*
X0250257Y0317634D03*
X0245357Y0314034D03*
X0261407Y0312084D03*
X0262157Y0313634D03*
D522*
X0257482Y0312084D03*
X0251689Y0319958D03*
D523*
X0250507Y0317259D03*
X0254857Y0314209D03*
X0261607Y0312409D03*
X0261607Y0312159D03*
X0261607Y0312109D03*
X0245557Y0314309D03*
D524*
X0257470Y0312109D03*
D525*
X0251714Y0319983D03*
D526*
X0257920Y0316034D03*
X0257470Y0312134D03*
D527*
X0249907Y0315184D03*
X0251764Y0320008D03*
D528*
X0258182Y0312184D03*
D529*
X0251826Y0320058D03*
D530*
X0251901Y0320108D03*
X0251795Y0313484D03*
D531*
X0251939Y0320133D03*
D532*
X0245389Y0320133D03*
X0255032Y0313709D03*
X0255082Y0313509D03*
X0255282Y0312359D03*
X0262282Y0313759D03*
D533*
X0252014Y0320183D03*
D534*
X0252051Y0320208D03*
X0250920Y0314834D03*
D535*
X0252089Y0320233D03*
D536*
X0258282Y0312609D03*
X0258332Y0312409D03*
D537*
X0258332Y0312434D03*
D538*
X0251295Y0313834D03*
X0252226Y0320308D03*
D539*
X0252264Y0320333D03*
D540*
X0263032Y0314334D03*
X0255182Y0312634D03*
X0255182Y0312584D03*
D541*
X0257507Y0313984D03*
X0258157Y0313134D03*
X0252614Y0320508D03*
D542*
X0250007Y0315509D03*
X0258057Y0312659D03*
D543*
X0255157Y0312709D03*
X0255157Y0312759D03*
X0255157Y0312809D03*
X0255157Y0312859D03*
X0253907Y0312959D03*
X0245357Y0315259D03*
D544*
X0246857Y0314309D03*
X0245664Y0320583D03*
X0254807Y0314309D03*
X0256557Y0317909D03*
X0263257Y0313409D03*
D545*
X0258045Y0312759D03*
X0251370Y0314759D03*
X0251070Y0313959D03*
D546*
X0252982Y0315534D03*
X0253082Y0315484D03*
X0249989Y0320658D03*
D547*
X0250051Y0320683D03*
X0253320Y0315359D03*
X0254145Y0314909D03*
D548*
X0252432Y0315834D03*
X0252332Y0315884D03*
X0250782Y0316834D03*
X0253089Y0320708D03*
D549*
X0257657Y0315209D03*
X0257457Y0313759D03*
X0258107Y0312859D03*
D550*
X0249407Y0314509D03*
X0250164Y0320733D03*
D551*
X0249857Y0315959D03*
X0249607Y0314459D03*
X0250657Y0312909D03*
X0256957Y0315059D03*
D552*
X0258182Y0312959D03*
D553*
X0261982Y0313009D03*
X0261182Y0316509D03*
X0245632Y0314909D03*
D554*
X0246932Y0313034D03*
X0256932Y0315034D03*
X0257482Y0314234D03*
D555*
X0257382Y0317034D03*
X0254032Y0314984D03*
X0262382Y0313084D03*
D556*
X0258132Y0313159D03*
D557*
X0251332Y0313159D03*
D558*
X0252932Y0314409D03*
X0254082Y0314959D03*
X0262532Y0313209D03*
X0262582Y0313259D03*
D559*
X0251670Y0313234D03*
D560*
X0251770Y0313259D03*
D561*
X0252695Y0314484D03*
X0257345Y0314434D03*
X0262720Y0313284D03*
D562*
X0257432Y0317109D03*
X0246932Y0313309D03*
D563*
X0249807Y0316034D03*
X0257007Y0315734D03*
X0262757Y0313334D03*
D564*
X0258032Y0313334D03*
X0256932Y0316234D03*
X0249932Y0315784D03*
D565*
X0249957Y0315234D03*
X0251857Y0313384D03*
X0251857Y0313334D03*
D566*
X0251857Y0313359D03*
D567*
X0252832Y0315609D03*
X0257482Y0317359D03*
X0246882Y0313409D03*
X0245882Y0314609D03*
D568*
X0251832Y0313434D03*
D569*
X0246857Y0313434D03*
X0245857Y0314634D03*
X0257507Y0317334D03*
X0259557Y0317184D03*
D570*
X0251732Y0313534D03*
D571*
X0251707Y0313559D03*
D572*
X0251520Y0313684D03*
D573*
X0257082Y0316359D03*
X0257732Y0313709D03*
D574*
X0251457Y0313734D03*
D575*
X0251407Y0313759D03*
X0250007Y0315409D03*
X0257457Y0316209D03*
D576*
X0257945Y0316634D03*
X0257995Y0316684D03*
X0258020Y0316734D03*
X0258095Y0316834D03*
X0251370Y0313784D03*
D577*
X0251257Y0313859D03*
D578*
X0251207Y0313884D03*
X0250007Y0315484D03*
D579*
X0251170Y0313909D03*
D580*
X0257482Y0313959D03*
D581*
X0251032Y0313984D03*
D582*
X0250932Y0314034D03*
X0257632Y0315534D03*
D583*
X0250582Y0314184D03*
D584*
X0250520Y0314209D03*
D585*
X0257082Y0315809D03*
X0257382Y0314359D03*
D586*
X0253082Y0314359D03*
X0253032Y0315509D03*
D587*
X0253007Y0314384D03*
D588*
X0254745Y0314409D03*
X0250570Y0317159D03*
D589*
X0249720Y0316159D03*
X0253120Y0315459D03*
X0257445Y0317409D03*
X0259595Y0317209D03*
X0245920Y0314559D03*
D590*
X0245907Y0314584D03*
X0249707Y0316184D03*
D591*
X0257232Y0314634D03*
D592*
X0257545Y0317259D03*
X0251870Y0316159D03*
X0251795Y0316209D03*
X0251695Y0316259D03*
X0251620Y0316309D03*
X0251520Y0316359D03*
X0251370Y0316459D03*
X0251295Y0316509D03*
X0250695Y0316909D03*
X0245820Y0314659D03*
D593*
X0254407Y0314759D03*
D594*
X0254357Y0314784D03*
X0251907Y0316134D03*
X0251657Y0316284D03*
X0251407Y0316434D03*
X0251257Y0316534D03*
D595*
X0250970Y0316709D03*
X0250895Y0316759D03*
X0250820Y0316809D03*
X0250745Y0316859D03*
X0252120Y0316009D03*
X0252220Y0315959D03*
X0252295Y0315909D03*
X0254320Y0314809D03*
X0257520Y0317309D03*
D596*
X0251057Y0314809D03*
D597*
X0252920Y0315559D03*
X0254245Y0314859D03*
X0257470Y0317159D03*
D598*
X0250457Y0314909D03*
D599*
X0249882Y0315884D03*
X0256882Y0314934D03*
X0257182Y0315884D03*
D600*
X0254107Y0314934D03*
D601*
X0256907Y0314959D03*
D602*
X0250157Y0314984D03*
D603*
X0250070Y0315009D03*
D604*
X0249982Y0315034D03*
D605*
X0249907Y0315059D03*
D606*
X0249820Y0315084D03*
D607*
X0249757Y0315109D03*
D608*
X0249882Y0315134D03*
D609*
X0249932Y0315209D03*
D610*
X0253470Y0315284D03*
D611*
X0250007Y0315284D03*
D612*
X0253407Y0315309D03*
X0257407Y0317059D03*
D613*
X0250007Y0315309D03*
D614*
X0250007Y0315334D03*
D615*
X0250020Y0315359D03*
D616*
X0250007Y0315384D03*
D617*
X0257632Y0315459D03*
D618*
X0257357Y0315584D03*
D619*
X0252757Y0315659D03*
X0252657Y0315709D03*
D620*
X0252607Y0315734D03*
X0252707Y0315684D03*
D621*
X0257057Y0315784D03*
D622*
X0255632Y0315984D03*
X0258482Y0317734D03*
X0249032Y0317084D03*
D623*
X0257982Y0316059D03*
D624*
X0258057Y0316084D03*
D625*
X0258382Y0316109D03*
D626*
X0251957Y0316109D03*
X0251457Y0316409D03*
X0251207Y0316559D03*
X0251057Y0316659D03*
X0249657Y0316259D03*
D627*
X0258420Y0316134D03*
D628*
X0257532Y0316184D03*
D629*
X0249632Y0316284D03*
D630*
G36*
X0244723Y0316333D02*
X0244706Y0316318D01*
X0244691Y0316335D01*
X0244708Y0316350D01*
X0244723Y0316333D01*
G37*
D631*
X0259407Y0317059D03*
D632*
X0257507Y0317209D03*
D633*
X0258532Y0317434D03*
D634*
X0281571Y0365232D02*
X0021728Y0365232D01*
X0021728Y0058146D01*
X0281571Y0058146D01*
X0281571Y0365232D01*
D635*
X0021728Y0077043D02*
X0021728Y0001256D01*
X0021984Y0008933D02*
X0031965Y0007909D01*
X0031965Y0007676D02*
X0021984Y0008933D01*
X0031965Y0009957D01*
X0031965Y0010190D02*
X0031965Y0007676D01*
X0031965Y0008421D02*
X0021984Y0008933D01*
X0031965Y0009445D01*
X0031965Y0010190D02*
X0021984Y0008933D01*
X0261630Y0008933D01*
X0251650Y0007909D01*
X0251650Y0007676D02*
X0261630Y0008933D01*
X0251650Y0009957D01*
X0251650Y0010190D02*
X0251650Y0007676D01*
X0251650Y0008421D02*
X0261630Y0008933D01*
X0251650Y0009445D01*
X0251650Y0010190D02*
X0261630Y0008933D01*
X0261886Y0001256D02*
X0261886Y0077043D01*
D636*
X0156409Y0016833D02*
X0156409Y0012562D01*
X0155341Y0011495D01*
X0153206Y0011495D01*
X0152138Y0012562D01*
X0156409Y0016833D01*
X0155341Y0017900D01*
X0153206Y0017900D01*
X0152138Y0016833D01*
X0152138Y0012562D01*
X0149963Y0012562D02*
X0148896Y0011495D01*
X0146761Y0011495D01*
X0145693Y0012562D01*
X0149963Y0016833D01*
X0149963Y0012562D01*
X0145693Y0012562D02*
X0145693Y0016833D01*
X0146761Y0017900D01*
X0148896Y0017900D01*
X0149963Y0016833D01*
X0143538Y0012562D02*
X0143538Y0011495D01*
X0142470Y0011495D01*
X0142470Y0012562D01*
X0143538Y0012562D01*
X0140295Y0011495D02*
X0136025Y0011495D01*
X0138160Y0011495D02*
X0138160Y0017900D01*
X0136025Y0015765D01*
X0133850Y0013630D02*
X0133850Y0012562D01*
X0132782Y0011495D01*
X0130647Y0011495D01*
X0129579Y0012562D01*
X0129579Y0014698D01*
X0132782Y0014698D01*
X0133850Y0013630D01*
X0131714Y0016833D02*
X0129579Y0014698D01*
X0131714Y0016833D02*
X0133850Y0017900D01*
D637*
X0137704Y0068594D02*
X0137706Y0068702D01*
X0137712Y0068811D01*
X0137722Y0068919D01*
X0137736Y0069026D01*
X0137754Y0069133D01*
X0137775Y0069240D01*
X0137801Y0069345D01*
X0137831Y0069450D01*
X0137864Y0069553D01*
X0137901Y0069655D01*
X0137942Y0069755D01*
X0137986Y0069854D01*
X0138035Y0069952D01*
X0138086Y0070047D01*
X0138141Y0070140D01*
X0138200Y0070232D01*
X0138262Y0070321D01*
X0138327Y0070408D01*
X0138395Y0070492D01*
X0138466Y0070574D01*
X0138540Y0070653D01*
X0138617Y0070729D01*
X0138697Y0070803D01*
X0138780Y0070873D01*
X0138865Y0070941D01*
X0138952Y0071005D01*
X0139042Y0071066D01*
X0139134Y0071124D01*
X0139228Y0071178D01*
X0139324Y0071229D01*
X0139421Y0071276D01*
X0139521Y0071320D01*
X0139622Y0071360D01*
X0139724Y0071396D01*
X0139827Y0071428D01*
X0139932Y0071457D01*
X0140038Y0071481D01*
X0140144Y0071502D01*
X0140251Y0071519D01*
X0140359Y0071532D01*
X0140467Y0071541D01*
X0140576Y0071546D01*
X0140684Y0071547D01*
X0140793Y0071544D01*
X0140901Y0071537D01*
X0141009Y0071526D01*
X0141116Y0071511D01*
X0141223Y0071492D01*
X0141329Y0071469D01*
X0141434Y0071443D01*
X0141539Y0071412D01*
X0141641Y0071378D01*
X0141743Y0071340D01*
X0141843Y0071298D01*
X0141942Y0071253D01*
X0142039Y0071204D01*
X0142133Y0071151D01*
X0142226Y0071095D01*
X0142317Y0071036D01*
X0142406Y0070973D01*
X0142492Y0070908D01*
X0142576Y0070839D01*
X0142657Y0070767D01*
X0142735Y0070692D01*
X0142811Y0070614D01*
X0142884Y0070533D01*
X0142954Y0070450D01*
X0143020Y0070365D01*
X0143084Y0070277D01*
X0143144Y0070186D01*
X0143201Y0070094D01*
X0143254Y0069999D01*
X0143304Y0069903D01*
X0143350Y0069805D01*
X0143393Y0069705D01*
X0143432Y0069604D01*
X0143467Y0069501D01*
X0143499Y0069398D01*
X0143526Y0069293D01*
X0143550Y0069187D01*
X0143570Y0069080D01*
X0143586Y0068973D01*
X0143598Y0068865D01*
X0143606Y0068757D01*
X0143610Y0068648D01*
X0143610Y0068540D01*
X0143606Y0068431D01*
X0143598Y0068323D01*
X0143586Y0068215D01*
X0143570Y0068108D01*
X0143550Y0068001D01*
X0143526Y0067895D01*
X0143499Y0067790D01*
X0143467Y0067687D01*
X0143432Y0067584D01*
X0143393Y0067483D01*
X0143350Y0067383D01*
X0143304Y0067285D01*
X0143254Y0067189D01*
X0143201Y0067094D01*
X0143144Y0067002D01*
X0143084Y0066911D01*
X0143020Y0066823D01*
X0142954Y0066738D01*
X0142884Y0066655D01*
X0142811Y0066574D01*
X0142735Y0066496D01*
X0142657Y0066421D01*
X0142576Y0066349D01*
X0142492Y0066280D01*
X0142406Y0066215D01*
X0142317Y0066152D01*
X0142226Y0066093D01*
X0142134Y0066037D01*
X0142039Y0065984D01*
X0141942Y0065935D01*
X0141843Y0065890D01*
X0141743Y0065848D01*
X0141641Y0065810D01*
X0141539Y0065776D01*
X0141434Y0065745D01*
X0141329Y0065719D01*
X0141223Y0065696D01*
X0141116Y0065677D01*
X0141009Y0065662D01*
X0140901Y0065651D01*
X0140793Y0065644D01*
X0140684Y0065641D01*
X0140576Y0065642D01*
X0140467Y0065647D01*
X0140359Y0065656D01*
X0140251Y0065669D01*
X0140144Y0065686D01*
X0140038Y0065707D01*
X0139932Y0065731D01*
X0139827Y0065760D01*
X0139724Y0065792D01*
X0139622Y0065828D01*
X0139521Y0065868D01*
X0139421Y0065912D01*
X0139324Y0065959D01*
X0139228Y0066010D01*
X0139134Y0066064D01*
X0139042Y0066122D01*
X0138952Y0066183D01*
X0138865Y0066247D01*
X0138780Y0066315D01*
X0138697Y0066385D01*
X0138617Y0066459D01*
X0138540Y0066535D01*
X0138466Y0066614D01*
X0138395Y0066696D01*
X0138327Y0066780D01*
X0138262Y0066867D01*
X0138200Y0066956D01*
X0138141Y0067048D01*
X0138086Y0067141D01*
X0138035Y0067236D01*
X0137986Y0067334D01*
X0137942Y0067433D01*
X0137901Y0067533D01*
X0137864Y0067635D01*
X0137831Y0067738D01*
X0137801Y0067843D01*
X0137775Y0067948D01*
X0137754Y0068055D01*
X0137736Y0068162D01*
X0137722Y0068269D01*
X0137712Y0068377D01*
X0137706Y0068486D01*
X0137704Y0068594D01*
X0117724Y0068988D02*
X0117726Y0069096D01*
X0117732Y0069205D01*
X0117742Y0069313D01*
X0117756Y0069420D01*
X0117774Y0069527D01*
X0117795Y0069634D01*
X0117821Y0069739D01*
X0117851Y0069844D01*
X0117884Y0069947D01*
X0117921Y0070049D01*
X0117962Y0070149D01*
X0118006Y0070248D01*
X0118055Y0070346D01*
X0118106Y0070441D01*
X0118161Y0070534D01*
X0118220Y0070626D01*
X0118282Y0070715D01*
X0118347Y0070802D01*
X0118415Y0070886D01*
X0118486Y0070968D01*
X0118560Y0071047D01*
X0118637Y0071123D01*
X0118717Y0071197D01*
X0118800Y0071267D01*
X0118885Y0071335D01*
X0118972Y0071399D01*
X0119062Y0071460D01*
X0119154Y0071518D01*
X0119248Y0071572D01*
X0119344Y0071623D01*
X0119441Y0071670D01*
X0119541Y0071714D01*
X0119642Y0071754D01*
X0119744Y0071790D01*
X0119847Y0071822D01*
X0119952Y0071851D01*
X0120058Y0071875D01*
X0120164Y0071896D01*
X0120271Y0071913D01*
X0120379Y0071926D01*
X0120487Y0071935D01*
X0120596Y0071940D01*
X0120704Y0071941D01*
X0120813Y0071938D01*
X0120921Y0071931D01*
X0121029Y0071920D01*
X0121136Y0071905D01*
X0121243Y0071886D01*
X0121349Y0071863D01*
X0121454Y0071837D01*
X0121559Y0071806D01*
X0121661Y0071772D01*
X0121763Y0071734D01*
X0121863Y0071692D01*
X0121962Y0071647D01*
X0122059Y0071598D01*
X0122153Y0071545D01*
X0122246Y0071489D01*
X0122337Y0071430D01*
X0122426Y0071367D01*
X0122512Y0071302D01*
X0122596Y0071233D01*
X0122677Y0071161D01*
X0122755Y0071086D01*
X0122831Y0071008D01*
X0122904Y0070927D01*
X0122974Y0070844D01*
X0123040Y0070759D01*
X0123104Y0070671D01*
X0123164Y0070580D01*
X0123221Y0070488D01*
X0123274Y0070393D01*
X0123324Y0070297D01*
X0123370Y0070199D01*
X0123413Y0070099D01*
X0123452Y0069998D01*
X0123487Y0069895D01*
X0123519Y0069792D01*
X0123546Y0069687D01*
X0123570Y0069581D01*
X0123590Y0069474D01*
X0123606Y0069367D01*
X0123618Y0069259D01*
X0123626Y0069151D01*
X0123630Y0069042D01*
X0123630Y0068934D01*
X0123626Y0068825D01*
X0123618Y0068717D01*
X0123606Y0068609D01*
X0123590Y0068502D01*
X0123570Y0068395D01*
X0123546Y0068289D01*
X0123519Y0068184D01*
X0123487Y0068081D01*
X0123452Y0067978D01*
X0123413Y0067877D01*
X0123370Y0067777D01*
X0123324Y0067679D01*
X0123274Y0067583D01*
X0123221Y0067488D01*
X0123164Y0067396D01*
X0123104Y0067305D01*
X0123040Y0067217D01*
X0122974Y0067132D01*
X0122904Y0067049D01*
X0122831Y0066968D01*
X0122755Y0066890D01*
X0122677Y0066815D01*
X0122596Y0066743D01*
X0122512Y0066674D01*
X0122426Y0066609D01*
X0122337Y0066546D01*
X0122246Y0066487D01*
X0122154Y0066431D01*
X0122059Y0066378D01*
X0121962Y0066329D01*
X0121863Y0066284D01*
X0121763Y0066242D01*
X0121661Y0066204D01*
X0121559Y0066170D01*
X0121454Y0066139D01*
X0121349Y0066113D01*
X0121243Y0066090D01*
X0121136Y0066071D01*
X0121029Y0066056D01*
X0120921Y0066045D01*
X0120813Y0066038D01*
X0120704Y0066035D01*
X0120596Y0066036D01*
X0120487Y0066041D01*
X0120379Y0066050D01*
X0120271Y0066063D01*
X0120164Y0066080D01*
X0120058Y0066101D01*
X0119952Y0066125D01*
X0119847Y0066154D01*
X0119744Y0066186D01*
X0119642Y0066222D01*
X0119541Y0066262D01*
X0119441Y0066306D01*
X0119344Y0066353D01*
X0119248Y0066404D01*
X0119154Y0066458D01*
X0119062Y0066516D01*
X0118972Y0066577D01*
X0118885Y0066641D01*
X0118800Y0066709D01*
X0118717Y0066779D01*
X0118637Y0066853D01*
X0118560Y0066929D01*
X0118486Y0067008D01*
X0118415Y0067090D01*
X0118347Y0067174D01*
X0118282Y0067261D01*
X0118220Y0067350D01*
X0118161Y0067442D01*
X0118106Y0067535D01*
X0118055Y0067630D01*
X0118006Y0067728D01*
X0117962Y0067827D01*
X0117921Y0067927D01*
X0117884Y0068029D01*
X0117851Y0068132D01*
X0117821Y0068237D01*
X0117795Y0068342D01*
X0117774Y0068449D01*
X0117756Y0068556D01*
X0117742Y0068663D01*
X0117732Y0068771D01*
X0117726Y0068880D01*
X0117724Y0068988D01*
X0078354Y0068988D02*
X0078356Y0069096D01*
X0078362Y0069205D01*
X0078372Y0069313D01*
X0078386Y0069420D01*
X0078404Y0069527D01*
X0078425Y0069634D01*
X0078451Y0069739D01*
X0078481Y0069844D01*
X0078514Y0069947D01*
X0078551Y0070049D01*
X0078592Y0070149D01*
X0078636Y0070248D01*
X0078685Y0070346D01*
X0078736Y0070441D01*
X0078791Y0070534D01*
X0078850Y0070626D01*
X0078912Y0070715D01*
X0078977Y0070802D01*
X0079045Y0070886D01*
X0079116Y0070968D01*
X0079190Y0071047D01*
X0079267Y0071123D01*
X0079347Y0071197D01*
X0079430Y0071267D01*
X0079515Y0071335D01*
X0079602Y0071399D01*
X0079692Y0071460D01*
X0079784Y0071518D01*
X0079878Y0071572D01*
X0079974Y0071623D01*
X0080071Y0071670D01*
X0080171Y0071714D01*
X0080272Y0071754D01*
X0080374Y0071790D01*
X0080477Y0071822D01*
X0080582Y0071851D01*
X0080688Y0071875D01*
X0080794Y0071896D01*
X0080901Y0071913D01*
X0081009Y0071926D01*
X0081117Y0071935D01*
X0081226Y0071940D01*
X0081334Y0071941D01*
X0081443Y0071938D01*
X0081551Y0071931D01*
X0081659Y0071920D01*
X0081766Y0071905D01*
X0081873Y0071886D01*
X0081979Y0071863D01*
X0082084Y0071837D01*
X0082189Y0071806D01*
X0082291Y0071772D01*
X0082393Y0071734D01*
X0082493Y0071692D01*
X0082592Y0071647D01*
X0082689Y0071598D01*
X0082783Y0071545D01*
X0082876Y0071489D01*
X0082967Y0071430D01*
X0083056Y0071367D01*
X0083142Y0071302D01*
X0083226Y0071233D01*
X0083307Y0071161D01*
X0083385Y0071086D01*
X0083461Y0071008D01*
X0083534Y0070927D01*
X0083604Y0070844D01*
X0083670Y0070759D01*
X0083734Y0070671D01*
X0083794Y0070580D01*
X0083851Y0070488D01*
X0083904Y0070393D01*
X0083954Y0070297D01*
X0084000Y0070199D01*
X0084043Y0070099D01*
X0084082Y0069998D01*
X0084117Y0069895D01*
X0084149Y0069792D01*
X0084176Y0069687D01*
X0084200Y0069581D01*
X0084220Y0069474D01*
X0084236Y0069367D01*
X0084248Y0069259D01*
X0084256Y0069151D01*
X0084260Y0069042D01*
X0084260Y0068934D01*
X0084256Y0068825D01*
X0084248Y0068717D01*
X0084236Y0068609D01*
X0084220Y0068502D01*
X0084200Y0068395D01*
X0084176Y0068289D01*
X0084149Y0068184D01*
X0084117Y0068081D01*
X0084082Y0067978D01*
X0084043Y0067877D01*
X0084000Y0067777D01*
X0083954Y0067679D01*
X0083904Y0067583D01*
X0083851Y0067488D01*
X0083794Y0067396D01*
X0083734Y0067305D01*
X0083670Y0067217D01*
X0083604Y0067132D01*
X0083534Y0067049D01*
X0083461Y0066968D01*
X0083385Y0066890D01*
X0083307Y0066815D01*
X0083226Y0066743D01*
X0083142Y0066674D01*
X0083056Y0066609D01*
X0082967Y0066546D01*
X0082876Y0066487D01*
X0082784Y0066431D01*
X0082689Y0066378D01*
X0082592Y0066329D01*
X0082493Y0066284D01*
X0082393Y0066242D01*
X0082291Y0066204D01*
X0082189Y0066170D01*
X0082084Y0066139D01*
X0081979Y0066113D01*
X0081873Y0066090D01*
X0081766Y0066071D01*
X0081659Y0066056D01*
X0081551Y0066045D01*
X0081443Y0066038D01*
X0081334Y0066035D01*
X0081226Y0066036D01*
X0081117Y0066041D01*
X0081009Y0066050D01*
X0080901Y0066063D01*
X0080794Y0066080D01*
X0080688Y0066101D01*
X0080582Y0066125D01*
X0080477Y0066154D01*
X0080374Y0066186D01*
X0080272Y0066222D01*
X0080171Y0066262D01*
X0080071Y0066306D01*
X0079974Y0066353D01*
X0079878Y0066404D01*
X0079784Y0066458D01*
X0079692Y0066516D01*
X0079602Y0066577D01*
X0079515Y0066641D01*
X0079430Y0066709D01*
X0079347Y0066779D01*
X0079267Y0066853D01*
X0079190Y0066929D01*
X0079116Y0067008D01*
X0079045Y0067090D01*
X0078977Y0067174D01*
X0078912Y0067261D01*
X0078850Y0067350D01*
X0078791Y0067442D01*
X0078736Y0067535D01*
X0078685Y0067630D01*
X0078636Y0067728D01*
X0078592Y0067827D01*
X0078551Y0067927D01*
X0078514Y0068029D01*
X0078481Y0068132D01*
X0078451Y0068237D01*
X0078425Y0068342D01*
X0078404Y0068449D01*
X0078386Y0068556D01*
X0078372Y0068663D01*
X0078362Y0068771D01*
X0078356Y0068880D01*
X0078354Y0068988D01*
X0177075Y0068594D02*
X0177077Y0068702D01*
X0177083Y0068811D01*
X0177093Y0068919D01*
X0177107Y0069026D01*
X0177125Y0069133D01*
X0177146Y0069240D01*
X0177172Y0069345D01*
X0177202Y0069450D01*
X0177235Y0069553D01*
X0177272Y0069655D01*
X0177313Y0069755D01*
X0177357Y0069854D01*
X0177406Y0069952D01*
X0177457Y0070047D01*
X0177512Y0070140D01*
X0177571Y0070232D01*
X0177633Y0070321D01*
X0177698Y0070408D01*
X0177766Y0070492D01*
X0177837Y0070574D01*
X0177911Y0070653D01*
X0177988Y0070729D01*
X0178068Y0070803D01*
X0178151Y0070873D01*
X0178236Y0070941D01*
X0178323Y0071005D01*
X0178413Y0071066D01*
X0178505Y0071124D01*
X0178599Y0071178D01*
X0178695Y0071229D01*
X0178792Y0071276D01*
X0178892Y0071320D01*
X0178993Y0071360D01*
X0179095Y0071396D01*
X0179198Y0071428D01*
X0179303Y0071457D01*
X0179409Y0071481D01*
X0179515Y0071502D01*
X0179622Y0071519D01*
X0179730Y0071532D01*
X0179838Y0071541D01*
X0179947Y0071546D01*
X0180055Y0071547D01*
X0180164Y0071544D01*
X0180272Y0071537D01*
X0180380Y0071526D01*
X0180487Y0071511D01*
X0180594Y0071492D01*
X0180700Y0071469D01*
X0180805Y0071443D01*
X0180910Y0071412D01*
X0181012Y0071378D01*
X0181114Y0071340D01*
X0181214Y0071298D01*
X0181313Y0071253D01*
X0181410Y0071204D01*
X0181504Y0071151D01*
X0181597Y0071095D01*
X0181688Y0071036D01*
X0181777Y0070973D01*
X0181863Y0070908D01*
X0181947Y0070839D01*
X0182028Y0070767D01*
X0182106Y0070692D01*
X0182182Y0070614D01*
X0182255Y0070533D01*
X0182325Y0070450D01*
X0182391Y0070365D01*
X0182455Y0070277D01*
X0182515Y0070186D01*
X0182572Y0070094D01*
X0182625Y0069999D01*
X0182675Y0069903D01*
X0182721Y0069805D01*
X0182764Y0069705D01*
X0182803Y0069604D01*
X0182838Y0069501D01*
X0182870Y0069398D01*
X0182897Y0069293D01*
X0182921Y0069187D01*
X0182941Y0069080D01*
X0182957Y0068973D01*
X0182969Y0068865D01*
X0182977Y0068757D01*
X0182981Y0068648D01*
X0182981Y0068540D01*
X0182977Y0068431D01*
X0182969Y0068323D01*
X0182957Y0068215D01*
X0182941Y0068108D01*
X0182921Y0068001D01*
X0182897Y0067895D01*
X0182870Y0067790D01*
X0182838Y0067687D01*
X0182803Y0067584D01*
X0182764Y0067483D01*
X0182721Y0067383D01*
X0182675Y0067285D01*
X0182625Y0067189D01*
X0182572Y0067094D01*
X0182515Y0067002D01*
X0182455Y0066911D01*
X0182391Y0066823D01*
X0182325Y0066738D01*
X0182255Y0066655D01*
X0182182Y0066574D01*
X0182106Y0066496D01*
X0182028Y0066421D01*
X0181947Y0066349D01*
X0181863Y0066280D01*
X0181777Y0066215D01*
X0181688Y0066152D01*
X0181597Y0066093D01*
X0181505Y0066037D01*
X0181410Y0065984D01*
X0181313Y0065935D01*
X0181214Y0065890D01*
X0181114Y0065848D01*
X0181012Y0065810D01*
X0180910Y0065776D01*
X0180805Y0065745D01*
X0180700Y0065719D01*
X0180594Y0065696D01*
X0180487Y0065677D01*
X0180380Y0065662D01*
X0180272Y0065651D01*
X0180164Y0065644D01*
X0180055Y0065641D01*
X0179947Y0065642D01*
X0179838Y0065647D01*
X0179730Y0065656D01*
X0179622Y0065669D01*
X0179515Y0065686D01*
X0179409Y0065707D01*
X0179303Y0065731D01*
X0179198Y0065760D01*
X0179095Y0065792D01*
X0178993Y0065828D01*
X0178892Y0065868D01*
X0178792Y0065912D01*
X0178695Y0065959D01*
X0178599Y0066010D01*
X0178505Y0066064D01*
X0178413Y0066122D01*
X0178323Y0066183D01*
X0178236Y0066247D01*
X0178151Y0066315D01*
X0178068Y0066385D01*
X0177988Y0066459D01*
X0177911Y0066535D01*
X0177837Y0066614D01*
X0177766Y0066696D01*
X0177698Y0066780D01*
X0177633Y0066867D01*
X0177571Y0066956D01*
X0177512Y0067048D01*
X0177457Y0067141D01*
X0177406Y0067236D01*
X0177357Y0067334D01*
X0177313Y0067433D01*
X0177272Y0067533D01*
X0177235Y0067635D01*
X0177202Y0067738D01*
X0177172Y0067843D01*
X0177146Y0067948D01*
X0177125Y0068055D01*
X0177107Y0068162D01*
X0177093Y0068269D01*
X0177083Y0068377D01*
X0177077Y0068486D01*
X0177075Y0068594D01*
X0197449Y0069382D02*
X0197451Y0069490D01*
X0197457Y0069599D01*
X0197467Y0069707D01*
X0197481Y0069814D01*
X0197499Y0069921D01*
X0197520Y0070028D01*
X0197546Y0070133D01*
X0197576Y0070238D01*
X0197609Y0070341D01*
X0197646Y0070443D01*
X0197687Y0070543D01*
X0197731Y0070642D01*
X0197780Y0070740D01*
X0197831Y0070835D01*
X0197886Y0070928D01*
X0197945Y0071020D01*
X0198007Y0071109D01*
X0198072Y0071196D01*
X0198140Y0071280D01*
X0198211Y0071362D01*
X0198285Y0071441D01*
X0198362Y0071517D01*
X0198442Y0071591D01*
X0198525Y0071661D01*
X0198610Y0071729D01*
X0198697Y0071793D01*
X0198787Y0071854D01*
X0198879Y0071912D01*
X0198973Y0071966D01*
X0199069Y0072017D01*
X0199166Y0072064D01*
X0199266Y0072108D01*
X0199367Y0072148D01*
X0199469Y0072184D01*
X0199572Y0072216D01*
X0199677Y0072245D01*
X0199783Y0072269D01*
X0199889Y0072290D01*
X0199996Y0072307D01*
X0200104Y0072320D01*
X0200212Y0072329D01*
X0200321Y0072334D01*
X0200429Y0072335D01*
X0200538Y0072332D01*
X0200646Y0072325D01*
X0200754Y0072314D01*
X0200861Y0072299D01*
X0200968Y0072280D01*
X0201074Y0072257D01*
X0201179Y0072231D01*
X0201284Y0072200D01*
X0201386Y0072166D01*
X0201488Y0072128D01*
X0201588Y0072086D01*
X0201687Y0072041D01*
X0201784Y0071992D01*
X0201878Y0071939D01*
X0201971Y0071883D01*
X0202062Y0071824D01*
X0202151Y0071761D01*
X0202237Y0071696D01*
X0202321Y0071627D01*
X0202402Y0071555D01*
X0202480Y0071480D01*
X0202556Y0071402D01*
X0202629Y0071321D01*
X0202699Y0071238D01*
X0202765Y0071153D01*
X0202829Y0071065D01*
X0202889Y0070974D01*
X0202946Y0070882D01*
X0202999Y0070787D01*
X0203049Y0070691D01*
X0203095Y0070593D01*
X0203138Y0070493D01*
X0203177Y0070392D01*
X0203212Y0070289D01*
X0203244Y0070186D01*
X0203271Y0070081D01*
X0203295Y0069975D01*
X0203315Y0069868D01*
X0203331Y0069761D01*
X0203343Y0069653D01*
X0203351Y0069545D01*
X0203355Y0069436D01*
X0203355Y0069328D01*
X0203351Y0069219D01*
X0203343Y0069111D01*
X0203331Y0069003D01*
X0203315Y0068896D01*
X0203295Y0068789D01*
X0203271Y0068683D01*
X0203244Y0068578D01*
X0203212Y0068475D01*
X0203177Y0068372D01*
X0203138Y0068271D01*
X0203095Y0068171D01*
X0203049Y0068073D01*
X0202999Y0067977D01*
X0202946Y0067882D01*
X0202889Y0067790D01*
X0202829Y0067699D01*
X0202765Y0067611D01*
X0202699Y0067526D01*
X0202629Y0067443D01*
X0202556Y0067362D01*
X0202480Y0067284D01*
X0202402Y0067209D01*
X0202321Y0067137D01*
X0202237Y0067068D01*
X0202151Y0067003D01*
X0202062Y0066940D01*
X0201971Y0066881D01*
X0201879Y0066825D01*
X0201784Y0066772D01*
X0201687Y0066723D01*
X0201588Y0066678D01*
X0201488Y0066636D01*
X0201386Y0066598D01*
X0201284Y0066564D01*
X0201179Y0066533D01*
X0201074Y0066507D01*
X0200968Y0066484D01*
X0200861Y0066465D01*
X0200754Y0066450D01*
X0200646Y0066439D01*
X0200538Y0066432D01*
X0200429Y0066429D01*
X0200321Y0066430D01*
X0200212Y0066435D01*
X0200104Y0066444D01*
X0199996Y0066457D01*
X0199889Y0066474D01*
X0199783Y0066495D01*
X0199677Y0066519D01*
X0199572Y0066548D01*
X0199469Y0066580D01*
X0199367Y0066616D01*
X0199266Y0066656D01*
X0199166Y0066700D01*
X0199069Y0066747D01*
X0198973Y0066798D01*
X0198879Y0066852D01*
X0198787Y0066910D01*
X0198697Y0066971D01*
X0198610Y0067035D01*
X0198525Y0067103D01*
X0198442Y0067173D01*
X0198362Y0067247D01*
X0198285Y0067323D01*
X0198211Y0067402D01*
X0198140Y0067484D01*
X0198072Y0067568D01*
X0198007Y0067655D01*
X0197945Y0067744D01*
X0197886Y0067836D01*
X0197831Y0067929D01*
X0197780Y0068024D01*
X0197731Y0068122D01*
X0197687Y0068221D01*
X0197646Y0068321D01*
X0197609Y0068423D01*
X0197576Y0068526D01*
X0197546Y0068631D01*
X0197520Y0068736D01*
X0197499Y0068843D01*
X0197481Y0068950D01*
X0197467Y0069057D01*
X0197457Y0069165D01*
X0197451Y0069274D01*
X0197449Y0069382D01*
X0236819Y0069382D02*
X0236821Y0069490D01*
X0236827Y0069599D01*
X0236837Y0069707D01*
X0236851Y0069814D01*
X0236869Y0069921D01*
X0236890Y0070028D01*
X0236916Y0070133D01*
X0236946Y0070238D01*
X0236979Y0070341D01*
X0237016Y0070443D01*
X0237057Y0070543D01*
X0237101Y0070642D01*
X0237150Y0070740D01*
X0237201Y0070835D01*
X0237256Y0070928D01*
X0237315Y0071020D01*
X0237377Y0071109D01*
X0237442Y0071196D01*
X0237510Y0071280D01*
X0237581Y0071362D01*
X0237655Y0071441D01*
X0237732Y0071517D01*
X0237812Y0071591D01*
X0237895Y0071661D01*
X0237980Y0071729D01*
X0238067Y0071793D01*
X0238157Y0071854D01*
X0238249Y0071912D01*
X0238343Y0071966D01*
X0238439Y0072017D01*
X0238536Y0072064D01*
X0238636Y0072108D01*
X0238737Y0072148D01*
X0238839Y0072184D01*
X0238942Y0072216D01*
X0239047Y0072245D01*
X0239153Y0072269D01*
X0239259Y0072290D01*
X0239366Y0072307D01*
X0239474Y0072320D01*
X0239582Y0072329D01*
X0239691Y0072334D01*
X0239799Y0072335D01*
X0239908Y0072332D01*
X0240016Y0072325D01*
X0240124Y0072314D01*
X0240231Y0072299D01*
X0240338Y0072280D01*
X0240444Y0072257D01*
X0240549Y0072231D01*
X0240654Y0072200D01*
X0240756Y0072166D01*
X0240858Y0072128D01*
X0240958Y0072086D01*
X0241057Y0072041D01*
X0241154Y0071992D01*
X0241248Y0071939D01*
X0241341Y0071883D01*
X0241432Y0071824D01*
X0241521Y0071761D01*
X0241607Y0071696D01*
X0241691Y0071627D01*
X0241772Y0071555D01*
X0241850Y0071480D01*
X0241926Y0071402D01*
X0241999Y0071321D01*
X0242069Y0071238D01*
X0242135Y0071153D01*
X0242199Y0071065D01*
X0242259Y0070974D01*
X0242316Y0070882D01*
X0242369Y0070787D01*
X0242419Y0070691D01*
X0242465Y0070593D01*
X0242508Y0070493D01*
X0242547Y0070392D01*
X0242582Y0070289D01*
X0242614Y0070186D01*
X0242641Y0070081D01*
X0242665Y0069975D01*
X0242685Y0069868D01*
X0242701Y0069761D01*
X0242713Y0069653D01*
X0242721Y0069545D01*
X0242725Y0069436D01*
X0242725Y0069328D01*
X0242721Y0069219D01*
X0242713Y0069111D01*
X0242701Y0069003D01*
X0242685Y0068896D01*
X0242665Y0068789D01*
X0242641Y0068683D01*
X0242614Y0068578D01*
X0242582Y0068475D01*
X0242547Y0068372D01*
X0242508Y0068271D01*
X0242465Y0068171D01*
X0242419Y0068073D01*
X0242369Y0067977D01*
X0242316Y0067882D01*
X0242259Y0067790D01*
X0242199Y0067699D01*
X0242135Y0067611D01*
X0242069Y0067526D01*
X0241999Y0067443D01*
X0241926Y0067362D01*
X0241850Y0067284D01*
X0241772Y0067209D01*
X0241691Y0067137D01*
X0241607Y0067068D01*
X0241521Y0067003D01*
X0241432Y0066940D01*
X0241341Y0066881D01*
X0241249Y0066825D01*
X0241154Y0066772D01*
X0241057Y0066723D01*
X0240958Y0066678D01*
X0240858Y0066636D01*
X0240756Y0066598D01*
X0240654Y0066564D01*
X0240549Y0066533D01*
X0240444Y0066507D01*
X0240338Y0066484D01*
X0240231Y0066465D01*
X0240124Y0066450D01*
X0240016Y0066439D01*
X0239908Y0066432D01*
X0239799Y0066429D01*
X0239691Y0066430D01*
X0239582Y0066435D01*
X0239474Y0066444D01*
X0239366Y0066457D01*
X0239259Y0066474D01*
X0239153Y0066495D01*
X0239047Y0066519D01*
X0238942Y0066548D01*
X0238839Y0066580D01*
X0238737Y0066616D01*
X0238636Y0066656D01*
X0238536Y0066700D01*
X0238439Y0066747D01*
X0238343Y0066798D01*
X0238249Y0066852D01*
X0238157Y0066910D01*
X0238067Y0066971D01*
X0237980Y0067035D01*
X0237895Y0067103D01*
X0237812Y0067173D01*
X0237732Y0067247D01*
X0237655Y0067323D01*
X0237581Y0067402D01*
X0237510Y0067484D01*
X0237442Y0067568D01*
X0237377Y0067655D01*
X0237315Y0067744D01*
X0237256Y0067836D01*
X0237201Y0067929D01*
X0237150Y0068024D01*
X0237101Y0068122D01*
X0237057Y0068221D01*
X0237016Y0068321D01*
X0236979Y0068423D01*
X0236946Y0068526D01*
X0236916Y0068631D01*
X0236890Y0068736D01*
X0236869Y0068843D01*
X0236851Y0068950D01*
X0236837Y0069057D01*
X0236827Y0069165D01*
X0236821Y0069274D01*
X0236819Y0069382D01*
X0255980Y0077043D02*
X0255982Y0077196D01*
X0255988Y0077350D01*
X0255998Y0077503D01*
X0256012Y0077655D01*
X0256030Y0077808D01*
X0256052Y0077959D01*
X0256077Y0078110D01*
X0256107Y0078261D01*
X0256141Y0078411D01*
X0256178Y0078559D01*
X0256219Y0078707D01*
X0256264Y0078853D01*
X0256313Y0078999D01*
X0256366Y0079143D01*
X0256422Y0079285D01*
X0256482Y0079426D01*
X0256546Y0079566D01*
X0256613Y0079704D01*
X0256684Y0079840D01*
X0256759Y0079974D01*
X0256836Y0080106D01*
X0256918Y0080236D01*
X0257002Y0080364D01*
X0257090Y0080490D01*
X0257181Y0080613D01*
X0257275Y0080734D01*
X0257373Y0080852D01*
X0257473Y0080968D01*
X0257577Y0081081D01*
X0257683Y0081192D01*
X0257792Y0081300D01*
X0257904Y0081405D01*
X0258018Y0081506D01*
X0258136Y0081605D01*
X0258255Y0081701D01*
X0258377Y0081794D01*
X0258502Y0081883D01*
X0258629Y0081970D01*
X0258758Y0082052D01*
X0258889Y0082132D01*
X0259022Y0082208D01*
X0259157Y0082281D01*
X0259294Y0082350D01*
X0259433Y0082415D01*
X0259573Y0082477D01*
X0259715Y0082535D01*
X0259858Y0082590D01*
X0260003Y0082641D01*
X0260149Y0082688D01*
X0260296Y0082731D01*
X0260444Y0082770D01*
X0260593Y0082806D01*
X0260743Y0082837D01*
X0260894Y0082865D01*
X0261045Y0082889D01*
X0261198Y0082909D01*
X0261350Y0082925D01*
X0261503Y0082937D01*
X0261656Y0082945D01*
X0261809Y0082949D01*
X0261963Y0082949D01*
X0262116Y0082945D01*
X0262269Y0082937D01*
X0262422Y0082925D01*
X0262574Y0082909D01*
X0262727Y0082889D01*
X0262878Y0082865D01*
X0263029Y0082837D01*
X0263179Y0082806D01*
X0263328Y0082770D01*
X0263476Y0082731D01*
X0263623Y0082688D01*
X0263769Y0082641D01*
X0263914Y0082590D01*
X0264057Y0082535D01*
X0264199Y0082477D01*
X0264339Y0082415D01*
X0264478Y0082350D01*
X0264615Y0082281D01*
X0264750Y0082208D01*
X0264883Y0082132D01*
X0265014Y0082052D01*
X0265143Y0081970D01*
X0265270Y0081883D01*
X0265395Y0081794D01*
X0265517Y0081701D01*
X0265636Y0081605D01*
X0265754Y0081506D01*
X0265868Y0081405D01*
X0265980Y0081300D01*
X0266089Y0081192D01*
X0266195Y0081081D01*
X0266299Y0080968D01*
X0266399Y0080852D01*
X0266497Y0080734D01*
X0266591Y0080613D01*
X0266682Y0080490D01*
X0266770Y0080364D01*
X0266854Y0080236D01*
X0266936Y0080106D01*
X0267013Y0079974D01*
X0267088Y0079840D01*
X0267159Y0079704D01*
X0267226Y0079566D01*
X0267290Y0079426D01*
X0267350Y0079285D01*
X0267406Y0079143D01*
X0267459Y0078999D01*
X0267508Y0078853D01*
X0267553Y0078707D01*
X0267594Y0078559D01*
X0267631Y0078411D01*
X0267665Y0078261D01*
X0267695Y0078110D01*
X0267720Y0077959D01*
X0267742Y0077808D01*
X0267760Y0077655D01*
X0267774Y0077503D01*
X0267784Y0077350D01*
X0267790Y0077196D01*
X0267792Y0077043D01*
X0267790Y0076890D01*
X0267784Y0076736D01*
X0267774Y0076583D01*
X0267760Y0076431D01*
X0267742Y0076278D01*
X0267720Y0076127D01*
X0267695Y0075976D01*
X0267665Y0075825D01*
X0267631Y0075675D01*
X0267594Y0075527D01*
X0267553Y0075379D01*
X0267508Y0075233D01*
X0267459Y0075087D01*
X0267406Y0074943D01*
X0267350Y0074801D01*
X0267290Y0074660D01*
X0267226Y0074520D01*
X0267159Y0074382D01*
X0267088Y0074246D01*
X0267013Y0074112D01*
X0266936Y0073980D01*
X0266854Y0073850D01*
X0266770Y0073722D01*
X0266682Y0073596D01*
X0266591Y0073473D01*
X0266497Y0073352D01*
X0266399Y0073234D01*
X0266299Y0073118D01*
X0266195Y0073005D01*
X0266089Y0072894D01*
X0265980Y0072786D01*
X0265868Y0072681D01*
X0265754Y0072580D01*
X0265636Y0072481D01*
X0265517Y0072385D01*
X0265395Y0072292D01*
X0265270Y0072203D01*
X0265143Y0072116D01*
X0265014Y0072034D01*
X0264883Y0071954D01*
X0264750Y0071878D01*
X0264615Y0071805D01*
X0264478Y0071736D01*
X0264339Y0071671D01*
X0264199Y0071609D01*
X0264057Y0071551D01*
X0263914Y0071496D01*
X0263769Y0071445D01*
X0263623Y0071398D01*
X0263476Y0071355D01*
X0263328Y0071316D01*
X0263179Y0071280D01*
X0263029Y0071249D01*
X0262878Y0071221D01*
X0262727Y0071197D01*
X0262574Y0071177D01*
X0262422Y0071161D01*
X0262269Y0071149D01*
X0262116Y0071141D01*
X0261963Y0071137D01*
X0261809Y0071137D01*
X0261656Y0071141D01*
X0261503Y0071149D01*
X0261350Y0071161D01*
X0261198Y0071177D01*
X0261045Y0071197D01*
X0260894Y0071221D01*
X0260743Y0071249D01*
X0260593Y0071280D01*
X0260444Y0071316D01*
X0260296Y0071355D01*
X0260149Y0071398D01*
X0260003Y0071445D01*
X0259858Y0071496D01*
X0259715Y0071551D01*
X0259573Y0071609D01*
X0259433Y0071671D01*
X0259294Y0071736D01*
X0259157Y0071805D01*
X0259022Y0071878D01*
X0258889Y0071954D01*
X0258758Y0072034D01*
X0258629Y0072116D01*
X0258502Y0072203D01*
X0258377Y0072292D01*
X0258255Y0072385D01*
X0258136Y0072481D01*
X0258018Y0072580D01*
X0257904Y0072681D01*
X0257792Y0072786D01*
X0257683Y0072894D01*
X0257577Y0073005D01*
X0257473Y0073118D01*
X0257373Y0073234D01*
X0257275Y0073352D01*
X0257181Y0073473D01*
X0257090Y0073596D01*
X0257002Y0073722D01*
X0256918Y0073850D01*
X0256836Y0073980D01*
X0256759Y0074112D01*
X0256684Y0074246D01*
X0256613Y0074382D01*
X0256546Y0074520D01*
X0256482Y0074660D01*
X0256422Y0074801D01*
X0256366Y0074943D01*
X0256313Y0075087D01*
X0256264Y0075233D01*
X0256219Y0075379D01*
X0256178Y0075527D01*
X0256141Y0075675D01*
X0256107Y0075825D01*
X0256077Y0075976D01*
X0256052Y0076127D01*
X0256030Y0076278D01*
X0256012Y0076431D01*
X0255998Y0076583D01*
X0255988Y0076736D01*
X0255982Y0076890D01*
X0255980Y0077043D01*
X0255980Y0340823D02*
X0255982Y0340976D01*
X0255988Y0341130D01*
X0255998Y0341283D01*
X0256012Y0341435D01*
X0256030Y0341588D01*
X0256052Y0341739D01*
X0256077Y0341890D01*
X0256107Y0342041D01*
X0256141Y0342191D01*
X0256178Y0342339D01*
X0256219Y0342487D01*
X0256264Y0342633D01*
X0256313Y0342779D01*
X0256366Y0342923D01*
X0256422Y0343065D01*
X0256482Y0343206D01*
X0256546Y0343346D01*
X0256613Y0343484D01*
X0256684Y0343620D01*
X0256759Y0343754D01*
X0256836Y0343886D01*
X0256918Y0344016D01*
X0257002Y0344144D01*
X0257090Y0344270D01*
X0257181Y0344393D01*
X0257275Y0344514D01*
X0257373Y0344632D01*
X0257473Y0344748D01*
X0257577Y0344861D01*
X0257683Y0344972D01*
X0257792Y0345080D01*
X0257904Y0345185D01*
X0258018Y0345286D01*
X0258136Y0345385D01*
X0258255Y0345481D01*
X0258377Y0345574D01*
X0258502Y0345663D01*
X0258629Y0345750D01*
X0258758Y0345832D01*
X0258889Y0345912D01*
X0259022Y0345988D01*
X0259157Y0346061D01*
X0259294Y0346130D01*
X0259433Y0346195D01*
X0259573Y0346257D01*
X0259715Y0346315D01*
X0259858Y0346370D01*
X0260003Y0346421D01*
X0260149Y0346468D01*
X0260296Y0346511D01*
X0260444Y0346550D01*
X0260593Y0346586D01*
X0260743Y0346617D01*
X0260894Y0346645D01*
X0261045Y0346669D01*
X0261198Y0346689D01*
X0261350Y0346705D01*
X0261503Y0346717D01*
X0261656Y0346725D01*
X0261809Y0346729D01*
X0261963Y0346729D01*
X0262116Y0346725D01*
X0262269Y0346717D01*
X0262422Y0346705D01*
X0262574Y0346689D01*
X0262727Y0346669D01*
X0262878Y0346645D01*
X0263029Y0346617D01*
X0263179Y0346586D01*
X0263328Y0346550D01*
X0263476Y0346511D01*
X0263623Y0346468D01*
X0263769Y0346421D01*
X0263914Y0346370D01*
X0264057Y0346315D01*
X0264199Y0346257D01*
X0264339Y0346195D01*
X0264478Y0346130D01*
X0264615Y0346061D01*
X0264750Y0345988D01*
X0264883Y0345912D01*
X0265014Y0345832D01*
X0265143Y0345750D01*
X0265270Y0345663D01*
X0265395Y0345574D01*
X0265517Y0345481D01*
X0265636Y0345385D01*
X0265754Y0345286D01*
X0265868Y0345185D01*
X0265980Y0345080D01*
X0266089Y0344972D01*
X0266195Y0344861D01*
X0266299Y0344748D01*
X0266399Y0344632D01*
X0266497Y0344514D01*
X0266591Y0344393D01*
X0266682Y0344270D01*
X0266770Y0344144D01*
X0266854Y0344016D01*
X0266936Y0343886D01*
X0267013Y0343754D01*
X0267088Y0343620D01*
X0267159Y0343484D01*
X0267226Y0343346D01*
X0267290Y0343206D01*
X0267350Y0343065D01*
X0267406Y0342923D01*
X0267459Y0342779D01*
X0267508Y0342633D01*
X0267553Y0342487D01*
X0267594Y0342339D01*
X0267631Y0342191D01*
X0267665Y0342041D01*
X0267695Y0341890D01*
X0267720Y0341739D01*
X0267742Y0341588D01*
X0267760Y0341435D01*
X0267774Y0341283D01*
X0267784Y0341130D01*
X0267790Y0340976D01*
X0267792Y0340823D01*
X0267790Y0340670D01*
X0267784Y0340516D01*
X0267774Y0340363D01*
X0267760Y0340211D01*
X0267742Y0340058D01*
X0267720Y0339907D01*
X0267695Y0339756D01*
X0267665Y0339605D01*
X0267631Y0339455D01*
X0267594Y0339307D01*
X0267553Y0339159D01*
X0267508Y0339013D01*
X0267459Y0338867D01*
X0267406Y0338723D01*
X0267350Y0338581D01*
X0267290Y0338440D01*
X0267226Y0338300D01*
X0267159Y0338162D01*
X0267088Y0338026D01*
X0267013Y0337892D01*
X0266936Y0337760D01*
X0266854Y0337630D01*
X0266770Y0337502D01*
X0266682Y0337376D01*
X0266591Y0337253D01*
X0266497Y0337132D01*
X0266399Y0337014D01*
X0266299Y0336898D01*
X0266195Y0336785D01*
X0266089Y0336674D01*
X0265980Y0336566D01*
X0265868Y0336461D01*
X0265754Y0336360D01*
X0265636Y0336261D01*
X0265517Y0336165D01*
X0265395Y0336072D01*
X0265270Y0335983D01*
X0265143Y0335896D01*
X0265014Y0335814D01*
X0264883Y0335734D01*
X0264750Y0335658D01*
X0264615Y0335585D01*
X0264478Y0335516D01*
X0264339Y0335451D01*
X0264199Y0335389D01*
X0264057Y0335331D01*
X0263914Y0335276D01*
X0263769Y0335225D01*
X0263623Y0335178D01*
X0263476Y0335135D01*
X0263328Y0335096D01*
X0263179Y0335060D01*
X0263029Y0335029D01*
X0262878Y0335001D01*
X0262727Y0334977D01*
X0262574Y0334957D01*
X0262422Y0334941D01*
X0262269Y0334929D01*
X0262116Y0334921D01*
X0261963Y0334917D01*
X0261809Y0334917D01*
X0261656Y0334921D01*
X0261503Y0334929D01*
X0261350Y0334941D01*
X0261198Y0334957D01*
X0261045Y0334977D01*
X0260894Y0335001D01*
X0260743Y0335029D01*
X0260593Y0335060D01*
X0260444Y0335096D01*
X0260296Y0335135D01*
X0260149Y0335178D01*
X0260003Y0335225D01*
X0259858Y0335276D01*
X0259715Y0335331D01*
X0259573Y0335389D01*
X0259433Y0335451D01*
X0259294Y0335516D01*
X0259157Y0335585D01*
X0259022Y0335658D01*
X0258889Y0335734D01*
X0258758Y0335814D01*
X0258629Y0335896D01*
X0258502Y0335983D01*
X0258377Y0336072D01*
X0258255Y0336165D01*
X0258136Y0336261D01*
X0258018Y0336360D01*
X0257904Y0336461D01*
X0257792Y0336566D01*
X0257683Y0336674D01*
X0257577Y0336785D01*
X0257473Y0336898D01*
X0257373Y0337014D01*
X0257275Y0337132D01*
X0257181Y0337253D01*
X0257090Y0337376D01*
X0257002Y0337502D01*
X0256918Y0337630D01*
X0256836Y0337760D01*
X0256759Y0337892D01*
X0256684Y0338026D01*
X0256613Y0338162D01*
X0256546Y0338300D01*
X0256482Y0338440D01*
X0256422Y0338581D01*
X0256366Y0338723D01*
X0256313Y0338867D01*
X0256264Y0339013D01*
X0256219Y0339159D01*
X0256178Y0339307D01*
X0256141Y0339455D01*
X0256107Y0339605D01*
X0256077Y0339756D01*
X0256052Y0339907D01*
X0256030Y0340058D01*
X0256012Y0340211D01*
X0255998Y0340363D01*
X0255988Y0340516D01*
X0255982Y0340670D01*
X0255980Y0340823D01*
X0236216Y0352601D02*
X0236218Y0352709D01*
X0236224Y0352818D01*
X0236234Y0352926D01*
X0236248Y0353033D01*
X0236266Y0353140D01*
X0236287Y0353247D01*
X0236313Y0353352D01*
X0236343Y0353457D01*
X0236376Y0353560D01*
X0236413Y0353662D01*
X0236454Y0353762D01*
X0236498Y0353861D01*
X0236547Y0353959D01*
X0236598Y0354054D01*
X0236653Y0354147D01*
X0236712Y0354239D01*
X0236774Y0354328D01*
X0236839Y0354415D01*
X0236907Y0354499D01*
X0236978Y0354581D01*
X0237052Y0354660D01*
X0237129Y0354736D01*
X0237209Y0354810D01*
X0237292Y0354880D01*
X0237377Y0354948D01*
X0237464Y0355012D01*
X0237554Y0355073D01*
X0237646Y0355131D01*
X0237740Y0355185D01*
X0237836Y0355236D01*
X0237933Y0355283D01*
X0238033Y0355327D01*
X0238134Y0355367D01*
X0238236Y0355403D01*
X0238339Y0355435D01*
X0238444Y0355464D01*
X0238550Y0355488D01*
X0238656Y0355509D01*
X0238763Y0355526D01*
X0238871Y0355539D01*
X0238979Y0355548D01*
X0239088Y0355553D01*
X0239196Y0355554D01*
X0239305Y0355551D01*
X0239413Y0355544D01*
X0239521Y0355533D01*
X0239628Y0355518D01*
X0239735Y0355499D01*
X0239841Y0355476D01*
X0239946Y0355450D01*
X0240051Y0355419D01*
X0240153Y0355385D01*
X0240255Y0355347D01*
X0240355Y0355305D01*
X0240454Y0355260D01*
X0240551Y0355211D01*
X0240645Y0355158D01*
X0240738Y0355102D01*
X0240829Y0355043D01*
X0240918Y0354980D01*
X0241004Y0354915D01*
X0241088Y0354846D01*
X0241169Y0354774D01*
X0241247Y0354699D01*
X0241323Y0354621D01*
X0241396Y0354540D01*
X0241466Y0354457D01*
X0241532Y0354372D01*
X0241596Y0354284D01*
X0241656Y0354193D01*
X0241713Y0354101D01*
X0241766Y0354006D01*
X0241816Y0353910D01*
X0241862Y0353812D01*
X0241905Y0353712D01*
X0241944Y0353611D01*
X0241979Y0353508D01*
X0242011Y0353405D01*
X0242038Y0353300D01*
X0242062Y0353194D01*
X0242082Y0353087D01*
X0242098Y0352980D01*
X0242110Y0352872D01*
X0242118Y0352764D01*
X0242122Y0352655D01*
X0242122Y0352547D01*
X0242118Y0352438D01*
X0242110Y0352330D01*
X0242098Y0352222D01*
X0242082Y0352115D01*
X0242062Y0352008D01*
X0242038Y0351902D01*
X0242011Y0351797D01*
X0241979Y0351694D01*
X0241944Y0351591D01*
X0241905Y0351490D01*
X0241862Y0351390D01*
X0241816Y0351292D01*
X0241766Y0351196D01*
X0241713Y0351101D01*
X0241656Y0351009D01*
X0241596Y0350918D01*
X0241532Y0350830D01*
X0241466Y0350745D01*
X0241396Y0350662D01*
X0241323Y0350581D01*
X0241247Y0350503D01*
X0241169Y0350428D01*
X0241088Y0350356D01*
X0241004Y0350287D01*
X0240918Y0350222D01*
X0240829Y0350159D01*
X0240738Y0350100D01*
X0240646Y0350044D01*
X0240551Y0349991D01*
X0240454Y0349942D01*
X0240355Y0349897D01*
X0240255Y0349855D01*
X0240153Y0349817D01*
X0240051Y0349783D01*
X0239946Y0349752D01*
X0239841Y0349726D01*
X0239735Y0349703D01*
X0239628Y0349684D01*
X0239521Y0349669D01*
X0239413Y0349658D01*
X0239305Y0349651D01*
X0239196Y0349648D01*
X0239088Y0349649D01*
X0238979Y0349654D01*
X0238871Y0349663D01*
X0238763Y0349676D01*
X0238656Y0349693D01*
X0238550Y0349714D01*
X0238444Y0349738D01*
X0238339Y0349767D01*
X0238236Y0349799D01*
X0238134Y0349835D01*
X0238033Y0349875D01*
X0237933Y0349919D01*
X0237836Y0349966D01*
X0237740Y0350017D01*
X0237646Y0350071D01*
X0237554Y0350129D01*
X0237464Y0350190D01*
X0237377Y0350254D01*
X0237292Y0350322D01*
X0237209Y0350392D01*
X0237129Y0350466D01*
X0237052Y0350542D01*
X0236978Y0350621D01*
X0236907Y0350703D01*
X0236839Y0350787D01*
X0236774Y0350874D01*
X0236712Y0350963D01*
X0236653Y0351055D01*
X0236598Y0351148D01*
X0236547Y0351243D01*
X0236498Y0351341D01*
X0236454Y0351440D01*
X0236413Y0351540D01*
X0236376Y0351642D01*
X0236343Y0351745D01*
X0236313Y0351850D01*
X0236287Y0351955D01*
X0236266Y0352062D01*
X0236248Y0352169D01*
X0236234Y0352276D01*
X0236224Y0352384D01*
X0236218Y0352493D01*
X0236216Y0352601D01*
X0196846Y0352601D02*
X0196848Y0352709D01*
X0196854Y0352818D01*
X0196864Y0352926D01*
X0196878Y0353033D01*
X0196896Y0353140D01*
X0196917Y0353247D01*
X0196943Y0353352D01*
X0196973Y0353457D01*
X0197006Y0353560D01*
X0197043Y0353662D01*
X0197084Y0353762D01*
X0197128Y0353861D01*
X0197177Y0353959D01*
X0197228Y0354054D01*
X0197283Y0354147D01*
X0197342Y0354239D01*
X0197404Y0354328D01*
X0197469Y0354415D01*
X0197537Y0354499D01*
X0197608Y0354581D01*
X0197682Y0354660D01*
X0197759Y0354736D01*
X0197839Y0354810D01*
X0197922Y0354880D01*
X0198007Y0354948D01*
X0198094Y0355012D01*
X0198184Y0355073D01*
X0198276Y0355131D01*
X0198370Y0355185D01*
X0198466Y0355236D01*
X0198563Y0355283D01*
X0198663Y0355327D01*
X0198764Y0355367D01*
X0198866Y0355403D01*
X0198969Y0355435D01*
X0199074Y0355464D01*
X0199180Y0355488D01*
X0199286Y0355509D01*
X0199393Y0355526D01*
X0199501Y0355539D01*
X0199609Y0355548D01*
X0199718Y0355553D01*
X0199826Y0355554D01*
X0199935Y0355551D01*
X0200043Y0355544D01*
X0200151Y0355533D01*
X0200258Y0355518D01*
X0200365Y0355499D01*
X0200471Y0355476D01*
X0200576Y0355450D01*
X0200681Y0355419D01*
X0200783Y0355385D01*
X0200885Y0355347D01*
X0200985Y0355305D01*
X0201084Y0355260D01*
X0201181Y0355211D01*
X0201275Y0355158D01*
X0201368Y0355102D01*
X0201459Y0355043D01*
X0201548Y0354980D01*
X0201634Y0354915D01*
X0201718Y0354846D01*
X0201799Y0354774D01*
X0201877Y0354699D01*
X0201953Y0354621D01*
X0202026Y0354540D01*
X0202096Y0354457D01*
X0202162Y0354372D01*
X0202226Y0354284D01*
X0202286Y0354193D01*
X0202343Y0354101D01*
X0202396Y0354006D01*
X0202446Y0353910D01*
X0202492Y0353812D01*
X0202535Y0353712D01*
X0202574Y0353611D01*
X0202609Y0353508D01*
X0202641Y0353405D01*
X0202668Y0353300D01*
X0202692Y0353194D01*
X0202712Y0353087D01*
X0202728Y0352980D01*
X0202740Y0352872D01*
X0202748Y0352764D01*
X0202752Y0352655D01*
X0202752Y0352547D01*
X0202748Y0352438D01*
X0202740Y0352330D01*
X0202728Y0352222D01*
X0202712Y0352115D01*
X0202692Y0352008D01*
X0202668Y0351902D01*
X0202641Y0351797D01*
X0202609Y0351694D01*
X0202574Y0351591D01*
X0202535Y0351490D01*
X0202492Y0351390D01*
X0202446Y0351292D01*
X0202396Y0351196D01*
X0202343Y0351101D01*
X0202286Y0351009D01*
X0202226Y0350918D01*
X0202162Y0350830D01*
X0202096Y0350745D01*
X0202026Y0350662D01*
X0201953Y0350581D01*
X0201877Y0350503D01*
X0201799Y0350428D01*
X0201718Y0350356D01*
X0201634Y0350287D01*
X0201548Y0350222D01*
X0201459Y0350159D01*
X0201368Y0350100D01*
X0201276Y0350044D01*
X0201181Y0349991D01*
X0201084Y0349942D01*
X0200985Y0349897D01*
X0200885Y0349855D01*
X0200783Y0349817D01*
X0200681Y0349783D01*
X0200576Y0349752D01*
X0200471Y0349726D01*
X0200365Y0349703D01*
X0200258Y0349684D01*
X0200151Y0349669D01*
X0200043Y0349658D01*
X0199935Y0349651D01*
X0199826Y0349648D01*
X0199718Y0349649D01*
X0199609Y0349654D01*
X0199501Y0349663D01*
X0199393Y0349676D01*
X0199286Y0349693D01*
X0199180Y0349714D01*
X0199074Y0349738D01*
X0198969Y0349767D01*
X0198866Y0349799D01*
X0198764Y0349835D01*
X0198663Y0349875D01*
X0198563Y0349919D01*
X0198466Y0349966D01*
X0198370Y0350017D01*
X0198276Y0350071D01*
X0198184Y0350129D01*
X0198094Y0350190D01*
X0198007Y0350254D01*
X0197922Y0350322D01*
X0197839Y0350392D01*
X0197759Y0350466D01*
X0197682Y0350542D01*
X0197608Y0350621D01*
X0197537Y0350703D01*
X0197469Y0350787D01*
X0197404Y0350874D01*
X0197342Y0350963D01*
X0197283Y0351055D01*
X0197228Y0351148D01*
X0197177Y0351243D01*
X0197128Y0351341D01*
X0197084Y0351440D01*
X0197043Y0351540D01*
X0197006Y0351642D01*
X0196973Y0351745D01*
X0196943Y0351850D01*
X0196917Y0351955D01*
X0196896Y0352062D01*
X0196878Y0352169D01*
X0196864Y0352276D01*
X0196854Y0352384D01*
X0196848Y0352493D01*
X0196846Y0352601D01*
X0179598Y0353101D02*
X0179600Y0353209D01*
X0179606Y0353318D01*
X0179616Y0353426D01*
X0179630Y0353533D01*
X0179648Y0353640D01*
X0179669Y0353747D01*
X0179695Y0353852D01*
X0179725Y0353957D01*
X0179758Y0354060D01*
X0179795Y0354162D01*
X0179836Y0354262D01*
X0179880Y0354361D01*
X0179929Y0354459D01*
X0179980Y0354554D01*
X0180035Y0354647D01*
X0180094Y0354739D01*
X0180156Y0354828D01*
X0180221Y0354915D01*
X0180289Y0354999D01*
X0180360Y0355081D01*
X0180434Y0355160D01*
X0180511Y0355236D01*
X0180591Y0355310D01*
X0180674Y0355380D01*
X0180759Y0355448D01*
X0180846Y0355512D01*
X0180936Y0355573D01*
X0181028Y0355631D01*
X0181122Y0355685D01*
X0181218Y0355736D01*
X0181315Y0355783D01*
X0181415Y0355827D01*
X0181516Y0355867D01*
X0181618Y0355903D01*
X0181721Y0355935D01*
X0181826Y0355964D01*
X0181932Y0355988D01*
X0182038Y0356009D01*
X0182145Y0356026D01*
X0182253Y0356039D01*
X0182361Y0356048D01*
X0182470Y0356053D01*
X0182578Y0356054D01*
X0182687Y0356051D01*
X0182795Y0356044D01*
X0182903Y0356033D01*
X0183010Y0356018D01*
X0183117Y0355999D01*
X0183223Y0355976D01*
X0183328Y0355950D01*
X0183433Y0355919D01*
X0183535Y0355885D01*
X0183637Y0355847D01*
X0183737Y0355805D01*
X0183836Y0355760D01*
X0183933Y0355711D01*
X0184027Y0355658D01*
X0184120Y0355602D01*
X0184211Y0355543D01*
X0184300Y0355480D01*
X0184386Y0355415D01*
X0184470Y0355346D01*
X0184551Y0355274D01*
X0184629Y0355199D01*
X0184705Y0355121D01*
X0184778Y0355040D01*
X0184848Y0354957D01*
X0184914Y0354872D01*
X0184978Y0354784D01*
X0185038Y0354693D01*
X0185095Y0354601D01*
X0185148Y0354506D01*
X0185198Y0354410D01*
X0185244Y0354312D01*
X0185287Y0354212D01*
X0185326Y0354111D01*
X0185361Y0354008D01*
X0185393Y0353905D01*
X0185420Y0353800D01*
X0185444Y0353694D01*
X0185464Y0353587D01*
X0185480Y0353480D01*
X0185492Y0353372D01*
X0185500Y0353264D01*
X0185504Y0353155D01*
X0185504Y0353047D01*
X0185500Y0352938D01*
X0185492Y0352830D01*
X0185480Y0352722D01*
X0185464Y0352615D01*
X0185444Y0352508D01*
X0185420Y0352402D01*
X0185393Y0352297D01*
X0185361Y0352194D01*
X0185326Y0352091D01*
X0185287Y0351990D01*
X0185244Y0351890D01*
X0185198Y0351792D01*
X0185148Y0351696D01*
X0185095Y0351601D01*
X0185038Y0351509D01*
X0184978Y0351418D01*
X0184914Y0351330D01*
X0184848Y0351245D01*
X0184778Y0351162D01*
X0184705Y0351081D01*
X0184629Y0351003D01*
X0184551Y0350928D01*
X0184470Y0350856D01*
X0184386Y0350787D01*
X0184300Y0350722D01*
X0184211Y0350659D01*
X0184120Y0350600D01*
X0184028Y0350544D01*
X0183933Y0350491D01*
X0183836Y0350442D01*
X0183737Y0350397D01*
X0183637Y0350355D01*
X0183535Y0350317D01*
X0183433Y0350283D01*
X0183328Y0350252D01*
X0183223Y0350226D01*
X0183117Y0350203D01*
X0183010Y0350184D01*
X0182903Y0350169D01*
X0182795Y0350158D01*
X0182687Y0350151D01*
X0182578Y0350148D01*
X0182470Y0350149D01*
X0182361Y0350154D01*
X0182253Y0350163D01*
X0182145Y0350176D01*
X0182038Y0350193D01*
X0181932Y0350214D01*
X0181826Y0350238D01*
X0181721Y0350267D01*
X0181618Y0350299D01*
X0181516Y0350335D01*
X0181415Y0350375D01*
X0181315Y0350419D01*
X0181218Y0350466D01*
X0181122Y0350517D01*
X0181028Y0350571D01*
X0180936Y0350629D01*
X0180846Y0350690D01*
X0180759Y0350754D01*
X0180674Y0350822D01*
X0180591Y0350892D01*
X0180511Y0350966D01*
X0180434Y0351042D01*
X0180360Y0351121D01*
X0180289Y0351203D01*
X0180221Y0351287D01*
X0180156Y0351374D01*
X0180094Y0351463D01*
X0180035Y0351555D01*
X0179980Y0351648D01*
X0179929Y0351743D01*
X0179880Y0351841D01*
X0179836Y0351940D01*
X0179795Y0352040D01*
X0179758Y0352142D01*
X0179725Y0352245D01*
X0179695Y0352350D01*
X0179669Y0352455D01*
X0179648Y0352562D01*
X0179630Y0352669D01*
X0179616Y0352776D01*
X0179606Y0352884D01*
X0179600Y0352993D01*
X0179598Y0353101D01*
X0140228Y0353101D02*
X0140230Y0353209D01*
X0140236Y0353318D01*
X0140246Y0353426D01*
X0140260Y0353533D01*
X0140278Y0353640D01*
X0140299Y0353747D01*
X0140325Y0353852D01*
X0140355Y0353957D01*
X0140388Y0354060D01*
X0140425Y0354162D01*
X0140466Y0354262D01*
X0140510Y0354361D01*
X0140559Y0354459D01*
X0140610Y0354554D01*
X0140665Y0354647D01*
X0140724Y0354739D01*
X0140786Y0354828D01*
X0140851Y0354915D01*
X0140919Y0354999D01*
X0140990Y0355081D01*
X0141064Y0355160D01*
X0141141Y0355236D01*
X0141221Y0355310D01*
X0141304Y0355380D01*
X0141389Y0355448D01*
X0141476Y0355512D01*
X0141566Y0355573D01*
X0141658Y0355631D01*
X0141752Y0355685D01*
X0141848Y0355736D01*
X0141945Y0355783D01*
X0142045Y0355827D01*
X0142146Y0355867D01*
X0142248Y0355903D01*
X0142351Y0355935D01*
X0142456Y0355964D01*
X0142562Y0355988D01*
X0142668Y0356009D01*
X0142775Y0356026D01*
X0142883Y0356039D01*
X0142991Y0356048D01*
X0143100Y0356053D01*
X0143208Y0356054D01*
X0143317Y0356051D01*
X0143425Y0356044D01*
X0143533Y0356033D01*
X0143640Y0356018D01*
X0143747Y0355999D01*
X0143853Y0355976D01*
X0143958Y0355950D01*
X0144063Y0355919D01*
X0144165Y0355885D01*
X0144267Y0355847D01*
X0144367Y0355805D01*
X0144466Y0355760D01*
X0144563Y0355711D01*
X0144657Y0355658D01*
X0144750Y0355602D01*
X0144841Y0355543D01*
X0144930Y0355480D01*
X0145016Y0355415D01*
X0145100Y0355346D01*
X0145181Y0355274D01*
X0145259Y0355199D01*
X0145335Y0355121D01*
X0145408Y0355040D01*
X0145478Y0354957D01*
X0145544Y0354872D01*
X0145608Y0354784D01*
X0145668Y0354693D01*
X0145725Y0354601D01*
X0145778Y0354506D01*
X0145828Y0354410D01*
X0145874Y0354312D01*
X0145917Y0354212D01*
X0145956Y0354111D01*
X0145991Y0354008D01*
X0146023Y0353905D01*
X0146050Y0353800D01*
X0146074Y0353694D01*
X0146094Y0353587D01*
X0146110Y0353480D01*
X0146122Y0353372D01*
X0146130Y0353264D01*
X0146134Y0353155D01*
X0146134Y0353047D01*
X0146130Y0352938D01*
X0146122Y0352830D01*
X0146110Y0352722D01*
X0146094Y0352615D01*
X0146074Y0352508D01*
X0146050Y0352402D01*
X0146023Y0352297D01*
X0145991Y0352194D01*
X0145956Y0352091D01*
X0145917Y0351990D01*
X0145874Y0351890D01*
X0145828Y0351792D01*
X0145778Y0351696D01*
X0145725Y0351601D01*
X0145668Y0351509D01*
X0145608Y0351418D01*
X0145544Y0351330D01*
X0145478Y0351245D01*
X0145408Y0351162D01*
X0145335Y0351081D01*
X0145259Y0351003D01*
X0145181Y0350928D01*
X0145100Y0350856D01*
X0145016Y0350787D01*
X0144930Y0350722D01*
X0144841Y0350659D01*
X0144750Y0350600D01*
X0144658Y0350544D01*
X0144563Y0350491D01*
X0144466Y0350442D01*
X0144367Y0350397D01*
X0144267Y0350355D01*
X0144165Y0350317D01*
X0144063Y0350283D01*
X0143958Y0350252D01*
X0143853Y0350226D01*
X0143747Y0350203D01*
X0143640Y0350184D01*
X0143533Y0350169D01*
X0143425Y0350158D01*
X0143317Y0350151D01*
X0143208Y0350148D01*
X0143100Y0350149D01*
X0142991Y0350154D01*
X0142883Y0350163D01*
X0142775Y0350176D01*
X0142668Y0350193D01*
X0142562Y0350214D01*
X0142456Y0350238D01*
X0142351Y0350267D01*
X0142248Y0350299D01*
X0142146Y0350335D01*
X0142045Y0350375D01*
X0141945Y0350419D01*
X0141848Y0350466D01*
X0141752Y0350517D01*
X0141658Y0350571D01*
X0141566Y0350629D01*
X0141476Y0350690D01*
X0141389Y0350754D01*
X0141304Y0350822D01*
X0141221Y0350892D01*
X0141141Y0350966D01*
X0141064Y0351042D01*
X0140990Y0351121D01*
X0140919Y0351203D01*
X0140851Y0351287D01*
X0140786Y0351374D01*
X0140724Y0351463D01*
X0140665Y0351555D01*
X0140610Y0351648D01*
X0140559Y0351743D01*
X0140510Y0351841D01*
X0140466Y0351940D01*
X0140425Y0352040D01*
X0140388Y0352142D01*
X0140355Y0352245D01*
X0140325Y0352350D01*
X0140299Y0352455D01*
X0140278Y0352562D01*
X0140260Y0352669D01*
X0140246Y0352776D01*
X0140236Y0352884D01*
X0140230Y0352993D01*
X0140228Y0353101D01*
X0126980Y0353101D02*
X0126982Y0353209D01*
X0126988Y0353318D01*
X0126998Y0353426D01*
X0127012Y0353533D01*
X0127030Y0353640D01*
X0127051Y0353747D01*
X0127077Y0353852D01*
X0127107Y0353957D01*
X0127140Y0354060D01*
X0127177Y0354162D01*
X0127218Y0354262D01*
X0127262Y0354361D01*
X0127311Y0354459D01*
X0127362Y0354554D01*
X0127417Y0354647D01*
X0127476Y0354739D01*
X0127538Y0354828D01*
X0127603Y0354915D01*
X0127671Y0354999D01*
X0127742Y0355081D01*
X0127816Y0355160D01*
X0127893Y0355236D01*
X0127973Y0355310D01*
X0128056Y0355380D01*
X0128141Y0355448D01*
X0128228Y0355512D01*
X0128318Y0355573D01*
X0128410Y0355631D01*
X0128504Y0355685D01*
X0128600Y0355736D01*
X0128697Y0355783D01*
X0128797Y0355827D01*
X0128898Y0355867D01*
X0129000Y0355903D01*
X0129103Y0355935D01*
X0129208Y0355964D01*
X0129314Y0355988D01*
X0129420Y0356009D01*
X0129527Y0356026D01*
X0129635Y0356039D01*
X0129743Y0356048D01*
X0129852Y0356053D01*
X0129960Y0356054D01*
X0130069Y0356051D01*
X0130177Y0356044D01*
X0130285Y0356033D01*
X0130392Y0356018D01*
X0130499Y0355999D01*
X0130605Y0355976D01*
X0130710Y0355950D01*
X0130815Y0355919D01*
X0130917Y0355885D01*
X0131019Y0355847D01*
X0131119Y0355805D01*
X0131218Y0355760D01*
X0131315Y0355711D01*
X0131409Y0355658D01*
X0131502Y0355602D01*
X0131593Y0355543D01*
X0131682Y0355480D01*
X0131768Y0355415D01*
X0131852Y0355346D01*
X0131933Y0355274D01*
X0132011Y0355199D01*
X0132087Y0355121D01*
X0132160Y0355040D01*
X0132230Y0354957D01*
X0132296Y0354872D01*
X0132360Y0354784D01*
X0132420Y0354693D01*
X0132477Y0354601D01*
X0132530Y0354506D01*
X0132580Y0354410D01*
X0132626Y0354312D01*
X0132669Y0354212D01*
X0132708Y0354111D01*
X0132743Y0354008D01*
X0132775Y0353905D01*
X0132802Y0353800D01*
X0132826Y0353694D01*
X0132846Y0353587D01*
X0132862Y0353480D01*
X0132874Y0353372D01*
X0132882Y0353264D01*
X0132886Y0353155D01*
X0132886Y0353047D01*
X0132882Y0352938D01*
X0132874Y0352830D01*
X0132862Y0352722D01*
X0132846Y0352615D01*
X0132826Y0352508D01*
X0132802Y0352402D01*
X0132775Y0352297D01*
X0132743Y0352194D01*
X0132708Y0352091D01*
X0132669Y0351990D01*
X0132626Y0351890D01*
X0132580Y0351792D01*
X0132530Y0351696D01*
X0132477Y0351601D01*
X0132420Y0351509D01*
X0132360Y0351418D01*
X0132296Y0351330D01*
X0132230Y0351245D01*
X0132160Y0351162D01*
X0132087Y0351081D01*
X0132011Y0351003D01*
X0131933Y0350928D01*
X0131852Y0350856D01*
X0131768Y0350787D01*
X0131682Y0350722D01*
X0131593Y0350659D01*
X0131502Y0350600D01*
X0131410Y0350544D01*
X0131315Y0350491D01*
X0131218Y0350442D01*
X0131119Y0350397D01*
X0131019Y0350355D01*
X0130917Y0350317D01*
X0130815Y0350283D01*
X0130710Y0350252D01*
X0130605Y0350226D01*
X0130499Y0350203D01*
X0130392Y0350184D01*
X0130285Y0350169D01*
X0130177Y0350158D01*
X0130069Y0350151D01*
X0129960Y0350148D01*
X0129852Y0350149D01*
X0129743Y0350154D01*
X0129635Y0350163D01*
X0129527Y0350176D01*
X0129420Y0350193D01*
X0129314Y0350214D01*
X0129208Y0350238D01*
X0129103Y0350267D01*
X0129000Y0350299D01*
X0128898Y0350335D01*
X0128797Y0350375D01*
X0128697Y0350419D01*
X0128600Y0350466D01*
X0128504Y0350517D01*
X0128410Y0350571D01*
X0128318Y0350629D01*
X0128228Y0350690D01*
X0128141Y0350754D01*
X0128056Y0350822D01*
X0127973Y0350892D01*
X0127893Y0350966D01*
X0127816Y0351042D01*
X0127742Y0351121D01*
X0127671Y0351203D01*
X0127603Y0351287D01*
X0127538Y0351374D01*
X0127476Y0351463D01*
X0127417Y0351555D01*
X0127362Y0351648D01*
X0127311Y0351743D01*
X0127262Y0351841D01*
X0127218Y0351940D01*
X0127177Y0352040D01*
X0127140Y0352142D01*
X0127107Y0352245D01*
X0127077Y0352350D01*
X0127051Y0352455D01*
X0127030Y0352562D01*
X0127012Y0352669D01*
X0126998Y0352776D01*
X0126988Y0352884D01*
X0126982Y0352993D01*
X0126980Y0353101D01*
X0087610Y0353101D02*
X0087612Y0353209D01*
X0087618Y0353318D01*
X0087628Y0353426D01*
X0087642Y0353533D01*
X0087660Y0353640D01*
X0087681Y0353747D01*
X0087707Y0353852D01*
X0087737Y0353957D01*
X0087770Y0354060D01*
X0087807Y0354162D01*
X0087848Y0354262D01*
X0087892Y0354361D01*
X0087941Y0354459D01*
X0087992Y0354554D01*
X0088047Y0354647D01*
X0088106Y0354739D01*
X0088168Y0354828D01*
X0088233Y0354915D01*
X0088301Y0354999D01*
X0088372Y0355081D01*
X0088446Y0355160D01*
X0088523Y0355236D01*
X0088603Y0355310D01*
X0088686Y0355380D01*
X0088771Y0355448D01*
X0088858Y0355512D01*
X0088948Y0355573D01*
X0089040Y0355631D01*
X0089134Y0355685D01*
X0089230Y0355736D01*
X0089327Y0355783D01*
X0089427Y0355827D01*
X0089528Y0355867D01*
X0089630Y0355903D01*
X0089733Y0355935D01*
X0089838Y0355964D01*
X0089944Y0355988D01*
X0090050Y0356009D01*
X0090157Y0356026D01*
X0090265Y0356039D01*
X0090373Y0356048D01*
X0090482Y0356053D01*
X0090590Y0356054D01*
X0090699Y0356051D01*
X0090807Y0356044D01*
X0090915Y0356033D01*
X0091022Y0356018D01*
X0091129Y0355999D01*
X0091235Y0355976D01*
X0091340Y0355950D01*
X0091445Y0355919D01*
X0091547Y0355885D01*
X0091649Y0355847D01*
X0091749Y0355805D01*
X0091848Y0355760D01*
X0091945Y0355711D01*
X0092039Y0355658D01*
X0092132Y0355602D01*
X0092223Y0355543D01*
X0092312Y0355480D01*
X0092398Y0355415D01*
X0092482Y0355346D01*
X0092563Y0355274D01*
X0092641Y0355199D01*
X0092717Y0355121D01*
X0092790Y0355040D01*
X0092860Y0354957D01*
X0092926Y0354872D01*
X0092990Y0354784D01*
X0093050Y0354693D01*
X0093107Y0354601D01*
X0093160Y0354506D01*
X0093210Y0354410D01*
X0093256Y0354312D01*
X0093299Y0354212D01*
X0093338Y0354111D01*
X0093373Y0354008D01*
X0093405Y0353905D01*
X0093432Y0353800D01*
X0093456Y0353694D01*
X0093476Y0353587D01*
X0093492Y0353480D01*
X0093504Y0353372D01*
X0093512Y0353264D01*
X0093516Y0353155D01*
X0093516Y0353047D01*
X0093512Y0352938D01*
X0093504Y0352830D01*
X0093492Y0352722D01*
X0093476Y0352615D01*
X0093456Y0352508D01*
X0093432Y0352402D01*
X0093405Y0352297D01*
X0093373Y0352194D01*
X0093338Y0352091D01*
X0093299Y0351990D01*
X0093256Y0351890D01*
X0093210Y0351792D01*
X0093160Y0351696D01*
X0093107Y0351601D01*
X0093050Y0351509D01*
X0092990Y0351418D01*
X0092926Y0351330D01*
X0092860Y0351245D01*
X0092790Y0351162D01*
X0092717Y0351081D01*
X0092641Y0351003D01*
X0092563Y0350928D01*
X0092482Y0350856D01*
X0092398Y0350787D01*
X0092312Y0350722D01*
X0092223Y0350659D01*
X0092132Y0350600D01*
X0092040Y0350544D01*
X0091945Y0350491D01*
X0091848Y0350442D01*
X0091749Y0350397D01*
X0091649Y0350355D01*
X0091547Y0350317D01*
X0091445Y0350283D01*
X0091340Y0350252D01*
X0091235Y0350226D01*
X0091129Y0350203D01*
X0091022Y0350184D01*
X0090915Y0350169D01*
X0090807Y0350158D01*
X0090699Y0350151D01*
X0090590Y0350148D01*
X0090482Y0350149D01*
X0090373Y0350154D01*
X0090265Y0350163D01*
X0090157Y0350176D01*
X0090050Y0350193D01*
X0089944Y0350214D01*
X0089838Y0350238D01*
X0089733Y0350267D01*
X0089630Y0350299D01*
X0089528Y0350335D01*
X0089427Y0350375D01*
X0089327Y0350419D01*
X0089230Y0350466D01*
X0089134Y0350517D01*
X0089040Y0350571D01*
X0088948Y0350629D01*
X0088858Y0350690D01*
X0088771Y0350754D01*
X0088686Y0350822D01*
X0088603Y0350892D01*
X0088523Y0350966D01*
X0088446Y0351042D01*
X0088372Y0351121D01*
X0088301Y0351203D01*
X0088233Y0351287D01*
X0088168Y0351374D01*
X0088106Y0351463D01*
X0088047Y0351555D01*
X0087992Y0351648D01*
X0087941Y0351743D01*
X0087892Y0351841D01*
X0087848Y0351940D01*
X0087807Y0352040D01*
X0087770Y0352142D01*
X0087737Y0352245D01*
X0087707Y0352350D01*
X0087681Y0352455D01*
X0087660Y0352562D01*
X0087642Y0352669D01*
X0087628Y0352776D01*
X0087618Y0352884D01*
X0087612Y0352993D01*
X0087610Y0353101D01*
X0075425Y0353101D02*
X0075427Y0353209D01*
X0075433Y0353318D01*
X0075443Y0353426D01*
X0075457Y0353533D01*
X0075475Y0353640D01*
X0075496Y0353747D01*
X0075522Y0353852D01*
X0075552Y0353957D01*
X0075585Y0354060D01*
X0075622Y0354162D01*
X0075663Y0354262D01*
X0075707Y0354361D01*
X0075756Y0354459D01*
X0075807Y0354554D01*
X0075862Y0354647D01*
X0075921Y0354739D01*
X0075983Y0354828D01*
X0076048Y0354915D01*
X0076116Y0354999D01*
X0076187Y0355081D01*
X0076261Y0355160D01*
X0076338Y0355236D01*
X0076418Y0355310D01*
X0076501Y0355380D01*
X0076586Y0355448D01*
X0076673Y0355512D01*
X0076763Y0355573D01*
X0076855Y0355631D01*
X0076949Y0355685D01*
X0077045Y0355736D01*
X0077142Y0355783D01*
X0077242Y0355827D01*
X0077343Y0355867D01*
X0077445Y0355903D01*
X0077548Y0355935D01*
X0077653Y0355964D01*
X0077759Y0355988D01*
X0077865Y0356009D01*
X0077972Y0356026D01*
X0078080Y0356039D01*
X0078188Y0356048D01*
X0078297Y0356053D01*
X0078405Y0356054D01*
X0078514Y0356051D01*
X0078622Y0356044D01*
X0078730Y0356033D01*
X0078837Y0356018D01*
X0078944Y0355999D01*
X0079050Y0355976D01*
X0079155Y0355950D01*
X0079260Y0355919D01*
X0079362Y0355885D01*
X0079464Y0355847D01*
X0079564Y0355805D01*
X0079663Y0355760D01*
X0079760Y0355711D01*
X0079854Y0355658D01*
X0079947Y0355602D01*
X0080038Y0355543D01*
X0080127Y0355480D01*
X0080213Y0355415D01*
X0080297Y0355346D01*
X0080378Y0355274D01*
X0080456Y0355199D01*
X0080532Y0355121D01*
X0080605Y0355040D01*
X0080675Y0354957D01*
X0080741Y0354872D01*
X0080805Y0354784D01*
X0080865Y0354693D01*
X0080922Y0354601D01*
X0080975Y0354506D01*
X0081025Y0354410D01*
X0081071Y0354312D01*
X0081114Y0354212D01*
X0081153Y0354111D01*
X0081188Y0354008D01*
X0081220Y0353905D01*
X0081247Y0353800D01*
X0081271Y0353694D01*
X0081291Y0353587D01*
X0081307Y0353480D01*
X0081319Y0353372D01*
X0081327Y0353264D01*
X0081331Y0353155D01*
X0081331Y0353047D01*
X0081327Y0352938D01*
X0081319Y0352830D01*
X0081307Y0352722D01*
X0081291Y0352615D01*
X0081271Y0352508D01*
X0081247Y0352402D01*
X0081220Y0352297D01*
X0081188Y0352194D01*
X0081153Y0352091D01*
X0081114Y0351990D01*
X0081071Y0351890D01*
X0081025Y0351792D01*
X0080975Y0351696D01*
X0080922Y0351601D01*
X0080865Y0351509D01*
X0080805Y0351418D01*
X0080741Y0351330D01*
X0080675Y0351245D01*
X0080605Y0351162D01*
X0080532Y0351081D01*
X0080456Y0351003D01*
X0080378Y0350928D01*
X0080297Y0350856D01*
X0080213Y0350787D01*
X0080127Y0350722D01*
X0080038Y0350659D01*
X0079947Y0350600D01*
X0079855Y0350544D01*
X0079760Y0350491D01*
X0079663Y0350442D01*
X0079564Y0350397D01*
X0079464Y0350355D01*
X0079362Y0350317D01*
X0079260Y0350283D01*
X0079155Y0350252D01*
X0079050Y0350226D01*
X0078944Y0350203D01*
X0078837Y0350184D01*
X0078730Y0350169D01*
X0078622Y0350158D01*
X0078514Y0350151D01*
X0078405Y0350148D01*
X0078297Y0350149D01*
X0078188Y0350154D01*
X0078080Y0350163D01*
X0077972Y0350176D01*
X0077865Y0350193D01*
X0077759Y0350214D01*
X0077653Y0350238D01*
X0077548Y0350267D01*
X0077445Y0350299D01*
X0077343Y0350335D01*
X0077242Y0350375D01*
X0077142Y0350419D01*
X0077045Y0350466D01*
X0076949Y0350517D01*
X0076855Y0350571D01*
X0076763Y0350629D01*
X0076673Y0350690D01*
X0076586Y0350754D01*
X0076501Y0350822D01*
X0076418Y0350892D01*
X0076338Y0350966D01*
X0076261Y0351042D01*
X0076187Y0351121D01*
X0076116Y0351203D01*
X0076048Y0351287D01*
X0075983Y0351374D01*
X0075921Y0351463D01*
X0075862Y0351555D01*
X0075807Y0351648D01*
X0075756Y0351743D01*
X0075707Y0351841D01*
X0075663Y0351940D01*
X0075622Y0352040D01*
X0075585Y0352142D01*
X0075552Y0352245D01*
X0075522Y0352350D01*
X0075496Y0352455D01*
X0075475Y0352562D01*
X0075457Y0352669D01*
X0075443Y0352776D01*
X0075433Y0352884D01*
X0075427Y0352993D01*
X0075425Y0353101D01*
X0036055Y0353101D02*
X0036057Y0353209D01*
X0036063Y0353318D01*
X0036073Y0353426D01*
X0036087Y0353533D01*
X0036105Y0353640D01*
X0036126Y0353747D01*
X0036152Y0353852D01*
X0036182Y0353957D01*
X0036215Y0354060D01*
X0036252Y0354162D01*
X0036293Y0354262D01*
X0036337Y0354361D01*
X0036386Y0354459D01*
X0036437Y0354554D01*
X0036492Y0354647D01*
X0036551Y0354739D01*
X0036613Y0354828D01*
X0036678Y0354915D01*
X0036746Y0354999D01*
X0036817Y0355081D01*
X0036891Y0355160D01*
X0036968Y0355236D01*
X0037048Y0355310D01*
X0037131Y0355380D01*
X0037216Y0355448D01*
X0037303Y0355512D01*
X0037393Y0355573D01*
X0037485Y0355631D01*
X0037579Y0355685D01*
X0037675Y0355736D01*
X0037772Y0355783D01*
X0037872Y0355827D01*
X0037973Y0355867D01*
X0038075Y0355903D01*
X0038178Y0355935D01*
X0038283Y0355964D01*
X0038389Y0355988D01*
X0038495Y0356009D01*
X0038602Y0356026D01*
X0038710Y0356039D01*
X0038818Y0356048D01*
X0038927Y0356053D01*
X0039035Y0356054D01*
X0039144Y0356051D01*
X0039252Y0356044D01*
X0039360Y0356033D01*
X0039467Y0356018D01*
X0039574Y0355999D01*
X0039680Y0355976D01*
X0039785Y0355950D01*
X0039890Y0355919D01*
X0039992Y0355885D01*
X0040094Y0355847D01*
X0040194Y0355805D01*
X0040293Y0355760D01*
X0040390Y0355711D01*
X0040484Y0355658D01*
X0040577Y0355602D01*
X0040668Y0355543D01*
X0040757Y0355480D01*
X0040843Y0355415D01*
X0040927Y0355346D01*
X0041008Y0355274D01*
X0041086Y0355199D01*
X0041162Y0355121D01*
X0041235Y0355040D01*
X0041305Y0354957D01*
X0041371Y0354872D01*
X0041435Y0354784D01*
X0041495Y0354693D01*
X0041552Y0354601D01*
X0041605Y0354506D01*
X0041655Y0354410D01*
X0041701Y0354312D01*
X0041744Y0354212D01*
X0041783Y0354111D01*
X0041818Y0354008D01*
X0041850Y0353905D01*
X0041877Y0353800D01*
X0041901Y0353694D01*
X0041921Y0353587D01*
X0041937Y0353480D01*
X0041949Y0353372D01*
X0041957Y0353264D01*
X0041961Y0353155D01*
X0041961Y0353047D01*
X0041957Y0352938D01*
X0041949Y0352830D01*
X0041937Y0352722D01*
X0041921Y0352615D01*
X0041901Y0352508D01*
X0041877Y0352402D01*
X0041850Y0352297D01*
X0041818Y0352194D01*
X0041783Y0352091D01*
X0041744Y0351990D01*
X0041701Y0351890D01*
X0041655Y0351792D01*
X0041605Y0351696D01*
X0041552Y0351601D01*
X0041495Y0351509D01*
X0041435Y0351418D01*
X0041371Y0351330D01*
X0041305Y0351245D01*
X0041235Y0351162D01*
X0041162Y0351081D01*
X0041086Y0351003D01*
X0041008Y0350928D01*
X0040927Y0350856D01*
X0040843Y0350787D01*
X0040757Y0350722D01*
X0040668Y0350659D01*
X0040577Y0350600D01*
X0040485Y0350544D01*
X0040390Y0350491D01*
X0040293Y0350442D01*
X0040194Y0350397D01*
X0040094Y0350355D01*
X0039992Y0350317D01*
X0039890Y0350283D01*
X0039785Y0350252D01*
X0039680Y0350226D01*
X0039574Y0350203D01*
X0039467Y0350184D01*
X0039360Y0350169D01*
X0039252Y0350158D01*
X0039144Y0350151D01*
X0039035Y0350148D01*
X0038927Y0350149D01*
X0038818Y0350154D01*
X0038710Y0350163D01*
X0038602Y0350176D01*
X0038495Y0350193D01*
X0038389Y0350214D01*
X0038283Y0350238D01*
X0038178Y0350267D01*
X0038075Y0350299D01*
X0037973Y0350335D01*
X0037872Y0350375D01*
X0037772Y0350419D01*
X0037675Y0350466D01*
X0037579Y0350517D01*
X0037485Y0350571D01*
X0037393Y0350629D01*
X0037303Y0350690D01*
X0037216Y0350754D01*
X0037131Y0350822D01*
X0037048Y0350892D01*
X0036968Y0350966D01*
X0036891Y0351042D01*
X0036817Y0351121D01*
X0036746Y0351203D01*
X0036678Y0351287D01*
X0036613Y0351374D01*
X0036551Y0351463D01*
X0036492Y0351555D01*
X0036437Y0351648D01*
X0036386Y0351743D01*
X0036337Y0351841D01*
X0036293Y0351940D01*
X0036252Y0352040D01*
X0036215Y0352142D01*
X0036182Y0352245D01*
X0036152Y0352350D01*
X0036126Y0352455D01*
X0036105Y0352562D01*
X0036087Y0352669D01*
X0036073Y0352776D01*
X0036063Y0352884D01*
X0036057Y0352993D01*
X0036055Y0353101D01*
M02*
